<svg width="76" height="20" viewBox="0 0 76 20" fill="none" xmlns="http://www.w3.org/2000/svg">
<path fill-rule="evenodd" clip-rule="evenodd" d="M28.7332 2.98438C25.2646 2.98438 22.6639 5.04682 22.6857 8.62864H25.9093C25.865 7.19591 26.7983 5.80616 28.7332 5.80616C30.2 5.80616 31.134 6.76132 31.134 7.97709C31.134 9.23652 30.1106 9.93106 28.4664 10.7129C26.3098 11.7329 25.0203 12.2105 22.6857 12.9698V17.0947H34.6906V14.2722H27.0432C28.1573 13.8185 29.2421 13.3205 30.2225 12.8613C32.8233 11.6462 34.357 10.2783 34.357 7.82563C34.357 4.87285 32.0898 2.98438 28.7332 2.98438ZM39.5816 6.02312H45.8065V3.20133H36.4692V17.0947H39.5816V6.02312ZM50.6975 3.20133H47.5851V17.0947H50.675L56.4776 8.21588V17.0947H59.59V3.20133H56.4776L50.6975 12.0801V3.20133ZM75.219 11.8843H71.9954C71.5062 13.4262 70.0169 14.4899 68.2607 14.4899C65.7037 14.4899 64.0362 12.3408 64.0362 10.148C64.0362 7.95526 65.6593 5.80616 68.3494 5.80616C70.1281 5.80616 71.5062 6.87048 71.9954 8.41168H75.219C74.7524 5.30744 72.2403 2.98438 68.2607 2.98438C63.8589 2.98438 60.9238 6.00197 60.9238 10.148C60.9238 14.2941 63.8589 17.3116 68.2607 17.3116C72.2403 17.3116 74.7524 15.0329 75.219 11.8843Z" fill="#262626"/>
<mask id="mask0_23340_7969" style="mask-type:luminance" x="0" y="0" width="20" height="20">
<path fill-rule="evenodd" clip-rule="evenodd" d="M4.89635 0.00895418L5.73927 0L14.507 0.00358213C14.6401 0.00477607 14.7231 0.0065663 14.8054 0.00895418C15.24 0.0202966 15.6788 0.0453697 16.1086 0.122379C16.5392 0.195023 16.9566 0.331015 17.3473 0.525931C17.7366 0.721737 18.0936 0.977239 18.4022 1.28348C18.711 1.58827 18.9695 1.94007 19.1681 2.32579C19.3711 2.718 19.4982 3.11976 19.5764 3.55078C19.654 3.97582 19.6797 4.40922 19.691 4.83904C19.697 5.03604 19.6994 5.23304 19.7 5.43063L19.7012 5.78225V13.5649C19.7012 13.799 19.7012 14.0336 19.7 14.2682C19.6988 14.4652 19.697 14.6622 19.691 14.8592C19.6791 15.289 19.654 15.723 19.5764 16.1474C19.5028 16.574 19.3651 16.987 19.1681 17.3724C18.9694 17.7582 18.7109 18.1102 18.4022 18.4153C18.0924 18.7215 17.7364 18.9771 17.3473 19.1729C16.9566 19.3678 16.5392 19.5038 16.1086 19.5764C15.6788 19.6528 15.24 19.6779 14.8054 19.6899L13.4957 19.7L5.19423 19.6952C5.09492 19.6941 4.99562 19.6922 4.89635 19.6893C4.46175 19.6785 4.02298 19.6528 3.59316 19.5764C3.1628 19.5038 2.74557 19.3678 2.35505 19.1729C1.57334 18.7795 0.935743 18.1494 0.533094 17.3724C0.33638 16.9869 0.198733 16.5739 0.124766 16.1474C0.0471604 15.723 0.0220877 15.289 0.0107452 14.8598C0.00477555 14.6628 0.002985 14.4652 0.00179106 14.2682L0 13.9154V6.13386C0 5.89985 1.54838e-07 5.66524 0.00179106 5.43123C0.002985 5.23423 0.00537252 5.03723 0.0107452 4.83963C0.0226846 4.40982 0.0477574 3.97641 0.124766 3.55137C0.198689 3.12488 0.336338 2.71194 0.533094 2.32639C0.935155 1.54918 1.57266 0.918998 2.35445 0.525931C2.74517 0.331007 3.1626 0.195014 3.59316 0.122379C4.02298 0.0459666 4.46175 0.0208936 4.89635 0.00895418Z" fill="white"/>
</mask>
<g mask="url(#mask0_23340_7969)">
<path d="M0 0H19.7V19.7H0V0Z" fill="#19AA1E"/>
<path fill-rule="evenodd" clip-rule="evenodd" d="M0 0H19.7V6.4634L0 3.38571V0Z" fill="#FFB919"/>
<path fill-rule="evenodd" clip-rule="evenodd" d="M0 17.5445L19.7 14.4668V19.6994H0V17.5445Z" fill="#82D714"/>
<path fill-rule="evenodd" clip-rule="evenodd" d="M0 2.99609L6.87647 4.07054C7.73244 3.52854 8.75078 3.23128 9.8497 3.23128C11.3718 3.23128 12.74 3.80133 13.7356 4.80176C13.861 4.92831 13.9792 5.06023 14.0908 5.19752L19.7 6.07379V6.85276L14.6602 6.06484C15.0374 6.78592 15.235 7.58739 15.2363 8.40117C15.2363 9.45651 15.0005 10.5089 14.5122 11.5654L14.4979 11.5976L14.2902 12.0418H13.8007C12.7883 12.0418 12.1174 12.3444 11.6781 12.881C11.3336 13.3018 11.1343 13.8701 11.0674 14.4897L11.065 14.5088L11.0555 14.6079L11.0513 14.6509L11.0429 14.735C11.0173 15.012 11.0006 15.2466 10.9916 15.4376L19.7 14.0766V14.8556L0 17.9339V17.1549L8.71795 15.7928L8.71437 15.6179L8.71318 15.5689L8.71198 15.5433L8.71079 15.5045C8.70303 15.2926 8.68333 15.021 8.65229 14.6915L8.64632 14.6288L8.63558 14.5207C8.5735 13.8976 8.37711 13.3227 8.03269 12.8953C7.59873 12.3551 6.93437 12.0477 5.92976 12.0418H5.40925L5.20212 11.5976C4.70429 10.5304 4.46314 9.46726 4.46314 8.40117C4.46314 7.06049 5.00693 5.76399 5.96438 4.80176L6.04795 4.71999L0 3.77447V2.99609Z" fill="white"/>
<path fill-rule="evenodd" clip-rule="evenodd" d="M9.84956 4.00098C12.6001 4.00098 14.4667 6.11764 14.4667 8.40144C14.4667 9.3183 14.2667 10.2722 13.7999 11.2726C11.0941 11.2726 10.4262 13.2102 10.2996 14.4303L10.2913 14.5109C10.2489 14.9466 10.2238 15.2958 10.2173 15.5585L9.48425 15.6731V15.6492C9.47405 15.2613 9.44776 14.8739 9.40546 14.4882L9.40367 14.4667C9.28667 13.2496 8.63305 11.2726 5.89977 11.2726C5.43239 10.2722 5.23242 9.3183 5.23242 8.40144C5.23242 6.11764 7.09957 4.00098 9.84956 4.00098Z" fill="#0073FA"/>
</g>
</svg>
