<svg width="130" height="40" viewBox="0 0 130 40" fill="none" xmlns="http://www.w3.org/2000/svg">
<rect x="0.5" y="0.5" width="129" height="39" rx="5.5" stroke="white"/>
<path fill-rule="evenodd" clip-rule="evenodd" d="M70.252 13.6167C71.8008 13.6167 73.0564 12.3594 73.0564 10.8084C73.0564 9.25735 71.8008 8 70.252 8C68.7032 8 67.4476 9.25735 67.4476 10.8084C67.4476 12.3594 68.7032 13.6167 70.252 13.6167ZM70.252 12.7586C71.3276 12.7586 72.1995 11.8855 72.1995 10.8084C72.1995 9.73127 71.3276 8.85811 70.252 8.85811C69.1764 8.85811 68.3045 9.73127 68.3045 10.8084C68.3045 11.8855 69.1764 12.7586 70.252 12.7586ZM51.2446 8.85811H53.5037V8.23403H50.3877V8.31204V8.85811V10.4963V11.1204V12.8366V13.4607H51.2446H53.5037V12.8366H51.2446V11.1204H53.27V10.4963H51.2446V8.85811ZM55.6849 8.23403H54.3606V8.85811H55.6849V13.4607H56.5418V8.85811H57.866V8.23403H56.5418H55.6849ZM63.319 8.23403H61.9947V8.85811H63.319V13.4607H64.1759V8.85811H65.5002V8.23403H64.1759H63.319ZM60.3588 8.23403H61.2157V13.4607H60.3588V8.23403ZM73.9133 8.23403H73.7575V13.4607H74.6144V9.38135L77.1071 13.4607H77.964V8.23403H77.1071V12.0584L74.7702 8.23403H74.6144H73.9133ZM49.7522 10.8317C49.7522 12.3525 48.5517 13.5853 47.0708 13.5853C45.59 13.5853 44.3895 12.3525 44.3895 10.8317C44.3895 9.31086 45.59 8.07801 47.0708 8.07801C47.8233 8.07801 48.5034 8.39636 48.9904 8.90907L48.4738 9.42586C48.1245 9.06684 47.6423 8.84483 47.1097 8.84483C46.0435 8.84483 45.1793 9.73434 45.1793 10.8316C45.1793 11.9289 46.0435 12.8184 47.1097 12.8184C48.0081 12.8184 48.7632 12.1866 48.9785 11.3312H47.177V10.5876L49.0257 10.5876L49.5231 10.5876L49.7418 10.5876C49.7486 10.668 49.7522 10.7494 49.7522 10.8317ZM100.866 17.5953H102.424V28.5167H100.866V17.5953ZM109.757 23.7635L109.757 23.7726V28.5132H108.199V27.7358C107.77 28.0904 107.084 28.4241 106 28.4919C103.518 28.6471 103.516 26.3787 103.516 26.2257C103.516 26.2196 103.516 26.2109 103.516 26.1997C103.51 25.9286 103.472 24.2111 105.369 23.9287C106.767 23.7205 107.746 24.0674 108.199 24.2877V23.9668C108.088 23.5418 107.743 22.7609 106.711 22.7609C105.292 22.7609 104.979 23.529 104.979 23.529L103.681 22.7609C103.681 22.7609 104.407 21.2617 106.586 21.2617C109.296 21.2617 109.757 23.1332 109.757 23.7635ZM108.088 25.3965C108.088 25.3965 105.086 24.5864 104.982 26.2749C104.877 27.9635 107.861 27.1527 108.128 25.9557C108.128 25.5751 108.088 25.3965 108.088 25.3965ZM117 21.5336H115.442L113.459 26.2495L111.461 21.4958H109.903L112.68 28.1023L111.227 31.5591H112.785L117 21.5336ZM85.826 21.2617C88.4381 21.2617 89.1211 24.0487 89.1211 24.0487L84.1937 26.088C84.1937 26.088 84.512 27.216 85.9934 27.2235C87.1535 27.2294 87.8083 26.1938 87.8083 26.1938L89.0585 27.0417C89.0585 27.0417 88.0497 28.6756 85.9836 28.6756C83.4446 28.6756 82.3264 26.4523 82.3264 25.0084C82.3264 23.6173 83.214 21.2617 85.826 21.2617ZM87.2464 23.471C87.2464 23.471 86.6264 22.5264 85.6757 22.7006C83.6645 23.0691 83.9176 24.8316 83.9176 24.8316L87.2464 23.471ZM81.6376 17.5953H79.9894V28.4938H81.6376V17.5953ZM77.3517 21.4986V22.1787C77.3517 22.1787 76.6894 21.2241 75.3113 21.2629C73.5909 21.3113 71.81 22.643 71.81 24.971C71.81 27.299 73.7013 28.6646 75.2929 28.6646C76.7609 28.6646 77.3519 27.7383 77.3519 27.7383V28.4846C77.3519 29.0172 77.1525 30.5734 75.4444 30.5735C73.9445 30.5735 73.5177 29.2287 73.5177 29.2287L72.1184 29.8181C72.1184 29.8181 72.9126 32 75.3717 32C77.8308 32 78.8754 30.1454 78.8754 28.3884V21.5118L77.3517 21.4986ZM75.423 27.2672C76.5341 27.2672 77.4349 26.2479 77.4349 24.9906C77.4349 23.7333 76.5341 22.714 75.423 22.714C74.3119 22.714 73.4112 23.7333 73.4112 24.9906C73.4112 26.2479 74.3119 27.2672 75.423 27.2672ZM71.1256 24.9672C71.1256 27.0137 69.4652 28.6727 67.417 28.6727C65.3689 28.6727 63.7085 27.0137 63.7085 24.9672C63.7085 22.9208 65.3689 21.2617 67.417 21.2617C69.4652 21.2617 71.1256 22.9208 71.1256 24.9672ZM67.3928 27.2196C68.5441 27.2196 69.4774 26.2112 69.4774 24.9672C69.4774 23.7233 68.5441 22.7149 67.3928 22.7149C66.2415 22.7149 65.3083 23.7233 65.3083 24.9672C65.3083 26.2112 66.2415 27.2196 67.3928 27.2196ZM63.102 24.9672C63.102 27.0137 61.4416 28.6727 59.3934 28.6727C57.3453 28.6727 55.6849 27.0137 55.6849 24.9672C55.6849 22.9208 57.3453 21.2617 59.3934 21.2617C61.4416 21.2617 63.102 22.9208 63.102 24.9672ZM59.3692 27.2196C60.5205 27.2196 61.4538 26.2112 61.4538 24.9672C61.4538 23.7233 60.5205 22.7149 59.3692 22.7149C58.2179 22.7149 57.2846 23.7233 57.2846 24.9672C57.2846 26.2112 58.2179 27.2196 59.3692 27.2196ZM55.1916 22.9452C55.1916 26.1153 52.6863 28.6852 49.5958 28.6852C46.5053 28.6852 44 26.1153 44 22.9452C44 19.7751 46.5053 17.2052 49.5958 17.2052C51.1663 17.2052 52.5856 17.8688 53.6019 18.9376L52.5238 20.0148C51.7949 19.2664 50.7885 18.8037 49.6769 18.8037C47.4519 18.8037 45.6483 20.6578 45.6483 22.9451C45.6483 25.2323 47.4519 27.0865 49.6769 27.0865C51.552 27.0865 53.1278 25.7697 53.5771 23.9865H49.8174V22.4365L53.6755 22.4365L54.7136 22.4365L55.17 22.4365C55.1843 22.6041 55.1916 22.7738 55.1916 22.9452ZM94.4737 17H97.5458C97.5458 17 99.9506 17.4363 99.9506 20.3809C99.9506 23.3255 97.5458 23.7618 97.5458 23.7618H94.4737V28H93V17H93.3684H94.4737ZM97.0147 22.2643H94.4737V18.6356H97.0147C97.0147 18.6356 98.3053 18.6356 98.3053 20.45C98.3053 22.2643 97.0147 22.2643 97.0147 22.2643Z" fill="white"/>
<path fill-rule="evenodd" clip-rule="evenodd" d="M32.4584 18.1931C33.8067 18.96 33.8067 20.9032 32.4584 21.6701L17.7732 30.0228C16.4399 30.7812 14.7844 29.8183 14.7844 28.2844L14.7844 11.5791C14.7844 10.0452 16.4399 9.08229 17.7732 9.84063L32.4584 18.1931Z" fill="url(#paint0_linear)"/>
<mask id="mask0" mask-type="alpha" maskUnits="userSpaceOnUse" x="14" y="9" width="20" height="22">
<path fill-rule="evenodd" clip-rule="evenodd" d="M32.4584 18.1931C33.8067 18.96 33.8067 20.9032 32.4584 21.6701L17.7732 30.0228C16.4399 30.7812 14.7844 29.8183 14.7844 28.2844L14.7844 11.5791C14.7844 10.0452 16.4399 9.08229 17.7732 9.84063L32.4584 18.1931Z" fill="white"/>
</mask>
<g mask="url(#mask0)">
<path fill-rule="evenodd" clip-rule="evenodd" d="M14.7693 9.06934L25.5221 19.7567L14.6304 30.8664L14.7693 9.06934Z" fill="url(#paint1_linear)"/>
<path fill-rule="evenodd" clip-rule="evenodd" d="M12.5581 6.86914L25.5208 19.7597L29.3748 16.0831L12.5581 6.86914Z" fill="url(#paint2_linear)"/>
<path fill-rule="evenodd" clip-rule="evenodd" d="M25.5224 19.7578L31.4225 25.7048L13.7966 31.6518L25.5224 19.7578Z" fill="url(#paint3_linear)"/>
</g>
<defs>
<linearGradient id="paint0_linear" x1="33.47" y1="15.9034" x2="26.1989" y2="15.9034" gradientUnits="userSpaceOnUse">
<stop stop-color="#FBDA09"/>
<stop offset="1" stop-color="#FFBC00"/>
</linearGradient>
<linearGradient id="paint1_linear" x1="15.6865" y1="29.3687" x2="23.6701" y2="28.2525" gradientUnits="userSpaceOnUse">
<stop stop-color="#01E2FF"/>
<stop offset="1" stop-color="#01C4FF"/>
</linearGradient>
<linearGradient id="paint2_linear" x1="10.6278" y1="13.5557" x2="18.5378" y2="23.8717" gradientUnits="userSpaceOnUse">
<stop stop-color="#28D781"/>
<stop offset="1" stop-color="#02F076"/>
</linearGradient>
<linearGradient id="paint3_linear" x1="20.4259" y1="18.0023" x2="13.6667" y2="29.4772" gradientUnits="userSpaceOnUse">
<stop stop-color="#F2414E"/>
<stop offset="1" stop-color="#E02554"/>
</linearGradient>
</defs>
</svg>
