<svg width="97" height="20" viewBox="0 0 97 20" fill="none" xmlns="http://www.w3.org/2000/svg">
<path d="M9.83287 7.49863L10.1452 9.85497C11.6961 10.1154 12.2718 10.4157 13.7477 11.1609C15.1693 12.1185 16.1371 12.8374 17.21 14.8962C15.7314 15.5235 14.715 15.6345 12.5114 15.3303L10.9334 16.6646C14.3431 17.7792 16.2432 17.9605 19.5775 16.1094C18.6109 12.8704 17.7657 11.5261 15.8322 9.7928C13.7147 8.18915 11.8184 7.63444 9.83287 7.49863Z" fill="#34A843"/>
<path d="M6.49651 13.0965L8.16279 11.7005C7.67689 10.2048 7.64362 9.43601 7.62228 7.78279C7.81437 6.0795 8.18136 4.83037 9.51116 2.92736C10.7508 3.94861 11.319 4.79861 12.0678 6.89334L13.9804 7.67593C13.3928 4.13713 12.6754 2.36837 9.49278 0.267164C7.06719 2.62138 6.26576 3.99227 5.62239 6.50795C4.96545 8.59335 5.86607 12.1508 6.49651 13.0965Z" fill="#4288F3"/>
<path d="M12.7258 13.6258L11.4958 12.1959C10.383 13.3071 9.17711 14.0842 7.71323 14.8527C6.10797 15.4537 4.71821 15.6565 2.41913 15.334C2.76735 13.766 3.26738 12.8742 4.79497 11.2571L4.62539 9.19756C1.73759 11.3257 0.486314 12.7671 0.0563732 16.5564C3.25444 17.651 4.83968 17.7439 7.37365 17.1768C9.65781 16.5174 11.3608 15.4381 12.7258 13.6258Z" fill="#FBBC08"/>
<path d="M9.7396 16.2043C12.9818 14.313 13.991 12.1723 13.9261 8.59173C11.0455 7.06303 8.64294 7.07904 5.41661 8.83777C5.74192 12.8491 7.01963 14.7738 9.7396 16.2043Z" fill="#EA4338"/>
<path d="M9.86599 13.556C11.5465 12.5746 11.8476 11.8243 11.8139 10.2896C10.2313 9.66658 9.37045 9.63582 7.88109 10.3863C8.03561 12.1059 8.60736 12.94 9.86599 13.556Z" fill="white"/>
<path fill-rule="evenodd" clip-rule="evenodd" d="M49.4973 5.57739C49.4973 4.76348 49.746 4.15304 50.1982 3.70087C50.673 3.2487 51.2834 3.02261 52.1425 3H53.793V3.04522C53.5895 3.13565 53.386 3.42956 53.2278 3.99478C52.0295 4.13043 51.1704 4.78609 51.1704 5.57739V6.02956H53.0243C53.1599 6.02956 53.2278 6.14261 53.2278 6.23304V7.22782C53.2278 7.36348 53.1147 7.4313 53.0243 7.4313H51.2608V13.1965C51.2608 13.3322 51.1478 13.4 51.0573 13.4H49.7008C49.5652 13.4 49.4973 13.287 49.4973 13.1965V7.45391H48.4799C48.3443 7.45391 48.2765 7.34087 48.2765 7.25043V6.25565C48.2765 6.12 48.3895 6.05217 48.4799 6.05217H49.4973V5.57739ZM79.2054 5.80384C77.0802 5.80384 75.3393 7.5221 75.3393 9.66992C75.3393 11.7951 77.0575 13.536 79.2054 13.536C81.3306 13.536 83.0715 11.8177 83.0715 9.66992C83.0941 7.54471 81.3532 5.80384 79.2054 5.80384ZM79.2054 11.8856C77.9845 11.8856 76.9897 10.8908 76.9897 9.66992C76.9897 8.44905 77.9845 7.45427 79.2054 7.45427C80.4262 7.45427 81.421 8.44905 81.421 9.66992C81.4436 10.8908 80.4488 11.8856 79.2054 11.8856ZM66.0471 11.1622C66.0471 11.7309 65.6867 11.8263 65.3689 11.9104C65.1183 11.9767 64.894 12.036 64.894 12.3152C64.894 12.9482 65.414 13.4682 66.0471 13.4682C66.6801 13.4682 67.2001 12.9482 67.2001 12.3152C67.1775 11.6595 66.0471 10.1448 66.0471 11.1622ZM26.2783 5.91797C27.3635 5.91797 28.2 6.16666 28.7652 6.68666C29.353 7.18405 29.647 7.99797 29.7148 9.03797V13.1527C29.7148 13.2884 29.6017 13.3562 29.5113 13.3562H28.2678C28.1322 13.3562 28.0643 13.2432 28.0643 13.1527V12.4519C27.8609 12.7684 27.567 13.0171 27.16 13.198C26.753 13.3788 26.2783 13.4467 25.7357 13.4467C25.193 13.4467 24.7183 13.3788 24.2887 13.1754C23.8817 12.9945 23.5652 12.7232 23.3391 12.4067C23.1357 12.0449 23 11.6832 23 11.2536C23 10.5754 23.2487 10.0554 23.7461 9.6484C24.2435 9.26405 25.0348 9.06058 26.0748 9.06058H27.9739V8.97014C27.9739 8.45014 27.793 8.04318 27.4991 7.77188C27.1826 7.50058 26.7078 7.34232 26.12 7.34232C25.6904 7.34232 25.3061 7.41014 24.8991 7.54579C24.56 7.65884 24.2887 7.77188 24.04 7.95275C23.9496 8.02058 23.8139 7.97536 23.7687 7.88492L23.2713 6.95797C23.2261 6.86753 23.2487 6.75449 23.3165 6.70927C23.6557 6.46058 24.0852 6.30232 24.56 6.14406C25.1026 5.98579 25.6904 5.91797 26.2783 5.91797ZM27.2278 11.9093C27.68 11.638 27.9287 11.1632 27.9287 10.6432V10.2136H26.1652C25.1704 10.2136 24.673 10.5301 24.673 11.1858C24.673 11.5023 24.8087 11.751 25.0574 11.9319C25.3061 12.1127 25.6226 12.2032 26.0748 12.2032C26.5043 12.2032 26.9113 12.1127 27.2278 11.9093ZM37.1755 6.36931C36.6103 6.05279 35.9773 5.89453 35.2538 5.89453C34.7564 5.89453 34.2816 5.96236 33.8747 6.14323C33.4451 6.3241 33.106 6.57279 32.8347 6.91192V6.14323C32.8347 6.05279 32.7668 5.93975 32.6312 5.93975H31.3651C31.2747 5.93975 31.1616 6.00757 31.1616 6.14323V15.7971C31.1616 15.8876 31.2294 16.0006 31.3651 16.0006H32.7216C32.8121 16.0006 32.9251 15.9328 32.9251 15.7971V12.451C33.4903 13.1067 34.3042 13.4458 35.2764 13.4458C35.9999 13.4458 36.6329 13.2876 37.1981 12.971C37.7634 12.6545 38.1929 12.225 38.532 11.6371C38.8712 11.0493 39.0068 10.4163 39.0068 9.67018C39.0068 8.92409 38.8486 8.26844 38.532 7.70323C38.2155 7.1154 37.7634 6.68584 37.1755 6.36931ZM36.6329 11.3432C36.226 11.7728 35.706 11.9763 35.0503 11.9763C34.6207 11.9763 34.2816 11.8858 33.9199 11.705C33.6034 11.5015 33.3321 11.2528 33.1512 10.9137C32.9477 10.5745 32.8573 10.1676 32.8573 9.69279C32.8573 9.21801 32.9477 8.81105 33.1512 8.47192C33.3547 8.13279 33.6034 7.83888 33.9199 7.68062C34.2364 7.47714 34.6207 7.40931 35.0503 7.40931C35.6834 7.40931 36.2034 7.61279 36.6329 8.04236C37.0399 8.47192 37.266 9.01453 37.266 9.7154C37.266 10.371 37.0625 10.9137 36.6329 11.3432ZM56.1217 5.26138V3.2266C56.0991 3.09095 56.0312 3.02312 55.9182 3.02312H54.1999V3.06834C54.7065 3.2963 55.2486 4.15564 55.6274 4.75621C55.9249 5.22779 56.1217 5.53982 56.1217 5.26138ZM54.5619 5.98438H55.9184C56.0314 5.98438 56.0993 6.07481 56.1219 6.18785V13.1739C56.1219 13.3096 56.0088 13.3774 55.9184 13.3774H54.5619C54.4262 13.3774 54.3584 13.2644 54.3584 13.1739V6.18785C54.3584 6.0522 54.4714 5.98438 54.5619 5.98438ZM63.6732 11.9531H59.694L63.741 7.06959V6.16524C63.741 6.07481 63.6732 5.98438 63.5601 5.98438H57.7723C57.6819 5.98438 57.5914 6.0522 57.5914 6.16524V7.16003C57.5914 7.25046 57.6592 7.3409 57.7723 7.3409H61.5479L57.501 12.247V13.1513C57.501 13.2418 57.5688 13.3322 57.6819 13.3322H63.6732C63.7636 13.3322 63.854 13.2644 63.854 13.1513V12.1565C63.854 12.0661 63.7636 11.9531 63.6732 11.9531ZM72.5357 7.61279C72.2192 7.43192 71.8801 7.3641 71.4957 7.3641C70.8627 7.3641 70.3201 7.56757 69.8905 7.99714C69.4609 8.4267 69.2575 8.96931 69.2575 9.67018C69.2575 10.371 69.4609 10.9137 69.8905 11.3432C70.2975 11.7728 70.8401 11.9763 71.4957 11.9763C71.8575 11.9763 72.2192 11.9084 72.5357 11.7276C72.807 11.5693 73.0331 11.3658 73.2366 11.0945C73.2818 11.0267 73.4175 11.0041 73.4853 11.0493L74.4801 11.6371C74.5705 11.6824 74.5931 11.7954 74.5479 11.8858C74.2766 12.338 73.8923 12.7224 73.3949 12.9937C72.8522 13.2876 72.2192 13.4458 71.4957 13.4458C70.727 13.4458 70.0262 13.2876 69.4383 12.971C68.8279 12.6319 68.3531 12.1797 68.014 11.6145C67.6975 11.0493 67.5166 10.3937 67.5166 9.67018C67.5166 8.9467 67.6522 8.31366 68.014 7.72583C68.3757 7.13801 68.8505 6.68584 69.4383 6.36931C70.0714 6.05279 70.7496 5.89453 71.5183 5.89453C72.2418 5.89453 72.8749 6.05279 73.4175 6.3467C73.9149 6.5954 74.2992 6.97975 74.5705 7.45453C74.6383 7.52236 74.5931 7.65801 74.5027 7.70323L73.4853 8.29105C73.4175 8.33627 73.2818 8.31366 73.2366 8.24583C73.0331 7.95192 72.807 7.77105 72.5357 7.61279ZM96.0939 6.70927C95.5513 6.16666 94.8278 5.91797 93.9009 5.91797C93.3356 5.91797 92.793 6.0084 92.2956 6.23449C91.8209 6.46058 91.4139 6.75449 91.12 7.13884C90.8713 6.73188 90.5548 6.43797 90.1026 6.21188C89.673 6.0084 89.1757 5.91797 88.633 5.91797C88.1357 5.91797 87.6609 6.0084 87.2539 6.16666C86.8243 6.34753 86.5078 6.59623 86.2365 6.91275V6.16666C86.2365 6.07623 86.1687 5.96319 86.033 5.96319H84.767C84.6765 5.96319 84.5635 6.03101 84.5635 6.16666V13.1527C84.5635 13.2432 84.6313 13.3562 84.767 13.3562H86.1235C86.2139 13.3562 86.327 13.2884 86.327 13.1527V9.60318C86.327 8.87971 86.5078 8.3371 86.847 7.95275C87.1861 7.5684 87.6383 7.38753 88.2487 7.38753C88.7687 7.38753 89.1983 7.5684 89.4696 7.88492C89.7409 8.20145 89.8991 8.69884 89.8991 9.33188V13.1527C89.8991 13.2432 89.9669 13.3562 90.1026 13.3562H91.4591C91.5496 13.3562 91.6626 13.2884 91.6626 13.1527V9.60318C91.6626 8.90231 91.8435 8.35971 92.1826 7.97536C92.5217 7.59101 92.9965 7.41014 93.5843 7.41014C94.1043 7.41014 94.5339 7.59101 94.8052 7.90753C95.0765 8.22405 95.2348 8.72145 95.2348 9.35449V13.1754C95.2348 13.2658 95.3026 13.3788 95.4383 13.3788H96.7948C96.8852 13.3788 96.9983 13.311 96.9983 13.1754V9.1284C96.8852 8.06579 96.6365 7.25188 96.0939 6.70927ZM39.9791 9.66992C39.9791 7.5221 41.72 5.80384 43.8452 5.80384C45.993 5.80384 47.7113 7.54471 47.7113 9.66992C47.7113 11.8177 45.9704 13.536 43.8452 13.536C41.6974 13.536 39.9791 11.7951 39.9791 9.66992ZM41.6296 9.66992C41.6296 10.8908 42.6243 11.8856 43.8452 11.8856C45.0661 11.8856 46.0609 10.8908 46.0609 9.66992C46.0609 8.44905 45.0661 7.45427 43.8452 7.45427C42.6243 7.45427 41.6296 8.44905 41.6296 9.66992Z" fill="#282E3A"/>
</svg>
