<svg width="130" height="40" viewBox="0 0 130 40" fill="none" xmlns="http://www.w3.org/2000/svg">
<rect x="0.5" y="0.5" width="129" height="39" rx="5.5" stroke="white"/>
<path fill-rule="evenodd" clip-rule="evenodd" d="M54.4567 29.1341H52.5169L51.4411 26.0247H46.9585L45.8745 29.1341H44L48.2462 17.4189H50.2104L54.4567 29.1341ZM49.2732 19.546H49.1346L47.4231 24.4984H50.9766L49.2732 19.546ZM56.8126 21.7543C57.3505 20.7476 58.3937 20.1468 59.5999 20.1468C61.8575 20.1468 63.2838 21.9004 63.2838 24.7095C63.2838 27.5185 61.8575 29.2803 59.6162 29.2803C58.353 29.2803 57.3505 28.7282 56.8859 27.7945H56.7474V32H54.9951V20.2929H56.6822V21.7543H56.8126ZM56.7148 24.7176C56.7148 26.5605 57.6357 27.7134 59.1028 27.7134C60.5943 27.7134 61.4826 26.5849 61.4826 24.7095C61.4826 22.8422 60.5943 21.7137 59.1109 21.7137C57.6357 21.7137 56.7148 22.8665 56.7148 24.7176ZM65.9005 21.7543C66.4384 20.7476 67.4817 20.1468 68.6879 20.1468C70.9455 20.1468 72.3718 21.9004 72.3718 24.7095C72.3718 27.5185 70.9455 29.2803 68.7042 29.2803C67.4409 29.2803 66.4384 28.7282 65.9739 27.7945H65.8353V32H64.083V20.2929H65.7701V21.7543H65.9005ZM65.8027 24.7176C65.8027 26.5605 66.7237 27.7134 68.1907 27.7134C69.6822 27.7134 70.5706 26.5849 70.5706 24.7095C70.5706 22.8422 69.6822 21.7137 68.1989 21.7137C66.7237 21.7137 65.8027 22.8665 65.8027 24.7176ZM80.5718 29.4183C77.9638 29.4183 76.2115 28.0787 76.0811 25.9841H77.8904C78.0453 27.0963 79.1374 27.8027 80.7104 27.8027C82.1774 27.8027 83.2533 27.0476 83.2533 26.0084C83.2533 25.1154 82.5686 24.5796 81.0119 24.2142L79.496 23.8489C77.3688 23.3537 76.3989 22.3307 76.3989 20.6096C76.3989 18.5231 78.1105 17.1348 80.6778 17.1348C83.0658 17.1348 84.8099 18.5231 84.9159 20.4959H83.1391C82.968 19.4161 82.0226 18.7423 80.6533 18.7423C79.2108 18.7423 78.249 19.4324 78.249 20.4878C78.249 21.324 78.8685 21.803 80.4007 22.1602L81.6966 22.4768C84.109 23.037 85.1033 24.0113 85.1033 25.773C85.1033 28.0138 83.3592 29.4183 80.5718 29.4183ZM86.6116 20.3335V18.1496H88.3639V20.3335H90.3526V21.803H88.3639V26.3494C88.3639 27.275 88.747 27.6809 89.619 27.6809C89.8667 27.6809 90.0038 27.6671 90.2149 27.6459C90.233 27.6441 90.2517 27.6422 90.271 27.6403V29.0935C89.9939 29.1422 89.6761 29.1828 89.3338 29.1828C87.3859 29.1828 86.6116 28.5009 86.6116 26.796V21.803H85.1527V20.3335H86.6116ZM92.3172 24.7095C92.3172 26.6417 93.173 27.754 94.6971 27.754C96.213 27.754 97.077 26.6336 97.077 24.7095C97.077 22.7935 96.213 21.6731 94.6971 21.6731C93.173 21.6731 92.3172 22.7935 92.3172 24.7095ZM98.8781 24.7095C98.8781 27.5753 97.2888 29.3046 94.6971 29.3046C92.0972 29.3046 90.5079 27.5753 90.5079 24.7095C90.5079 21.8598 92.1053 20.1224 94.6971 20.1224C97.2807 20.1224 98.8781 21.8598 98.8781 24.7095ZM101.43 29.1341H99.6774V20.2929H101.364V21.6487H101.495C101.747 20.78 102.726 20.1468 103.883 20.1468C104.135 20.1468 104.47 20.1711 104.657 20.2199V21.941C104.519 21.8923 103.981 21.8355 103.687 21.8355C102.367 21.8355 101.43 22.6717 101.43 23.9138V29.1341ZM110.787 23.8976C110.746 22.5093 109.898 21.6081 108.602 21.6081C107.306 21.6081 106.402 22.5174 106.304 23.8976H110.787ZM108.667 27.8189C109.727 27.8189 110.452 27.4373 110.778 26.7472H112.465C112.066 28.3304 110.648 29.3046 108.619 29.3046C106.076 29.3046 104.519 27.5672 104.519 24.7419C104.519 21.9167 106.108 20.1224 108.61 20.1224C111.08 20.1224 112.571 21.803 112.571 24.5796V25.1885H106.304V25.2859C106.361 26.8365 107.266 27.8189 108.667 27.8189ZM45.6421 13.8531V8.27449H47.6642C49.3252 8.27449 50.2994 9.29125 50.2994 11.0464C50.2994 12.8287 49.333 13.8531 47.6642 13.8531H45.6421ZM47.5671 9.06315H46.5115V13.0645H47.5671C48.7392 13.0645 49.4145 12.3377 49.4145 11.058C49.4145 9.7977 48.7276 9.06315 47.5671 9.06315ZM52.2252 11.7462C52.2252 12.6663 52.6327 13.1959 53.3584 13.1959C54.0803 13.1959 54.4917 12.6624 54.4917 11.7462C54.4917 10.8338 54.0803 10.3003 53.3584 10.3003C52.6327 10.3003 52.2252 10.8338 52.2252 11.7462ZM55.3494 11.7462C55.3494 13.1109 54.5926 13.9343 53.3584 13.9343C52.1204 13.9343 51.3636 13.1109 51.3636 11.7462C51.3636 10.3892 52.1243 9.56187 53.3584 9.56187C54.5887 9.56187 55.3494 10.3892 55.3494 11.7462ZM61.0553 9.64306H61.8897L60.7293 13.8531H59.8638L58.9906 10.7526H58.9246L58.0553 13.8531H57.1975L56.0332 9.64306H56.8793L57.6361 12.8557H57.6982L58.5676 9.64306H59.367L60.2364 12.8557H60.3024L61.0553 9.64306ZM63.7844 13.8531H62.95V9.64306H63.7534V10.3119H63.8155C64.0212 9.84409 64.5141 9.56187 65.1506 9.56187C66.0937 9.56187 66.6254 10.1263 66.6254 11.1276V13.8531H65.7909V11.3364C65.7909 10.6598 65.4882 10.3235 64.8673 10.3235C64.1958 10.3235 63.7844 10.7333 63.7844 11.3905V13.8531ZM68.8694 13.8531H68.035V8H68.8694V13.8531ZM70.9698 11.7462C70.9698 12.6663 71.3773 13.1959 72.1031 13.1959C72.8249 13.1959 73.2363 12.6624 73.2363 11.7462C73.2363 10.8338 72.8249 10.3003 72.1031 10.3003C71.3773 10.3003 70.9698 10.8338 70.9698 11.7462ZM74.094 11.7462C74.094 13.1109 73.3372 13.9343 72.1031 13.9343C70.865 13.9343 70.1082 13.1109 70.1082 11.7462C70.1082 10.3892 70.8689 9.56187 72.1031 9.56187C73.3333 9.56187 74.094 10.3892 74.094 11.7462ZM75.8917 12.6238C75.8917 13.0026 76.2216 13.223 76.6757 13.223C77.3044 13.223 77.7701 12.8248 77.7701 12.3029V11.9511L76.7378 12.0168C76.1556 12.0555 75.8917 12.2526 75.8917 12.6238ZM77.7313 13.2616C77.4791 13.683 77.0172 13.9227 76.4622 13.9227C75.6472 13.9227 75.0534 13.4318 75.0534 12.6624C75.0534 11.9047 75.6201 11.4678 76.6252 11.406L77.7701 11.3402V10.9768C77.7701 10.5322 77.4752 10.281 76.9047 10.281C76.439 10.281 76.1168 10.4511 76.0237 10.7487H75.2164C75.3018 10.0258 75.9849 9.56187 76.9435 9.56187C78.003 9.56187 78.6007 10.0876 78.6007 10.9768V13.8531H77.7973V13.2616H77.7313ZM82.859 13.1882C82.6067 13.6483 82.1138 13.9227 81.5317 13.9227C80.4566 13.9227 79.7774 13.0799 79.7774 11.7462C79.7774 10.4163 80.4644 9.57347 81.5317 9.57347C82.1099 9.57347 82.5989 9.84796 82.8279 10.3119H82.89V8H83.7244V13.8531H82.9249V13.1882H82.859ZM82.9055 11.75C82.9055 10.8725 82.467 10.3196 81.7684 10.3196C81.0659 10.3196 80.639 10.8609 80.639 11.7462C80.639 12.6392 81.062 13.1766 81.7684 13.1766C82.4709 13.1766 82.9055 12.6315 82.9055 11.75ZM88.1969 11.7462C88.1969 12.6663 88.6045 13.1959 89.3302 13.1959C90.0521 13.1959 90.4635 12.6624 90.4635 11.7462C90.4635 10.8338 90.0521 10.3003 89.3302 10.3003C88.6045 10.3003 88.1969 10.8338 88.1969 11.7462ZM91.3212 11.7462C91.3212 13.1109 90.5644 13.9343 89.3302 13.9343C88.0922 13.9343 87.3354 13.1109 87.3354 11.7462C87.3354 10.3892 88.096 9.56187 89.3302 9.56187C90.5605 9.56187 91.3212 10.3892 91.3212 11.7462ZM93.3556 13.8531H92.5212V9.64306H93.3246V10.3119H93.3867C93.5924 9.84409 94.0853 9.56187 94.7217 9.56187C95.6648 9.56187 96.1965 10.1263 96.1965 11.1276V13.8531H95.3621V11.3364C95.3621 10.6598 95.0594 10.3235 94.4384 10.3235C93.767 10.3235 93.3556 10.7333 93.3556 11.3905V13.8531ZM100.234 9.66239V8.62243H101.069V9.66239H102.016V10.3621H101.069V12.5271C101.069 12.9678 101.251 13.1611 101.666 13.1611C101.784 13.1611 101.85 13.1546 101.95 13.1445L101.977 13.1418V13.8338C101.845 13.857 101.694 13.8763 101.531 13.8763C100.603 13.8763 100.234 13.5516 100.234 12.7397V10.3621H99.5397V9.66239H100.234ZM104.039 13.8531H103.204V8H104.031V10.3196H104.097C104.302 9.84796 104.791 9.56574 105.428 9.56574C106.379 9.56574 106.922 10.134 106.922 11.1353V13.8531H106.088V11.3402C106.088 10.6676 105.773 10.3273 105.145 10.3273C104.462 10.3273 104.039 10.7565 104.039 11.3944V13.8531ZM111.072 11.3596C111.052 10.6985 110.649 10.2694 110.032 10.2694C109.415 10.2694 108.984 10.7023 108.937 11.3596H111.072ZM110.063 13.2269C110.567 13.2269 110.913 13.0452 111.068 12.7165H111.871C111.681 13.4704 111.006 13.9343 110.039 13.9343C108.829 13.9343 108.087 13.107 108.087 11.7616C108.087 10.4163 108.844 9.56187 110.036 9.56187C111.212 9.56187 111.922 10.3621 111.922 11.6843V11.9743H108.937V12.0207C108.964 12.7591 109.395 13.2269 110.063 13.2269ZM28.1903 12.5262C28.944 11.5836 29.4597 10.3013 29.3166 9C28.2257 9.04829 26.8614 9.75456 26.0758 10.6764C25.3808 11.4888 24.7599 12.8202 24.9203 14.0724C26.1457 14.1638 27.4039 13.4541 28.1903 12.5262ZM30.9499 20.6996C30.925 17.941 33.1913 16.5883 33.3281 16.5067L33.3308 16.5051C32.0278 14.6053 30.0082 14.3457 29.2984 14.325C28.2607 14.2158 27.242 14.6201 26.4096 14.9505C25.8814 15.1602 25.4282 15.34 25.0927 15.34C24.7108 15.34 24.2446 15.1527 23.722 14.9427C23.0388 14.6682 22.2594 14.355 21.4467 14.3716C19.6013 14.4001 17.8748 15.4685 16.928 17.1277C14.9739 20.5107 16.4313 25.4822 18.3034 28.2167C19.2399 29.5568 20.3343 31.0513 21.7666 30.9986C22.4167 30.9722 22.8779 30.7781 23.3543 30.5775C23.9049 30.3457 24.4759 30.1053 25.3825 30.1053C26.2377 30.1053 26.7844 30.338 27.3091 30.5613C27.8123 30.7755 28.2952 30.981 29.0104 30.9642C30.5144 30.9417 31.4612 29.6197 32.365 28.2676C33.4472 26.7343 33.8819 25.2209 33.8991 25.1433C33.8646 25.1321 30.9792 24.0308 30.9499 20.6996Z" fill="white"/>
</svg>
