<svg width="343" height="343" viewBox="0 0 343 343" fill="none" xmlns="http://www.w3.org/2000/svg">
<path d="M225.427 36.5223C240.719 53.6895 247.619 76.8278 262.352 97.1672C276.898 117.507 299.277 135.234 310.28 159.118C321.47 183.19 321.283 213.605 304.499 230.213C287.528 246.634 253.96 249.246 227.478 263.428C201.183 277.609 182.161 303.36 157.171 313.809C132.181 324.072 101.037 319.221 86.3039 298.322C71.5711 277.422 73.2495 240.476 63.3655 213.605C53.4814 186.735 31.8484 169.754 26.4401 149.602C21.0319 129.449 31.6619 106.124 44.9028 85.0382C58.1437 63.9525 74.182 45.1059 94.3231 30.7377C114.464 16.1829 138.708 6.29315 162.765 7.03955C186.636 7.78594 210.134 19.1685 225.427 36.5223Z" fill="#F5F5F5"/>
<path d="M170 319C242.902 319 302 315.418 302 311C302 306.582 242.902 303 170 303C97.0984 303 38 306.582 38 311C38 315.418 97.0984 319 170 319Z" fill="#E6E8EB"/>
<path d="M82.1307 102.746L77.9464 116.415L76.719 119.595C76.719 119.595 78.5043 121.882 82.7444 122.775C85.6455 123.389 87.5982 123.444 88.8814 123.333C89.9414 123.221 91.2246 122.998 90.5551 121.045C89.6067 118.144 89.9414 116.303 89.9414 116.303L91.4478 108.102L82.1307 102.746Z" fill="#EA9D7D"/>
<path d="M81.4609 110.11C82.8217 112.03 84.6193 113.598 86.7053 114.685C88.658 115.634 90.0527 115.857 90.0527 115.857L91.2801 109.05L82.0746 102.746L81.5725 103.695L81.182 105.257C81.182 105.257 80.1778 108.158 81.4609 110.11Z" fill="url(#paint0_linear_18706_3980)"/>
<path d="M95.6876 89.3561C95.6876 89.3561 97.3056 91.9783 97.5845 93.2057C97.808 94.0997 97.9204 95.0179 97.9193 95.9395C97.9193 98.2827 97.7519 101.574 97.4729 103.415C96.915 106.595 95.4087 108.492 93.6234 109.05C91.8381 109.608 88.6022 108.437 86.4264 107.321C84.5853 106.372 83.5252 105.368 83.2463 104.196C82.9673 102.969 82.4094 101.407 82.4094 101.407L82.521 97.7805L86.8169 88.6309L95.6876 89.3561Z" fill="#EA9D7D"/>
<path d="M84.5854 99.4544C84.5854 99.4544 87.8213 95.828 89.8856 95.047C93.8467 93.429 97.6963 93.5964 97.6963 93.5964L97.0826 91.6437L87.2076 91.1416L83.3022 97.167L84.5854 99.4544Z" fill="url(#paint1_linear_18706_3980)"/>
<path d="M81.182 103.973C82.8151 103.973 84.1389 102.55 84.1389 100.793C84.1389 99.037 82.8151 97.6133 81.182 97.6133C79.549 97.6133 78.2251 99.037 78.2251 100.793C78.2251 102.55 79.549 103.973 81.182 103.973Z" fill="#EA9D7D"/>
<path d="M77.0535 119.706H76.9977C76.8861 119.65 76.8303 119.538 76.8303 119.427L79.4525 111.393C79.9546 109.719 81.461 104.084 81.461 104.084C81.5168 103.973 81.6283 103.917 81.7399 103.917C81.8515 103.973 81.9073 104.084 81.9073 104.196L79.8988 111.505C79.4525 113.011 77.2767 119.483 77.2767 119.483C77.2209 119.65 77.1651 119.706 77.0535 119.706Z" fill="#CF7653"/>
<path d="M81.1822 104.196C79.3969 104.196 77.9463 102.634 77.9463 100.793C77.9463 98.9518 79.3969 97.3896 81.1822 97.3896C82.9675 97.3896 84.418 98.9518 84.418 100.793C84.418 102.634 82.9675 104.196 81.1822 104.196ZM81.1822 97.836C79.6758 97.836 78.4484 99.175 78.4484 100.793C78.4484 102.411 79.6758 103.75 81.1822 103.75C82.6885 103.75 83.9159 102.411 83.9159 100.793C83.9159 99.175 82.6885 97.836 81.1822 97.836Z" fill="#B76349"/>
<path d="M81.3495 102.188C82.089 102.188 82.6885 101.564 82.6885 100.793C82.6885 100.023 82.089 99.3984 81.3495 99.3984C80.61 99.3984 80.0105 100.023 80.0105 100.793C80.0105 101.564 80.61 102.188 81.3495 102.188Z" fill="url(#paint2_linear_18706_3980)"/>
<path d="M84.4181 98.7842L83.4696 99.621L83.0791 102.745L83.2465 103.638C83.2465 103.638 84.5855 102.913 84.697 101.462C84.8086 100.067 84.4181 98.7842 84.4181 98.7842Z" fill="#EA9D7D"/>
<path d="M91.7824 109.273C91.1687 109.273 90.6666 109.161 89.5508 108.882C87.4903 108.277 85.5865 107.23 83.9717 105.814C82.7443 104.586 82.8559 103.415 82.8559 103.359C82.8559 103.247 82.8559 103.08 82.9675 103.08C83.0791 103.08 83.1349 103.192 83.1907 103.303C83.2465 103.526 83.2464 104.475 84.2507 105.479C85.8035 106.837 87.63 107.846 89.6066 108.436C91.3361 108.827 91.6709 108.938 92.954 108.827C94.1814 108.715 94.9067 108.213 94.9067 108.213C95.0741 108.101 95.2415 108.045 95.1299 108.213C95.0183 108.324 94.1257 109.05 93.0098 109.217C92.4519 109.273 92.1172 109.273 91.7824 109.273Z" fill="#B76349"/>
<path d="M88.8813 96.8876C88.8255 96.8876 88.7139 96.8876 88.6582 96.8318C88.4908 96.7202 88.435 96.4413 88.5466 96.2739C88.6024 96.2181 89.495 94.8791 91.5035 95.0465C91.7267 95.0465 91.894 95.2697 91.894 95.4928C91.894 95.716 91.6709 95.8834 91.4477 95.8834C89.9413 95.7718 89.2719 96.7202 89.2719 96.776C89.1045 96.8318 88.9929 96.8876 88.8813 96.8876ZM97.1384 95.716C97.0826 95.716 96.971 95.716 96.9152 95.6602C96.4689 95.3255 95.7994 95.5486 95.7436 95.5486C95.5204 95.6044 95.2973 95.4928 95.2415 95.2697C95.1857 95.0465 95.2973 94.8234 95.5204 94.7676C95.5762 94.7676 96.5805 94.4328 97.3615 94.9907C97.5289 95.1023 97.5847 95.3813 97.4731 95.5486C97.4173 95.6602 97.2499 95.716 97.1384 95.716Z" fill="#B4603F"/>
<path d="M90.9456 99.5661C91.377 99.5661 91.7267 99.2164 91.7267 98.785C91.7267 98.3536 91.377 98.0039 90.9456 98.0039C90.5142 98.0039 90.1646 98.3536 90.1646 98.785C90.1646 99.2164 90.5142 99.5661 90.9456 99.5661Z" fill="#4F2B23"/>
<path d="M96.692 99.1198C97.1233 99.1198 97.473 98.7701 97.473 98.3387C97.473 97.9073 97.1233 97.5576 96.692 97.5576C96.2606 97.5576 95.9109 97.9073 95.9109 98.3387C95.9109 98.7701 96.2606 99.1198 96.692 99.1198Z" fill="#4F2B23"/>
<path d="M94.1257 103.527C93.9583 103.527 93.791 103.415 93.7352 103.192C93.6794 102.969 93.8468 102.746 94.0699 102.746C94.0699 102.746 94.6836 102.634 94.7394 102.132C94.7952 101.63 94.2931 100.235 94.0141 99.5098C93.9026 99.2866 94.0141 99.0634 94.2373 99.0076C94.4605 98.8961 94.6836 99.0076 94.7394 99.2308C94.851 99.454 95.5763 101.351 95.5205 102.244C95.4647 103.08 94.6836 103.527 94.2373 103.582C94.1815 103.527 94.1257 103.527 94.1257 103.527Z" fill="#B4603F"/>
<path d="M87.4308 92.1455C87.4308 92.1455 87.3192 94.1539 86.2034 95.9392C85.0876 97.7245 84.9202 97.7245 85.0318 98.3382C85.1433 98.9519 86.8171 102.299 90.6666 103.694C93.5678 104.754 96.0783 104.252 97.3057 103.694C97.3057 103.694 97.4173 103.136 97.4731 102.801C97.4731 102.801 97.9752 103.025 97.9752 103.75C98.031 104.643 97.9194 106.149 97.8079 107.097C97.7516 108.04 97.3406 108.926 96.6575 109.578C95.9744 110.23 95.0699 110.6 94.1257 110.612C92.3404 110.78 89.2161 109.999 86.315 108.325C84.8644 107.488 83.358 105.479 83.1907 104.698C82.8559 102.969 83.358 99.2867 83.358 99.2867C83.358 99.2867 83.1349 97.334 80.6801 97.5014C78.8948 97.6129 78.2253 99.3983 78.2253 99.3983C78.2253 99.3983 76.9979 94.5445 76.6074 93.4286C75.9937 91.5318 76.9979 90.4159 77.8906 89.6907C78.7832 89.0212 79.6759 89.077 79.6759 89.077C79.6759 89.077 79.2853 86.2874 82.3538 84.8369C83.8602 84.1116 85.0876 84.279 86.315 84.2232C87.5424 84.1674 88.714 84 89.7182 84C92.173 84.1116 92.8983 85.5063 92.8983 85.5063C92.8983 85.5063 97.6963 83.4421 99.649 86.0085C101.602 88.5191 99.4258 91.5318 96.692 92.3128C94.7952 92.9265 91.8382 93.1497 87.4308 92.1455Z" fill="#B23031"/>
<path d="M92.0054 106.372C91.2739 106.365 90.564 106.123 89.9812 105.681C89.3983 105.239 88.9734 104.62 88.7696 103.918C88.7138 103.695 88.8254 103.471 89.0485 103.416C89.2717 103.36 89.4949 103.471 89.5507 103.695C89.7069 104.225 90.0303 104.691 90.4726 105.022C90.9149 105.354 91.4525 105.534 92.0054 105.536C92.2286 105.536 92.396 105.759 92.396 105.926C92.396 106.205 92.2286 106.372 92.0054 106.372Z" fill="#EA9D7D"/>
<path d="M93.9581 230.339C93.9581 230.339 91.8938 243.561 94.6276 255.445L100.597 282.113L103.331 296.172L111.142 300.579L120.626 295.503C120.626 295.503 118.06 292.267 117.837 289.142L114.991 238.652L115.326 227.326L93.9581 230.339Z" fill="#EB9C79"/>
<path d="M102.941 231.231L105.34 259.406C106.065 270.676 110.138 298.236 110.138 298.236L119.343 293.885C119.343 293.885 117.502 291.988 117.335 283.842C117.167 275.641 115.159 246.741 115.047 242.445C114.936 238.15 115.047 231.455 115.047 231.455L102.941 231.231Z" fill="url(#paint3_linear_18706_3980)"/>
<path d="M101.322 241.72C107.683 241.274 115.103 242.501 115.103 242.501C115.103 242.501 114.935 238.819 114.991 236.476L115.326 227.382L93.5117 231.734C93.5117 231.734 93.3444 234.69 93.3444 236.141L93.2886 243.896C93.2886 243.896 96.7476 242.055 101.322 241.72Z" fill="url(#paint4_linear_18706_3980)"/>
<path d="M102.829 296.953L102.383 291.151L117.893 289.645L118.283 291.039C118.562 292.044 119.511 293.327 119.511 293.327C119.511 293.327 115.215 299.631 111.309 299.52C107.404 299.408 103.275 298.906 102.829 296.953Z" fill="white"/>
<path d="M102.662 307.777L137.252 308C137.866 308 138.312 307.498 138.368 306.94C138.368 305.601 138.2 303.37 137.419 301.752C136.415 299.743 123.248 294.22 119.455 292.658C118.897 292.435 118.227 292.602 117.837 293.049C116.721 294.443 113.987 297.065 109.58 297.344C105.953 297.568 103.889 296.787 102.941 296.229C102.55 296.005 102.048 296.173 101.936 296.619C101.434 298.07 100.709 301.417 101.49 306.773C101.546 307.331 102.048 307.777 102.662 307.777Z" fill="url(#paint5_linear_18706_3980)"/>
<path d="M102.662 307.777L137.252 308C137.866 308 138.312 307.498 138.368 306.94L138.312 305.49L101.323 304.876L101.546 306.773C101.546 307.331 102.048 307.777 102.662 307.777Z" fill="#FFD570"/>
<path d="M108.854 304.875C108.854 304.875 108.743 302.978 106.4 300.914C104.28 299.017 101.825 298.905 101.378 298.905L101.49 298.068C101.602 298.068 104.558 298.292 106.846 300.356C109.412 302.643 109.58 304.763 109.524 304.819L108.854 304.875Z" fill="white"/>
<path d="M117.614 298.906C117.502 298.906 117.446 298.85 117.335 298.794C117.111 298.627 117 298.292 117.167 298.013L120.57 293.104C120.905 293.271 121.296 293.327 121.63 293.55L118.116 298.627C118.004 298.85 117.781 298.906 117.614 298.906ZM121.352 300.356C121.24 300.356 121.184 300.301 121.073 300.245C120.849 300.077 120.738 299.743 120.905 299.464L124.253 294.666L125.313 295.112L121.854 300.077C121.742 300.301 121.519 300.412 121.352 300.356ZM101.267 305.228L101.28 304.447L138.265 305.053L138.252 305.834L101.267 305.228Z" fill="white"/>
<path d="M111.588 196.14C109.66 188.716 108.041 181.215 106.734 173.656H63.3291C63.5523 178.677 64.7797 185.707 68.7408 193.908L90.0529 239.657L116.386 234.747C117.837 234.412 118.785 233.018 118.562 231.567C117.502 224.984 114.601 207.689 111.588 196.14Z" fill="#911229"/>
<path d="M92.1472 208.472L92.6995 208.39L96.2367 232.006L95.6844 232.088L92.1472 208.472Z" fill="#750E29"/>
<path d="M90.6108 239.545L116.386 234.803C117.837 234.468 118.841 233.018 118.506 231.511L117.725 227.438L85.824 233.38L87.8771 238.212C88.435 239.327 89.4392 239.83 90.6108 239.551V239.545Z" fill="url(#paint6_linear_18706_3980)"/>
<path d="M89.2161 231.99L117.703 226.724L117.881 227.488L89.3946 232.749L89.2161 231.99Z" fill="#750E29"/>
<path d="M116.386 234.747C117.837 234.412 118.785 233.018 118.562 231.511C117.446 224.984 114.545 208.135 112.983 201.775C110.863 193.35 106.567 173.935 106.567 173.935L88.9929 173.712L104.503 237.425L116.386 234.747Z" fill="url(#paint7_linear_18706_3980)"/>
<path d="M66.2302 227.661C66.2302 227.661 61.2648 239.991 61.3206 252.265L61.209 279.658L60.7627 293.996L67.346 300.245L77.7231 297.734C77.7231 297.734 75.9378 293.941 76.4399 290.872L84.9201 241.107L87.7654 230.172L66.2302 227.661Z" fill="#EB9C79"/>
<path d="M74.8221 230.785L70.9167 258.792C69.1314 269.895 66.9556 297.734 66.9556 297.734L76.8863 295.837C76.8863 295.837 75.5473 293.55 77.1653 285.572C78.839 277.594 83.3023 248.973 84.1391 244.733C84.976 240.493 86.5381 234.021 86.5381 234.021L74.8221 230.785Z" fill="url(#paint8_linear_18706_3980)"/>
<path d="M70.8609 240.549C77.1653 241.665 84.0833 244.733 84.0833 244.733C84.0833 244.733 84.8086 241.107 85.3665 238.875C85.9244 236.644 87.7097 230.116 87.7097 230.116L65.5608 228.889C65.5608 228.889 64.7239 231.734 64.445 233.129L62.6597 240.605C62.6597 240.605 66.3419 239.712 70.8609 240.549Z" fill="url(#paint9_linear_18706_3980)"/>
<path d="M60.0376 297.01L60.8745 291.096L76.3285 291.263C76.3285 291.263 76.2727 291.709 76.3285 292.714C76.4401 293.774 76.998 295.28 76.998 295.28C76.998 295.28 70.6936 300.859 66.9557 299.799C63.2735 298.739 60.0934 299.018 60.0376 297.01Z" fill="white"/>
<path d="M59.7585 307.777L94.3488 308C94.9625 308 95.4089 307.498 95.4647 306.94C95.4647 305.601 95.2973 303.37 94.5162 301.752C93.512 299.743 80.3454 294.22 76.5516 292.658C75.9937 292.435 75.3242 292.602 74.9337 293.049C73.8178 294.443 71.0841 297.065 66.6766 297.344C63.0502 297.568 60.9859 296.787 60.0375 296.229C59.647 296.005 59.1449 296.173 59.0333 296.619C58.5312 298.07 57.8059 301.417 58.5869 306.773C58.6427 307.331 59.1449 307.777 59.7585 307.777Z" fill="url(#paint10_linear_18706_3980)"/>
<path d="M59.7584 307.777L94.3487 308C94.9624 308 95.4087 307.498 95.4645 306.94L95.4087 305.49L58.4194 304.876L58.6426 306.773C58.6426 307.331 59.1447 307.777 59.7584 307.777Z" fill="#FFD570"/>
<path d="M65.9515 304.875C65.9515 304.875 65.84 302.978 63.4968 300.914C61.3767 299.017 58.9219 298.905 58.4756 298.905L58.5872 298.068C58.6987 298.068 61.6557 298.292 63.9431 300.356C66.5095 302.643 66.6768 304.763 66.621 304.819L65.9515 304.875Z" fill="white"/>
<path d="M74.7105 298.906C74.5989 298.906 74.5431 298.85 74.4315 298.794C74.2083 298.627 74.0968 298.292 74.2641 298.013L77.6674 293.104C78.0021 293.271 78.3927 293.327 78.7274 293.55L75.2126 298.627C75.101 298.85 74.9336 298.906 74.7105 298.906ZM78.4485 300.356C78.3369 300.356 78.2811 300.301 78.1695 300.245C77.9463 300.077 77.8348 299.743 78.0021 299.464L81.3496 294.666L82.4096 295.112L78.9506 300.077C78.839 300.301 78.6158 300.412 78.4485 300.356ZM58.3638 305.229L58.3766 304.447L95.362 305.054L95.3492 305.835L58.3638 305.229Z" fill="white"/>
<path d="M63.608 173.656L59.7026 234.357C59.5911 235.751 60.6511 236.979 62.0459 237.035L89.4949 238.876C90.6107 238.931 91.7266 238.15 91.8939 237.035C92.5634 233.129 94.014 223.868 95.1856 213.993C97.0825 197.535 99.5931 179.737 100.486 173.656H63.608Z" fill="#BD2641"/>
<path d="M64.7336 233.854L68.2518 182.533L69.0312 182.587L65.513 233.908L64.7336 233.854Z" fill="#890320"/>
<path d="M68.2948 190.449C68.2948 190.449 74.5434 189.501 78.895 184.703C83.1909 179.849 82.2425 173.823 82.2425 173.823H69.0759C69.0759 173.768 67.9043 188.887 68.2948 190.449Z" fill="#890320"/>
<path d="M62.1853 237.09L90.1086 238.764C90.9455 238.82 91.6708 238.206 91.7823 237.425L92.6192 232.125L59.8533 230.373L59.5911 234.58C59.5911 235.974 60.8464 237.034 62.1853 237.09Z" fill="url(#paint11_linear_18706_3980)"/>
<path d="M59.9175 230.672L59.9599 229.892L92.7158 231.67L92.6734 232.45L59.9175 230.672Z" fill="#890320"/>
<path d="M89.6066 238.931C90.834 238.987 91.894 238.15 92.0613 236.979L95.6877 211.371L100.486 173.712H84.6412L76.6631 238.039L89.6066 238.931Z" fill="url(#paint12_linear_18706_3980)"/>
<path d="M62.3806 192.625C62.3806 192.625 70.0797 187.939 80.6242 187.492C90.3318 187.102 98.3099 188.385 98.3099 188.385L100.553 173.656H63.396L62.3806 192.625Z" fill="url(#paint13_linear_18706_3980)"/>
<path d="M128.047 127.127L129.33 125.509L131.896 122.217C132.566 121.38 135.411 111.561 135.411 111.561L130.278 110.892L125.648 116.08L124.476 121.157L128.047 127.127Z" fill="#DA7F57"/>
<path d="M131.896 104.866L134.351 104.699C134.909 104.643 135.299 105.257 135.076 105.759L129.107 119.483L124.532 119.316L131.282 105.257C131.338 105.089 131.617 104.922 131.896 104.866Z" fill="#1F2B36"/>
<path d="M117 130.92C117 130.92 122.077 122.886 122.412 121.324C122.746 119.762 122.691 118.702 122.467 117.586C122.244 116.471 123.639 115.02 124.364 114.016C125.09 113.012 128.326 110.947 128.326 110.947C128.326 110.947 129.107 111.226 128.493 113.067C127.879 114.908 126.038 116.303 126.038 116.303C126.038 116.303 125.703 118.367 125.424 119.427L125.145 120.487C125.145 120.487 125.759 120.209 127.489 121.492C129.218 122.775 129.051 125.564 129.051 125.564L124.085 138.675L117 130.92Z" fill="#E89976"/>
<path d="M130.948 109.887C131.227 108.939 132.733 109.162 133.291 109.385C133.905 109.608 135.857 109.943 135.523 111.003C135.188 112.063 134.463 112.286 133.179 112.007C131.84 111.673 130.725 110.668 130.948 109.887Z" fill="#EA9D7D"/>
<path d="M134.072 112.342C133.793 112.342 133.458 112.286 133.123 112.23C132.175 112.007 131.282 111.449 130.892 110.78C130.724 110.445 130.668 110.11 130.724 109.831C130.836 109.552 131.003 109.274 131.282 109.162C131.896 108.827 132.9 108.995 133.402 109.218C133.514 109.274 133.625 109.274 133.793 109.329C134.406 109.497 135.411 109.776 135.69 110.389C135.801 110.613 135.857 110.836 135.745 111.115C135.578 111.728 135.188 112.342 134.072 112.342ZM132.175 109.385C131.948 109.39 131.722 109.428 131.505 109.497C131.338 109.608 131.226 109.72 131.171 109.887C131.115 110.11 131.226 110.334 131.282 110.501C131.617 111.059 132.342 111.561 133.179 111.728C134.406 112.007 134.964 111.784 135.243 110.891C135.299 110.724 135.299 110.613 135.243 110.501C135.02 110.055 134.128 109.831 133.625 109.664C133.458 109.608 133.346 109.552 133.235 109.552C132.956 109.497 132.565 109.385 132.175 109.385Z" fill="#CC7A5E"/>
<path d="M128.828 115.801C128.716 114.797 130.222 114.518 130.836 114.462C131.45 114.462 133.793 114.127 133.905 115.243C133.96 116.359 133.012 116.805 131.673 116.973C130.334 117.196 128.883 116.638 128.828 115.801Z" fill="#EA9D7D"/>
<path d="M131.171 117.251C130.39 117.251 129.609 117.028 129.107 116.637C128.839 116.433 128.659 116.133 128.605 115.801C128.549 115.466 128.66 115.187 128.884 114.964C129.33 114.462 130.334 114.238 130.836 114.238H131.227C131.952 114.183 133.235 114.127 133.849 114.629C134.016 114.796 134.128 115.019 134.128 115.243C134.239 116.916 132.287 117.14 131.673 117.251H131.171ZM132.119 114.685C131.785 114.685 131.506 114.685 131.283 114.741H130.892C130.446 114.741 129.609 114.908 129.274 115.298C129.162 115.466 129.107 115.577 129.107 115.801C129.107 116.024 129.274 116.191 129.441 116.303C129.944 116.693 130.836 116.916 131.673 116.805C133.57 116.582 133.737 115.856 133.737 115.298C133.737 115.187 133.682 115.075 133.57 114.964C133.235 114.741 132.677 114.685 132.119 114.685Z" fill="#CC7A5E"/>
<path d="M128.437 118.312C128.325 117.419 129.664 117.14 130.278 117.14C130.836 117.14 132.621 116.805 132.677 117.865C132.733 118.87 132.231 119.316 131.003 119.483C129.832 119.595 128.549 119.093 128.437 118.312Z" fill="#EA9D7D"/>
<path d="M130.613 119.706C129.888 119.706 129.162 119.483 128.66 119.149C128.381 118.925 128.214 118.646 128.214 118.367C128.158 118.089 128.27 117.81 128.493 117.586C128.939 117.084 129.832 116.973 130.278 116.973H130.613C131.394 116.917 132.789 116.805 132.9 117.921C133.012 119.372 131.952 119.651 131.059 119.762C130.892 119.706 130.78 119.706 130.613 119.706ZM128.66 118.312C128.66 118.535 128.828 118.702 128.939 118.758C129.386 119.093 130.167 119.316 130.948 119.204C132.231 119.037 132.454 118.591 132.398 117.865C132.342 117.307 131.45 117.307 130.613 117.363H130.222C129.832 117.363 129.107 117.531 128.828 117.865C128.716 117.977 128.66 118.144 128.66 118.312Z" fill="#CC7A5E"/>
<path d="M129.441 112.9C129.609 111.895 131.282 111.728 132.008 111.84C132.733 111.895 135.243 112.007 135.02 113.179C134.797 114.35 133.849 114.573 132.287 114.573C130.78 114.518 129.274 113.792 129.441 112.9Z" fill="#EA9D7D"/>
<path d="M132.286 114.741C131.171 114.741 129.999 114.35 129.497 113.736C129.274 113.457 129.162 113.179 129.218 112.9C129.385 111.728 131.171 111.505 132.007 111.616H132.286C133.067 111.672 134.574 111.84 135.076 112.453C135.243 112.676 135.299 112.9 135.243 113.179C134.964 114.629 133.57 114.741 132.286 114.741ZM129.664 112.955C129.664 113.123 129.72 113.29 129.832 113.457C130.278 113.96 131.282 114.294 132.286 114.294C133.96 114.294 134.63 113.96 134.797 113.123C134.797 113.011 134.797 112.9 134.741 112.788C134.351 112.286 132.9 112.174 132.286 112.118H132.007C131.338 112.007 129.776 112.063 129.664 112.955Z" fill="#CC7A5E"/>
<path d="M98.0589 124.226L103.666 136.555C105.674 140.684 106.623 140.795 108.408 138.954C109.914 137.336 114.545 131.088 115.828 129.247C115.933 129.117 116.08 129.029 116.244 128.998C116.407 128.967 116.577 128.996 116.721 129.079L128.66 136.053C129.107 136.332 129.274 136.834 129.107 137.281C127.991 140.293 123.695 151.005 118.395 157.142C112.425 164.06 108.799 165.734 101.825 164.785C92.452 163.447 98.0589 124.226 98.0589 124.226Z" fill="#642C1E"/>
<path d="M110.919 135.83L126.763 142.971C126.763 142.971 121.296 154.575 117 158.704C113.987 161.605 108.575 167.407 103.945 163.948C94.4603 156.974 99.1021 126.083 99.1021 126.083C99.1021 126.083 104.503 140.516 106.567 140.181C108.575 139.902 110.919 135.83 110.919 135.83Z" fill="url(#paint14_linear_18706_3980)"/>
<path d="M86.3987 116.23C86.3987 116.23 98.1538 118.127 100.709 130.92L111.421 178.342C112.146 180.239 110.863 181.69 107.906 180.128C105.005 178.51 104.67 176.445 103.945 172.373C103.164 168.244 86.3987 116.23 86.3987 116.23Z" fill="#884130"/>
<path d="M86.8728 174.716H104.335C104.335 174.716 101.841 150.743 99.8721 138.396C98.243 128.159 97.0658 125.296 93.8132 120.973C91.0236 117.274 84.0665 114.501 78.0969 114.668C72.1273 114.836 86.8728 174.716 86.8728 174.716Z" fill="#FFFBDC"/>
<path d="M67.6253 125.341L54.5702 177.17C53.287 181.634 55.2955 181.745 58.9777 181.689C61.7672 181.689 81.0151 181.02 85.1994 180.072C89.3279 179.123 92.0616 175.497 92.8427 167.798C94.2375 153.794 93.0324 132.108 91.4312 125.352C90.3377 120.749 87.2915 118.211 84.9483 116.682C82.7836 115.276 78.2088 113.742 74.0803 115.192C70.2307 116.141 69.578 117.759 67.6253 125.346V125.341Z" fill="#7A3A2B"/>
<path d="M85.5897 126.289C85.5897 126.289 89.6624 132.649 88.2118 141.966C87.2634 148.215 85.9244 161.549 79.6201 167.686C73.3157 173.823 71.6978 177.561 69.4661 180.071C67.2345 182.526 61.3765 181.968 61.3765 181.968L63.4407 150.893L85.5897 126.289Z" fill="url(#paint15_linear_18706_3980)"/>
<path d="M50.1623 163.167C48.8791 167.24 49.1023 167.407 51.1666 175.162C53.2866 182.861 58.5309 198.483 58.5309 198.483C58.5309 198.483 58.6425 202.054 60.9299 205.736C63.2174 209.362 63.8311 209.585 64.2216 210.032C64.6121 210.478 65.1143 209.641 65.1143 209.641C65.1143 209.641 65.7837 210.757 66.509 210.645C67.2343 210.478 67.0669 209.641 67.0669 209.641C67.0669 209.641 67.7643 210.277 68.1549 210.054C68.6012 209.831 68.6291 207.688 68.127 206.628C67.6248 205.568 67.3459 202.5 67.2343 201.886C67.1227 201.328 68.5287 203.074 69.0866 203.856C69.6445 204.637 70.4144 204.508 69.6891 202.946C68.9638 201.328 68.5733 199.933 68.3501 199.487C68.127 199.041 67.4575 198.092 66.8996 197.423L66.3974 196.753C66.3974 196.753 66.1018 196.341 65.9902 194.555C65.8786 192.77 64.919 186.131 64.9748 183.397C65.1979 179.882 51.2781 159.703 50.1623 163.162V163.167Z" fill="#EA9D7D"/>
<path d="M58.4753 198.037C58.3637 198.037 58.3079 197.981 58.2521 197.869C58.1963 197.646 51.2783 176.055 49.3256 168.914C47.5961 162.61 48.5445 158.704 49.6045 156.473C50.274 154.966 50.8319 154.129 50.9435 154.074C51.0551 153.962 51.1667 154.018 51.2783 154.129C51.3898 154.241 51.3341 154.352 51.2225 154.464C51.2225 154.464 50.3856 155.58 49.6045 157.811C48.3214 161.494 48.9908 165.845 49.7719 168.802C51.7246 175.943 58.6426 197.535 58.6984 197.702C58.7542 197.813 58.6426 197.981 58.5311 197.981C58.5311 198.037 58.5311 198.037 58.4753 198.037Z" fill="#CC7A5E"/>
<path d="M66.342 167.686C65.8398 168.467 65.2819 171.089 65.3377 173.767L66.0072 194.019L66.3978 197.088C66.3978 197.088 66.5651 196.697 67.5136 197.813C68.462 198.929 69.801 202.499 70.1357 203.28C70.4705 204.061 70.2473 204.117 70.0242 204.285C69.8568 204.396 69.4663 204.229 69.1873 204.006C68.9083 203.727 67.2346 201.495 67.2346 201.495C67.2346 201.495 65.5609 201.83 64.6682 200.547C63.7756 199.319 63.5524 197.59 63.5524 197.59C63.5524 197.59 54.8491 176.445 57.806 167.909C60.5397 159.931 66.7883 166.849 66.342 167.686Z" fill="url(#paint16_linear_18706_3980)"/>
<path d="M56.6343 192.736L58.8659 199.264L66.6208 196.642L65.6724 191.062L56.6343 192.736Z" fill="url(#paint17_linear_18706_3980)"/>
<path d="M52.3942 193.964L69.0198 190.393C69.4104 190.281 69.6893 189.947 69.6335 189.5C69.4661 188.161 69.0756 185.037 68.4061 181.132C67.2903 174.66 66.9556 165.733 70.9167 158.146C78.1137 144.421 82.5212 140.126 85.8686 135.439C90.834 128.409 88.7698 120.822 83.2465 116.861C77.7232 112.9 69.6893 114.741 63.385 121.938C57.0806 129.135 49.3257 140.907 46.8709 155.189C44.4719 169.193 47.373 181.634 51.3899 193.406C51.5015 193.796 51.9478 194.075 52.3942 193.964Z" fill="url(#paint18_linear_18706_3980)"/>
<path d="M121.017 125.508C126.205 127.684 128.046 128.13 128.046 128.13L125.759 134.379L117.725 129.748L119.734 126.624C120.124 126.122 120.347 125.229 121.017 125.508Z" fill="url(#paint19_linear_18706_3980)"/>
<path d="M70.3031 203.404L68.5346 199.074C67.9097 197.652 66.9836 196.971 66.6935 196.759L66.0686 194.109C66.063 193.997 65.9013 193.941 65.7897 193.953C65.6781 193.964 65.6223 194.12 65.6335 194.232L66.2639 196.937C66.2639 196.993 66.3197 197.049 66.3755 197.105C66.3755 197.105 67.469 197.774 68.0938 199.258C68.5234 200.134 69.6002 202.818 69.8568 203.532C69.9907 204.034 69.8847 204.146 69.8345 204.201C69.6113 204.157 68.6852 203.476 67.4132 201.412C67.3574 201.3 67.2458 201.3 67.1342 201.311C67.0226 201.323 66.9669 201.423 66.978 201.535C66.9836 201.702 67.614 206.042 67.9265 207.521C68.2612 209.083 68.3728 209.234 68.2277 209.574C68.1719 209.686 68.0325 209.808 67.9209 209.814C67.6977 209.825 67.4578 209.792 67.296 209.619L65.8008 205.055C65.7952 204.943 65.6223 204.832 65.5219 204.899C65.4103 204.904 65.2987 205.077 65.3657 205.178L66.8609 209.741C66.9166 209.909 66.9334 210.132 66.833 210.299C66.7772 210.411 66.7214 210.467 66.6098 210.478C66.063 210.628 65.5777 209.92 65.4549 209.641L63.9486 205.97C63.943 205.803 63.77 205.747 63.6696 205.814C63.5022 205.819 63.3683 206.054 63.4297 206.16L64.9919 209.831C65.1034 209.998 65.5721 211.058 66.5875 210.969C66.9222 210.935 67.2402 210.723 67.2904 210.511C67.3462 210.4 67.3909 210.288 67.3853 210.177C67.9432 210.472 68.5569 210.121 68.7075 209.786C68.9642 209.273 68.8414 209.005 68.4844 207.387C68.2166 206.16 67.8149 203.677 67.6475 202.455C68.5402 203.755 69.3659 204.553 69.8233 204.642C69.9907 204.698 70.1023 204.631 70.1581 204.57C70.3255 204.413 70.5319 204.123 70.3255 203.398L70.3031 203.404Z" fill="#CC7A5E"/>
<path d="M259.123 312.885L166.872 312.459C161.545 312.434 156.446 310.295 152.695 306.511C148.945 302.728 146.85 297.61 146.872 292.283L147.847 61.0075C147.872 55.6772 150.013 50.5752 153.799 46.8233C157.586 43.0714 162.707 40.9768 168.037 41.0002L260.288 41.4254C262.926 41.4369 265.536 41.968 267.969 42.9881C270.402 44.0083 272.61 45.4977 274.467 47.3712C276.324 49.2447 277.794 51.4657 278.793 53.9073C279.792 56.3489 280.3 58.9634 280.288 61.6014L279.313 292.87C279.302 295.51 278.77 298.122 277.749 300.556C276.728 302.991 275.238 305.2 273.363 307.059C271.488 308.917 269.266 310.388 266.822 311.388C264.379 312.388 261.762 312.896 259.123 312.885Z" fill="#263238"/>
<path d="M259.163 47.9136L241.274 47.8257C240.097 47.8488 238.976 48.3379 238.158 49.1858C237.341 50.0338 236.892 51.1713 236.912 52.3491V55.5896C236.923 56.173 236.818 56.7529 236.605 57.296C236.392 57.8391 236.073 58.3349 235.668 58.755C235.263 59.175 234.779 59.5112 234.244 59.7442C233.709 59.9772 233.133 60.1026 232.55 60.113L197.689 59.9518C196.511 59.9191 195.395 59.4207 194.584 58.5659C193.773 57.711 193.334 56.5695 193.364 55.3916V52.1438C193.393 50.966 192.955 49.8244 192.144 48.9696C191.333 48.1147 190.216 47.6163 189.038 47.5837H182.748L167.095 47.5177C165.247 47.509 163.415 47.8645 161.704 48.5639C159.992 49.2633 158.436 50.2929 157.123 51.5939C155.809 52.8948 154.765 54.4417 154.05 56.1463C153.334 57.8508 152.962 59.6795 152.953 61.528L152 287.269C151.996 289.118 152.357 290.949 153.061 292.659C153.765 294.369 154.8 295.923 156.105 297.233C157.41 298.543 158.96 299.583 160.668 300.294C162.375 301.004 164.205 301.371 166.054 301.374L258.122 301.799C259.97 301.808 261.802 301.452 263.512 300.753C265.223 300.054 266.779 299.024 268.092 297.723C269.405 296.422 270.448 294.875 271.163 293.17C271.877 291.466 272.249 289.637 272.257 287.789L273.202 62.0779C273.215 60.2248 272.861 58.3874 272.162 56.6714C271.462 54.9554 270.431 53.3945 269.126 52.0783C267.821 50.7622 266.27 49.7168 264.56 49.002C262.85 48.2873 261.016 47.9174 259.163 47.9136Z" fill="white"/>
<path d="M237 105C237 118.254 226.255 128.999 213.001 128.999C204.663 128.999 197.318 124.747 193.017 118.293C190.479 114.487 189.001 109.916 189.001 105C189.001 91.7452 199.746 81 213.001 81C221.715 81 229.344 85.6451 233.548 92.593C235.739 96.2133 237 100.46 237 105Z" fill="#FDBD28"/>
<path d="M212.349 112.002C213.811 111.933 214.82 111.399 215.375 110.398C215.666 109.885 215.811 109.291 215.811 108.616C215.811 107.547 215.418 106.735 214.632 106.179C214.178 105.854 213.418 105.546 212.349 105.256V112.002ZM208.001 99.6257C208.001 100.472 208.279 101.135 208.835 101.614C209.399 102.092 210.156 102.426 211.105 102.614V96.5863C209.985 96.629 209.185 96.971 208.707 97.6123C208.236 98.2535 208.001 98.9246 208.001 99.6257ZM205.693 99.7796C205.693 98.4801 206.167 97.3087 207.116 96.2657C208.074 95.2226 209.412 94.6925 211.13 94.6754V92.9697H212.349V94.6498C214.05 94.7695 215.354 95.2739 216.26 96.1631C217.175 97.0437 217.654 98.2107 217.697 99.6642H215.452C215.393 99.0144 215.217 98.4544 214.927 97.9842C214.388 97.1206 213.529 96.6675 212.349 96.6248V102.858C214.332 103.413 215.679 103.935 216.389 104.422C217.543 105.226 218.12 106.414 218.12 107.987C218.12 110.262 217.38 111.878 215.901 112.835C215.08 113.365 213.896 113.716 212.349 113.887V116.375H211.13V113.887C208.643 113.724 206.954 112.844 206.065 111.245C205.577 110.381 205.334 109.214 205.334 107.744H207.604C207.672 108.915 207.856 109.77 208.155 110.309C208.685 111.275 209.668 111.818 211.105 111.937V104.948C209.258 104.597 207.894 104.012 207.014 103.191C206.133 102.37 205.693 101.233 205.693 99.7796Z" fill="white"/>
<path opacity="0.13" d="M233.548 92.593L193.016 118.293C190.478 114.487 189 109.916 189 105C189 91.7452 199.745 81 213 81C221.714 81 229.343 85.6451 233.548 92.593Z" fill="white"/>
<path d="M149 29.9997C149 35.5223 144.523 39.9994 139.001 39.9994C135.527 39.9994 132.466 38.2279 130.674 35.5387C129.617 33.9528 129.001 32.0483 129.001 29.9997C129.001 24.4771 133.478 20 139.001 20C142.632 20 145.811 21.9354 147.562 24.8304C148.475 26.3388 149 28.1081 149 29.9997Z" fill="#FDBD28"/>
<path d="M138.729 32.9172C139.338 32.8887 139.758 32.666 139.99 32.2492C140.111 32.0355 140.171 31.7879 140.171 31.5065C140.171 31.0612 140.007 30.7227 139.68 30.4912C139.491 30.3558 139.174 30.2276 138.729 30.1064V32.9172ZM136.917 27.7606C136.917 28.1133 137.033 28.3894 137.264 28.5889C137.5 28.7884 137.815 28.9273 138.21 29.0057V26.4942C137.744 26.512 137.411 26.6545 137.211 26.9217C137.015 27.1889 136.917 27.4685 136.917 27.7606ZM135.955 27.8247C135.955 27.2833 136.153 26.7952 136.548 26.3606C136.947 25.926 137.505 25.7051 138.221 25.698V24.9873H138.729V25.6873C139.438 25.7372 139.981 25.9474 140.358 26.3179C140.74 26.6848 140.939 27.171 140.957 27.7766H140.022C139.997 27.5059 139.924 27.2726 139.803 27.0766C139.578 26.7168 139.22 26.528 138.729 26.5102V29.1072C139.555 29.3388 140.116 29.5561 140.412 29.7591C140.893 30.094 141.133 30.5891 141.133 31.2446C141.133 32.1922 140.825 32.8655 140.209 33.2645C139.867 33.4854 139.373 33.6314 138.729 33.7027V34.7393H138.221V33.7027C137.184 33.635 136.481 33.2681 136.11 32.6019C135.907 32.2421 135.806 31.7558 135.806 31.1431H136.751C136.78 31.6311 136.857 31.9874 136.981 32.2118C137.202 32.6144 137.612 32.8406 138.21 32.8904V29.9782C137.441 29.8321 136.873 29.5881 136.506 29.2461C136.139 28.9041 135.955 28.4303 135.955 27.8247Z" fill="white"/>
<path opacity="0.13" d="M147.562 24.8304L130.673 35.5387C129.616 33.9528 129 32.0483 129 29.9997C129 24.4771 133.477 20 139 20C142.631 20 145.81 21.9354 147.562 24.8304Z" fill="white"/>
<path d="M213 200.999C226.255 200.999 237 190.254 237 176.999C237 163.744 226.255 152.999 213 152.999C199.745 152.999 189 163.744 189 176.999C189 190.254 199.745 200.999 213 200.999Z" fill="#FF748F"/>
<path d="M219.167 176.26C220.398 176.26 221.45 176.696 222.322 177.568C223.194 178.44 223.63 179.492 223.63 180.723C223.63 181.954 223.194 183.006 222.322 183.878C221.45 184.75 220.398 185.186 219.167 185.186C217.928 185.186 216.872 184.75 215.999 183.878C215.127 183.006 214.691 181.954 214.691 180.723C214.691 179.492 215.127 178.44 215.999 177.568C216.872 176.696 217.928 176.26 219.167 176.26ZM217.308 166.897H218.731L208.458 185.673H207.035L217.308 166.897ZM206.573 174.49C207.308 174.49 207.933 174.233 208.446 173.72C208.967 173.199 209.228 172.575 209.228 171.848C209.228 171.121 208.967 170.501 208.446 169.988C207.933 169.467 207.308 169.206 206.573 169.206C205.846 169.206 205.222 169.462 204.701 169.975C204.188 170.488 203.931 171.113 203.931 171.848C203.931 172.575 204.188 173.199 204.701 173.72C205.222 174.233 205.846 174.49 206.573 174.49ZM206.573 167.372C207.813 167.372 208.869 167.812 209.741 168.693C210.613 169.565 211.049 170.617 211.049 171.848C211.049 173.079 210.613 174.131 209.741 175.003C208.869 175.875 207.813 176.311 206.573 176.311C205.342 176.311 204.29 175.875 203.418 175.003C202.546 174.131 202.11 173.079 202.11 171.848C202.11 170.617 202.546 169.565 203.418 168.693C204.29 167.812 205.342 167.372 206.573 167.372ZM219.167 183.365C219.894 183.365 220.514 183.108 221.027 182.595C221.548 182.074 221.809 181.449 221.809 180.723C221.809 179.996 221.548 179.376 221.027 178.863C220.514 178.342 219.894 178.081 219.167 178.081C218.432 178.081 217.804 178.342 217.282 178.863C216.769 179.376 216.512 179.996 216.512 180.723C216.512 181.449 216.769 182.074 217.282 182.595C217.804 183.108 218.432 183.365 219.167 183.365Z" fill="white"/>
<path opacity="0.13" d="M233.549 164.592L193.016 190.293C190.478 186.487 189 181.916 189 176.999C189 163.744 199.745 152.999 213 152.999C221.715 152.999 229.344 157.644 233.549 164.592Z" fill="white"/>
<path d="M172 75C178.627 75 184 69.6274 184 63C184 56.3726 178.627 51 172 51C165.373 51 160 56.3726 160 63C160 69.6274 165.373 75 172 75Z" fill="#FF748F"/>
<path d="M175.084 62.6293C175.699 62.6293 176.225 62.8474 176.661 63.2834C177.097 63.7195 177.315 64.2453 177.315 64.8609C177.315 65.4765 177.097 66.0023 176.661 66.4383C176.225 66.8744 175.699 67.0924 175.084 67.0924C174.464 67.0924 173.936 66.8744 173.5 66.4383C173.064 66.0023 172.846 65.4765 172.846 64.8609C172.846 64.2453 173.064 63.7195 173.5 63.2834C173.936 62.8474 174.464 62.6293 175.084 62.6293ZM174.154 57.9482H174.866L169.729 67.3361H169.018L174.154 57.9482ZM168.787 61.7444C169.154 61.7444 169.466 61.6162 169.723 61.3597C169.984 61.0989 170.114 60.7868 170.114 60.4235C170.114 60.0601 169.984 59.7501 169.723 59.4936C169.466 59.2329 169.154 59.1025 168.787 59.1025C168.423 59.1025 168.111 59.2307 167.85 59.4872C167.594 59.7437 167.466 60.0558 167.466 60.4235C167.466 60.7868 167.594 61.0989 167.85 61.3597C168.111 61.6162 168.423 61.7444 168.787 61.7444ZM168.787 58.1855C169.407 58.1855 169.935 58.4057 170.371 58.846C170.807 59.282 171.025 59.8079 171.025 60.4235C171.025 61.039 170.807 61.5649 170.371 62.0009C169.935 62.437 169.407 62.655 168.787 62.655C168.171 62.655 167.645 62.437 167.209 62.0009C166.773 61.5649 166.555 61.039 166.555 60.4235C166.555 59.8079 166.773 59.282 167.209 58.846C167.645 58.4057 168.171 58.1855 168.787 58.1855ZM175.084 66.1818C175.447 66.1818 175.757 66.0536 176.014 65.7971C176.274 65.5363 176.405 65.2242 176.405 64.8609C176.405 64.4975 176.274 64.1876 176.014 63.9311C175.757 63.6703 175.447 63.5399 175.084 63.5399C174.716 63.5399 174.402 63.6703 174.141 63.9311C173.885 64.1876 173.756 64.4975 173.756 64.8609C173.756 65.2242 173.885 65.5363 174.141 65.7971C174.402 66.0536 174.716 66.1818 175.084 66.1818Z" fill="white"/>
<path opacity="0.13" d="M182.274 56.7966L162.008 69.6469C160.739 67.7439 160 65.4583 160 63C160 56.3727 165.373 51 172 51C176.358 51 180.172 53.3223 182.274 56.7966Z" fill="white"/>
<path d="M213 272.999C226.255 272.999 237 262.254 237 248.999C237 235.744 226.255 224.999 213 224.999C199.745 224.999 189 235.744 189 248.999C189 262.254 199.745 272.999 213 272.999Z" fill="#4F6BFD"/>
<path opacity="0.13" d="M233.575 236.696L193.042 262.398C190.504 258.592 189.026 254.021 189.026 249.104C189.026 235.849 199.771 225.104 213.026 225.104C221.742 225.103 229.371 229.748 233.575 236.696Z" fill="white"/>
<path d="M208.947 256.647C208.399 256.647 207.854 256.459 207.413 256.087L202.344 251.813C201.339 250.966 201.212 249.465 202.059 248.461C202.906 247.456 204.406 247.329 205.411 248.175L209.074 251.264L222.434 241.812C223.507 241.053 224.991 241.308 225.751 242.38C226.509 243.452 226.255 244.937 225.183 245.696L210.321 256.21C209.908 256.502 209.426 256.647 208.947 256.647Z" fill="white"/>
<defs>
<linearGradient id="paint0_linear_18706_3980" x1="83.8432" y1="112.164" x2="87.676" y2="107.226" gradientUnits="userSpaceOnUse">
<stop stop-color="#BC5A32" stop-opacity="0"/>
<stop offset="0.99" stop-color="#BC5A32"/>
</linearGradient>
<linearGradient id="paint1_linear_18706_3980" x1="90.6276" y1="95.4152" x2="88.9594" y2="91.5433" gradientUnits="userSpaceOnUse">
<stop stop-color="#BC5A32" stop-opacity="0"/>
<stop offset="0.99" stop-color="#BC5A32"/>
</linearGradient>
<linearGradient id="paint2_linear_18706_3980" x1="81.2323" y1="102.651" x2="81.422" y2="99.683" gradientUnits="userSpaceOnUse">
<stop stop-color="#CC7A5E" stop-opacity="0"/>
<stop offset="0.92" stop-color="#AA5F4B"/>
</linearGradient>
<linearGradient id="paint3_linear_18706_3980" x1="107.005" y1="264.703" x2="127.766" y2="263.315" gradientUnits="userSpaceOnUse">
<stop stop-color="#BC5A32" stop-opacity="0"/>
<stop offset="0.99" stop-color="#BC5A32"/>
</linearGradient>
<linearGradient id="paint4_linear_18706_3980" x1="104.612" y1="241.472" x2="104.185" y2="233.29" gradientUnits="userSpaceOnUse">
<stop stop-color="#BC5A32" stop-opacity="0"/>
<stop offset="0.99" stop-color="#BC5A32"/>
</linearGradient>
<linearGradient id="paint5_linear_18706_3980" x1="119.753" y1="304.279" x2="119.622" y2="294.015" gradientUnits="userSpaceOnUse">
<stop stop-color="#911319"/>
<stop offset="0.98" stop-color="#BA3024"/>
</linearGradient>
<linearGradient id="paint6_linear_18706_3980" x1="92.4435" y1="235.622" x2="122.664" y2="230.142" gradientUnits="userSpaceOnUse">
<stop stop-color="#F25779"/>
<stop offset="0.975" stop-color="#CB1E3A"/>
</linearGradient>
<linearGradient id="paint7_linear_18706_3980" x1="98.1967" y1="205.344" x2="128.224" y2="197.897" gradientUnits="userSpaceOnUse">
<stop offset="0.01" stop-color="#6E0C27" stop-opacity="0"/>
<stop offset="0.985" stop-color="#6E0C27"/>
</linearGradient>
<linearGradient id="paint8_linear_18706_3980" x1="70.9853" y1="264.276" x2="92.9747" y2="268.083" gradientUnits="userSpaceOnUse">
<stop stop-color="#BC5A32" stop-opacity="0"/>
<stop offset="0.99" stop-color="#BC5A32"/>
</linearGradient>
<linearGradient id="paint9_linear_18706_3980" x1="74.1202" y1="241.016" x2="75.602" y2="233.143" gradientUnits="userSpaceOnUse">
<stop stop-color="#BC5A32" stop-opacity="0"/>
<stop offset="0.99" stop-color="#BC5A32"/>
</linearGradient>
<linearGradient id="paint10_linear_18706_3980" x1="76.8495" y1="304.277" x2="76.7189" y2="294.013" gradientUnits="userSpaceOnUse">
<stop stop-color="#911319"/>
<stop offset="0.98" stop-color="#BA3024"/>
</linearGradient>
<linearGradient id="paint11_linear_18706_3980" x1="71.9616" y1="239.551" x2="83.8706" y2="222.527" gradientUnits="userSpaceOnUse">
<stop stop-color="#F25779"/>
<stop offset="0.975" stop-color="#CB1E3A"/>
</linearGradient>
<linearGradient id="paint12_linear_18706_3980" x1="81.8918" y1="204.907" x2="112.409" y2="209.327" gradientUnits="userSpaceOnUse">
<stop offset="0.01" stop-color="#9A0C10" stop-opacity="0"/>
<stop offset="0.985" stop-color="#9A0C10"/>
</linearGradient>
<linearGradient id="paint13_linear_18706_3980" x1="81.8706" y1="187.526" x2="80.3302" y2="170.996" gradientUnits="userSpaceOnUse">
<stop offset="0.01" stop-color="#9A0C10" stop-opacity="0"/>
<stop offset="0.975" stop-color="#730C2D"/>
</linearGradient>
<linearGradient id="paint14_linear_18706_3980" x1="117.93" y1="135.143" x2="107.665" y2="142.995" gradientUnits="userSpaceOnUse">
<stop stop-color="#552828" stop-opacity="0"/>
<stop offset="1" stop-color="#441814"/>
</linearGradient>
<linearGradient id="paint15_linear_18706_3980" x1="83.4138" y1="162.2" x2="69.7624" y2="151.104" gradientUnits="userSpaceOnUse">
<stop stop-color="#552828" stop-opacity="0"/>
<stop offset="1" stop-color="#552828"/>
</linearGradient>
<linearGradient id="paint16_linear_18706_3980" x1="67.9125" y1="184.378" x2="74.416" y2="184.889" gradientUnits="userSpaceOnUse">
<stop stop-color="#CC7A5E" stop-opacity="0"/>
<stop offset="0.924" stop-color="#AA5F4B"/>
</linearGradient>
<linearGradient id="paint17_linear_18706_3980" x1="62.6223" y1="197.727" x2="61.2264" y2="192.216" gradientUnits="userSpaceOnUse">
<stop stop-color="#CC7A5E" stop-opacity="0"/>
<stop offset="0.924" stop-color="#AA5F4B"/>
</linearGradient>
<linearGradient id="paint18_linear_18706_3980" x1="69.2296" y1="155.807" x2="40.6993" y2="145.213" gradientUnits="userSpaceOnUse">
<stop stop-color="#884130"/>
<stop offset="0.98" stop-color="#AF614E"/>
</linearGradient>
<linearGradient id="paint19_linear_18706_3980" x1="123.787" y1="127.864" x2="121.565" y2="132.427" gradientUnits="userSpaceOnUse">
<stop stop-color="#CC7A5E" stop-opacity="0"/>
<stop offset="1" stop-color="#AA5F4B"/>
</linearGradient>
</defs>
</svg>
