<svg width="375" height="344" viewBox="0 0 375 344" fill="none" xmlns="http://www.w3.org/2000/svg">
<path fill-rule="evenodd" clip-rule="evenodd" d="M100.088 307.86C97.7382 309.411 92.8506 306.074 89.232 300.482C85.6133 294.889 84.5794 289.062 86.9292 287.558C89.279 286.007 94.1665 289.344 97.7852 294.936C101.404 300.529 102.438 306.309 100.088 307.86Z" fill="url(#paint0_linear_22293_6873)"/>
<path fill-rule="evenodd" clip-rule="evenodd" d="M126.218 325.765H-62C-52.1779 261.992 33.5421 322.381 28.2316 291.787C23.814 266.362 62.3035 264.389 68.8828 285.161C75.9322 307.484 80.9607 317.964 126.218 325.765Z" fill="url(#paint1_linear_22293_6873)"/>
<path opacity="0.46" fill-rule="evenodd" clip-rule="evenodd" d="M218 325.766H101.357C110.803 258.797 164.848 323.792 218 325.766Z" fill="url(#paint2_linear_22293_6873)"/>
<path fill-rule="evenodd" clip-rule="evenodd" d="M-0.106746 275.857C-1.89258 278.065 0.927152 283.235 6.14367 287.418C11.3602 291.6 17.0467 293.198 18.7855 290.989C20.5713 288.78 17.7516 283.611 12.5351 279.428C7.31856 275.246 1.67909 273.648 -0.106746 275.857Z" fill="url(#paint3_linear_22293_6873)"/>
<path fill-rule="evenodd" clip-rule="evenodd" d="M114 325.52H372.577C357.774 254.331 250.239 321.187 257.039 282.012C264.2 240.731 238.023 242.717 179.592 300.546C169.302 310.656 132.053 305.601 114 325.52Z" fill="url(#paint4_linear_22293_6873)"/>
<path opacity="0.68" fill-rule="evenodd" clip-rule="evenodd" d="M222.919 325.52H394C384.191 278.402 313.063 322.632 317.516 296.756C326.723 244.102 227.131 321.488 222.919 325.52Z" fill="url(#paint5_linear_22293_6873)"/>
<path fill-rule="evenodd" clip-rule="evenodd" d="M267.57 283.698C269.796 286.526 277.078 284.541 283.817 279.185C290.557 273.889 294.168 267.27 291.941 264.442C289.715 261.613 282.433 263.599 275.694 268.955C268.954 274.311 265.343 280.87 267.57 283.698Z" fill="url(#paint6_linear_22293_6873)"/>
<path fill-rule="evenodd" clip-rule="evenodd" d="M265.764 264.02C267.69 265.103 271.421 262.275 274.069 257.641C276.717 253.008 277.258 248.374 275.272 247.231C273.286 246.148 269.616 248.976 266.968 253.61C264.38 258.243 263.839 262.937 265.764 264.02Z" fill="url(#paint7_linear_22293_6873)"/>
<path d="M240.926 0H62V325.857H240.926V0Z" fill="url(#paint8_linear_22293_6873)"/>
<path d="M227.695 13.2305H75.2316V325.856H227.695V13.2305Z" fill="url(#paint9_linear_22293_6873)"/>
<path d="M88.832 178.971H75.2316V214.47H88.832V178.971Z" fill="url(#paint10_linear_22293_6873)"/>
<path fill-rule="evenodd" clip-rule="evenodd" d="M107.273 196.722C107.273 198.612 105.752 200.134 103.862 200.134H82.9308C81.0867 200.134 79.5192 198.612 79.5192 196.722C79.5192 194.878 81.0406 193.311 82.9308 193.311H103.862C105.752 193.311 107.273 194.832 107.273 196.722Z" fill="url(#paint11_linear_22293_6873)"/>
<path fill-rule="evenodd" clip-rule="evenodd" d="M229.723 40.5703C230.83 40.5703 231.706 41.4924 231.706 42.5528V66.3881C231.706 67.4945 230.784 68.3705 229.723 68.3705C228.617 68.3705 227.741 67.4484 227.741 66.3881V42.5528C227.741 41.4924 228.617 40.5703 229.723 40.5703Z" fill="url(#paint12_linear_22293_6873)"/>
<path fill-rule="evenodd" clip-rule="evenodd" d="M229.723 270.717C230.83 270.717 231.706 271.639 231.706 272.699V296.535C231.706 297.641 230.784 298.517 229.723 298.517C228.617 298.517 227.741 297.595 227.741 296.535V272.699C227.741 271.593 228.617 270.717 229.723 270.717Z" fill="url(#paint13_linear_22293_6873)"/>
<path fill-rule="evenodd" clip-rule="evenodd" d="M229.723 149.006C230.83 149.006 231.706 149.928 231.706 150.988V174.824C231.706 175.93 230.784 176.806 229.723 176.806C228.617 176.806 227.741 175.884 227.741 174.824V151.034C227.741 149.928 228.617 149.006 229.723 149.006Z" fill="url(#paint14_linear_22293_6873)"/>
<path d="M214.325 142.043H94.5488V174.085H214.325V142.043Z" fill="url(#paint15_linear_22293_6873)"/>
<path d="M209.576 146.793H99.2975V169.337H209.576V146.793Z" fill="url(#paint16_linear_22293_6873)"/>
<path fill-rule="evenodd" clip-rule="evenodd" d="M111.792 112.169H191.181V75.2868C191.181 55.0014 174.584 38.4043 154.299 38.4043H148.72C128.435 38.4043 111.838 55.0014 111.838 75.2868V112.169H111.792Z" fill="url(#paint17_linear_22293_6873)"/>
<path fill-rule="evenodd" clip-rule="evenodd" d="M116.54 107.421H186.432V75.2874C186.432 57.6299 171.956 43.1074 154.298 43.1074H148.72C131.063 43.1074 116.586 57.5838 116.586 75.2874V107.421H116.54Z" fill="url(#paint18_linear_22293_6873)"/>
<path opacity="0.57" fill-rule="evenodd" clip-rule="evenodd" d="M121.657 107.42H135.027L171.587 48.2235C168.36 46.1489 164.764 44.6275 160.937 43.8438L121.657 107.42ZM142.358 107.42L176.52 52.0962C178.088 53.6176 179.517 55.2773 180.762 57.0754L149.688 107.42H142.358Z" fill="white"/>
<path d="M136.318 200.133H94.5488V301.514H136.318V200.133Z" fill="url(#paint19_linear_22293_6873)"/>
<path d="M131.616 202.668H99.2975V294.598H131.616V202.668Z" fill="url(#paint20_linear_22293_6873)"/>
<path d="M214.325 200.133H172.555V301.514H214.325V200.133Z" fill="url(#paint21_linear_22293_6873)"/>
<path d="M209.576 202.668H177.258V294.598H209.576V202.668Z" fill="url(#paint22_linear_22293_6873)"/>
<path fill-rule="evenodd" clip-rule="evenodd" d="M272.589 325.461H243V188.795C243 180.667 249.667 174 257.795 174C265.922 174 272.589 180.667 272.589 188.795V325.461Z" fill="url(#paint23_linear_22293_6873)"/>
<path fill-rule="evenodd" clip-rule="evenodd" d="M322.635 325.461H293.046V188.795C293.046 180.667 299.712 174 307.84 174C315.968 174 322.635 180.667 322.635 188.795V325.461Z" fill="url(#paint24_linear_22293_6873)"/>
<path fill-rule="evenodd" clip-rule="evenodd" d="M373 325.461H343.411V188.795C343.411 180.667 350.078 174 358.205 174C366.333 174 373 180.667 373 188.795V325.461Z" fill="url(#paint25_linear_22293_6873)"/>
<path d="M372.954 234.959H243V264.548H372.954V234.959Z" fill="url(#paint26_linear_22293_6873)"/>
<path fill-rule="evenodd" clip-rule="evenodd" d="M9.63469 326H-19.9543V188.847C-19.9543 180.69 -13.2877 174 -5.15983 174C2.96803 174 9.63469 180.69 9.63469 188.847V326Z" fill="url(#paint27_linear_22293_6873)"/>
<path fill-rule="evenodd" clip-rule="evenodd" d="M59.9999 326H30.4109V188.847C30.4109 180.69 37.0776 174 45.2054 174C53.3333 174 59.9999 180.69 59.9999 188.847V326Z" fill="url(#paint28_linear_22293_6873)"/>
<path d="M59.9543 235.176H-70V264.87H59.9543V235.176Z" fill="url(#paint29_linear_22293_6873)"/>
<path d="M263 325H43V343.864H263V325Z" fill="url(#paint30_linear_22293_6873)"/>
<path fill-rule="evenodd" clip-rule="evenodd" d="M156.814 242.376L151.374 241.684L144.92 241.5L145.888 252.611L149.3 250.628L155.016 252.334L156.814 242.376Z" fill="url(#paint31_linear_22293_6873)"/>
<path fill-rule="evenodd" clip-rule="evenodd" d="M151.466 241.73C145.703 242.698 146.948 246.801 145.888 252.657C142.338 255.054 140.125 259.941 137.221 263.998C136.206 265.427 133.486 266.165 131.873 264.92C134.869 256.114 138.143 246.709 140.817 237.857C146.81 240.163 144.32 239.194 151.466 241.73Z" fill="url(#paint32_linear_22293_6873)"/>
<path fill-rule="evenodd" clip-rule="evenodd" d="M252.986 310.01L242.197 312.361L243.304 333.292L248.698 339.516L255.337 333.891L252.34 332.093L252.986 310.01Z" fill="url(#paint33_linear_22293_6873)"/>
<path fill-rule="evenodd" clip-rule="evenodd" d="M236.066 71.0103C227.444 68.5207 223.295 74.9752 220.298 75.5284C211.815 76.22 216.195 91.5262 207.666 95.5372C193.42 102.222 192.913 131.59 210.939 143.392C215.181 146.205 236.527 153.074 243.811 147.127C266.355 128.685 256.535 115.085 247.223 100.147C243.719 94.569 256.72 76.9576 236.066 71.0103Z" fill="url(#paint34_linear_22293_6873)"/>
<path fill-rule="evenodd" clip-rule="evenodd" d="M237.172 126.426L256.213 163.262L265.71 157.545L249.251 118.312C247.038 113.056 240.768 112.272 237.587 113.332C234.452 115.038 233.714 119.695 237.172 126.426Z" fill="url(#paint35_linear_22293_6873)"/>
<path fill-rule="evenodd" clip-rule="evenodd" d="M239.293 112.964C244.041 111.581 248.513 114.485 250.45 119.003L258.887 138.828C254.415 145.928 244.503 149.57 238.232 145.282L233.253 124.121C232.101 119.326 234.544 114.393 239.293 112.964Z" fill="url(#paint36_linear_22293_6873)"/>
<path fill-rule="evenodd" clip-rule="evenodd" d="M257.55 196.272C254.507 227.023 255.475 283.822 252.847 316.694C252.617 319.552 250.173 321.719 247.315 321.581C245.01 321.489 243.027 319.967 242.382 317.754C239.201 307.012 231.409 274.786 234.268 255.146C236.527 239.609 210.939 193.414 210.939 193.414L257.55 196.272Z" fill="url(#paint37_linear_22293_6873)"/>
<path fill-rule="evenodd" clip-rule="evenodd" d="M237.449 190.879C232.285 211.118 231.455 235.23 224.309 262.016C217.486 287.557 161.24 256.714 155.016 252.334C152.112 249.061 153.956 243.068 156.814 242.376C156.814 242.376 186.781 234.769 203.655 253.441C210.248 243.575 192.959 209.459 204.07 186.684L237.449 190.879Z" fill="url(#paint38_linear_22293_6873)"/>
<path fill-rule="evenodd" clip-rule="evenodd" d="M256.028 156.579C260.039 145.053 266.724 135.187 266.77 123.2C266.816 117.806 265.71 117.76 266.909 109.185C267.416 106.787 269.49 107.11 269.352 112.135C269.306 113.795 269.998 113.564 271.104 112.642C276.913 107.802 276.406 99.4568 279.541 100.932C282.399 106.096 282.999 107.663 280.094 113.933C278.803 116.699 275.807 120.618 274.009 126.012C272.395 133.389 271.012 149.986 269.49 161.973C268.2 172.761 250.819 171.562 256.028 156.579Z" fill="url(#paint39_linear_22293_6873)"/>
<path fill-rule="evenodd" clip-rule="evenodd" d="M211.769 113.562L237.725 113.285L247.73 121.953C247.73 121.953 255.567 127.808 253.124 135.23C250.68 142.607 250.035 146.618 249.666 159.019C249.297 171.421 255.613 171.283 262.852 195.81C251.464 214.251 202.825 210.378 198.953 191.614C209.787 169.07 214.582 159.481 211.769 113.562Z" fill="url(#paint40_linear_22293_6873)"/>
<path fill-rule="evenodd" clip-rule="evenodd" d="M235.051 113.332C240.491 126.61 226.338 123.428 221.405 113.47L223.848 113.424V96.6426H233.161V113.378L235.051 113.332Z" fill="url(#paint41_linear_22293_6873)"/>
<path fill-rule="evenodd" clip-rule="evenodd" d="M202.503 121.633L194.942 165.062L205.13 161.789L216.656 124.998C220.391 114.81 205.223 106.004 202.503 121.633Z" fill="url(#paint42_linear_22293_6873)"/>
<path fill-rule="evenodd" clip-rule="evenodd" d="M240.63 83.3651C240.307 86.4079 239.892 87.0533 240.169 89.4507C240.353 91.2487 242.474 91.5253 241.46 99.1323C240.169 107.154 237.172 107.431 230.21 103.697C223.479 100.1 224.355 98.2564 223.894 96.6428C217.025 96.3661 219.745 84.1488 225.416 91.3409C227.629 91.8941 224.494 85.6241 225.831 83.0884C228.366 79.6307 236.296 88.2059 240.63 83.3651Z" fill="url(#paint43_linear_22293_6873)"/>
<path fill-rule="evenodd" clip-rule="evenodd" d="M243.212 331.953C245.932 337.117 249.436 334.673 255.337 333.889C258.702 336.517 264.096 337.117 268.845 338.592C270.505 339.099 272.072 341.45 271.381 343.387C262.068 343.295 252.156 343.11 242.889 343.294C243.212 336.886 243.073 339.56 243.212 331.953Z" fill="url(#paint44_linear_22293_6873)"/>
<path fill-rule="evenodd" clip-rule="evenodd" d="M211.815 112.964C207.067 111.581 202.595 114.485 200.658 119.003L192.222 138.828C196.694 145.928 206.606 149.57 212.876 145.282L217.855 124.121C219.008 119.326 216.564 114.393 211.815 112.964Z" fill="url(#paint45_linear_22293_6873)"/>
<path fill-rule="evenodd" clip-rule="evenodd" d="M205.684 154.918C204.024 142.839 199.368 131.821 201.627 120.064C202.641 114.762 203.701 114.947 204.254 106.279C204.254 103.836 202.134 103.744 201.258 108.723C200.981 110.336 200.336 110.014 199.414 108.907C194.665 103.052 196.786 94.9841 193.42 95.7679C189.64 100.286 188.718 101.715 190.331 108.446C191.069 111.397 193.236 115.869 193.927 121.447C194.066 129.008 192.175 145.559 191.346 157.592C190.608 168.426 207.851 170.639 205.684 154.918Z" fill="url(#paint46_linear_22293_6873)"/>
<defs>
<linearGradient id="paint0_linear_22293_6873" x1="85.6291" y1="297.689" x2="101.352" y2="297.689" gradientUnits="userSpaceOnUse">
<stop stop-color="#A0DD5C"/>
<stop offset="1" stop-color="#33B876"/>
</linearGradient>
<linearGradient id="paint1_linear_22293_6873" x1="-62.0112" y1="298.395" x2="126.196" y2="298.395" gradientUnits="userSpaceOnUse">
<stop stop-color="#A0DD5C"/>
<stop offset="1" stop-color="#33B876"/>
</linearGradient>
<linearGradient id="paint2_linear_22293_6873" x1="101.352" y1="310.661" x2="217.989" y2="310.661" gradientUnits="userSpaceOnUse">
<stop stop-color="#A0DD5C"/>
<stop offset="1" stop-color="#33B876"/>
</linearGradient>
<linearGradient id="paint3_linear_22293_6873" x1="-0.630325" y1="283.424" x2="19.3358" y2="283.424" gradientUnits="userSpaceOnUse">
<stop stop-color="#A0DD5C"/>
<stop offset="1" stop-color="#33B876"/>
</linearGradient>
<linearGradient id="paint4_linear_22293_6873" x1="114.005" y1="289.617" x2="372.576" y2="289.617" gradientUnits="userSpaceOnUse">
<stop stop-color="#A0DD5C"/>
<stop offset="1" stop-color="#33B876"/>
</linearGradient>
<linearGradient id="paint5_linear_22293_6873" x1="222.94" y1="301.989" x2="394.022" y2="301.989" gradientUnits="userSpaceOnUse">
<stop stop-color="#A0DD5C"/>
<stop offset="1" stop-color="#33B876"/>
</linearGradient>
<linearGradient id="paint6_linear_22293_6873" x1="266.923" y1="274.105" x2="292.575" y2="274.105" gradientUnits="userSpaceOnUse">
<stop stop-color="#A0DD5C"/>
<stop offset="1" stop-color="#33B876"/>
</linearGradient>
<linearGradient id="paint7_linear_22293_6873" x1="264.602" y1="255.641" x2="276.47" y2="255.641" gradientUnits="userSpaceOnUse">
<stop stop-color="#A0DD5C"/>
<stop offset="1" stop-color="#33B876"/>
</linearGradient>
<linearGradient id="paint8_linear_22293_6873" x1="62.0028" y1="162.952" x2="240.947" y2="162.952" gradientUnits="userSpaceOnUse">
<stop stop-color="#4D93F3"/>
<stop offset="0.1307" stop-color="#4A8FED"/>
<stop offset="0.3009" stop-color="#4085DD"/>
<stop offset="0.4923" stop-color="#3074C2"/>
<stop offset="0.6838" stop-color="#1B5EA0"/>
<stop offset="0.9626" stop-color="#1B5EA0"/>
</linearGradient>
<linearGradient id="paint9_linear_22293_6873" x1="75.232" y1="169.566" x2="227.717" y2="169.566" gradientUnits="userSpaceOnUse">
<stop stop-color="white"/>
<stop offset="0.2998" stop-color="#FAF9F9"/>
<stop offset="0.687" stop-color="#EBE9E9"/>
<stop offset="0.8874" stop-color="#E0DEDE"/>
</linearGradient>
<linearGradient id="paint10_linear_22293_6873" x1="75.232" y1="196.718" x2="88.8103" y2="196.718" gradientUnits="userSpaceOnUse">
<stop stop-color="#4D93F3"/>
<stop offset="0.1307" stop-color="#4A8FED"/>
<stop offset="0.3009" stop-color="#4085DD"/>
<stop offset="0.4923" stop-color="#3074C2"/>
<stop offset="0.6838" stop-color="#1B5EA0"/>
<stop offset="0.9626" stop-color="#1B5EA0"/>
</linearGradient>
<linearGradient id="paint11_linear_22293_6873" x1="79.537" y1="196.721" x2="107.263" y2="196.721" gradientUnits="userSpaceOnUse">
<stop stop-color="#4D93F3"/>
<stop offset="0.1307" stop-color="#4A8FED"/>
<stop offset="0.3009" stop-color="#4085DD"/>
<stop offset="0.4923" stop-color="#3074C2"/>
<stop offset="0.6838" stop-color="#1B5EA0"/>
<stop offset="0.9626" stop-color="#1B5EA0"/>
</linearGradient>
<linearGradient id="paint12_linear_22293_6873" x1="227.718" y1="54.507" x2="231.72" y2="54.507" gradientUnits="userSpaceOnUse">
<stop stop-color="white"/>
<stop offset="0.2998" stop-color="#FAF9F9"/>
<stop offset="0.687" stop-color="#EBE9E9"/>
<stop offset="0.8874" stop-color="#E0DEDE"/>
</linearGradient>
<linearGradient id="paint13_linear_22293_6873" x1="227.718" y1="284.627" x2="231.72" y2="284.627" gradientUnits="userSpaceOnUse">
<stop stop-color="white"/>
<stop offset="0.2998" stop-color="#FAF9F9"/>
<stop offset="0.687" stop-color="#EBE9E9"/>
<stop offset="0.8874" stop-color="#E0DEDE"/>
</linearGradient>
<linearGradient id="paint14_linear_22293_6873" x1="227.718" y1="162.953" x2="231.72" y2="162.953" gradientUnits="userSpaceOnUse">
<stop stop-color="white"/>
<stop offset="0.2998" stop-color="#FAF9F9"/>
<stop offset="0.687" stop-color="#EBE9E9"/>
<stop offset="0.8874" stop-color="#E0DEDE"/>
</linearGradient>
<linearGradient id="paint15_linear_22293_6873" x1="94.5546" y1="158.075" x2="214.314" y2="158.075" gradientUnits="userSpaceOnUse">
<stop stop-color="#4D93F3"/>
<stop offset="0.1307" stop-color="#4A8FED"/>
<stop offset="0.3009" stop-color="#4085DD"/>
<stop offset="0.4923" stop-color="#3074C2"/>
<stop offset="0.6838" stop-color="#1B5EA0"/>
<stop offset="0.9626" stop-color="#1B5EA0"/>
</linearGradient>
<linearGradient id="paint16_linear_22293_6873" x1="209.577" y1="158.075" x2="99.2915" y2="158.075" gradientUnits="userSpaceOnUse">
<stop stop-color="#4D93F3"/>
<stop offset="0.1307" stop-color="#4A8FED"/>
<stop offset="0.3009" stop-color="#4085DD"/>
<stop offset="0.4923" stop-color="#3074C2"/>
<stop offset="0.6838" stop-color="#1B5EA0"/>
<stop offset="0.9626" stop-color="#1B5EA0"/>
</linearGradient>
<linearGradient id="paint17_linear_22293_6873" x1="191.163" y1="75.2814" x2="111.788" y2="75.2814" gradientUnits="userSpaceOnUse">
<stop stop-color="#4D93F3"/>
<stop offset="0.1307" stop-color="#4A8FED"/>
<stop offset="0.3009" stop-color="#4085DD"/>
<stop offset="0.4923" stop-color="#3074C2"/>
<stop offset="0.6838" stop-color="#1B5EA0"/>
<stop offset="0.9626" stop-color="#1B5EA0"/>
</linearGradient>
<linearGradient id="paint18_linear_22293_6873" x1="116.524" y1="75.282" x2="186.426" y2="75.282" gradientUnits="userSpaceOnUse">
<stop stop-color="#6FD3E7"/>
<stop offset="0.1293" stop-color="#66CFE2"/>
<stop offset="0.3391" stop-color="#4EC4D6"/>
<stop offset="0.6016" stop-color="#27B3C1"/>
<stop offset="0.8278" stop-color="#00A1AD"/>
</linearGradient>
<linearGradient id="paint19_linear_22293_6873" x1="136.331" y1="250.81" x2="94.5538" y2="250.81" gradientUnits="userSpaceOnUse">
<stop stop-color="#4D93F3"/>
<stop offset="0.1307" stop-color="#4A8FED"/>
<stop offset="0.3009" stop-color="#4085DD"/>
<stop offset="0.4923" stop-color="#3074C2"/>
<stop offset="0.6838" stop-color="#1B5EA0"/>
<stop offset="0.9626" stop-color="#1B5EA0"/>
</linearGradient>
<linearGradient id="paint20_linear_22293_6873" x1="99.2915" y1="248.625" x2="131.595" y2="248.625" gradientUnits="userSpaceOnUse">
<stop stop-color="#4D93F3"/>
<stop offset="0.1307" stop-color="#4A8FED"/>
<stop offset="0.3009" stop-color="#4085DD"/>
<stop offset="0.4923" stop-color="#3074C2"/>
<stop offset="0.6838" stop-color="#1B5EA0"/>
<stop offset="0.9626" stop-color="#1B5EA0"/>
</linearGradient>
<linearGradient id="paint21_linear_22293_6873" x1="172.537" y1="250.81" x2="214.314" y2="250.81" gradientUnits="userSpaceOnUse">
<stop stop-color="#4D93F3"/>
<stop offset="0.1307" stop-color="#4A8FED"/>
<stop offset="0.3009" stop-color="#4085DD"/>
<stop offset="0.4923" stop-color="#3074C2"/>
<stop offset="0.6838" stop-color="#1B5EA0"/>
<stop offset="0.9626" stop-color="#1B5EA0"/>
</linearGradient>
<linearGradient id="paint22_linear_22293_6873" x1="209.577" y1="248.625" x2="177.274" y2="248.625" gradientUnits="userSpaceOnUse">
<stop stop-color="#4D93F3"/>
<stop offset="0.1307" stop-color="#4A8FED"/>
<stop offset="0.3009" stop-color="#4085DD"/>
<stop offset="0.4923" stop-color="#3074C2"/>
<stop offset="0.6838" stop-color="#1B5EA0"/>
<stop offset="0.9626" stop-color="#1B5EA0"/>
</linearGradient>
<linearGradient id="paint23_linear_22293_6873" x1="243.022" y1="249.732" x2="272.61" y2="249.732" gradientUnits="userSpaceOnUse">
<stop offset="0.2334" stop-color="#E56005"/>
<stop offset="0.4973" stop-color="#DD5404"/>
<stop offset="0.9789" stop-color="#C83302"/>
<stop offset="0.9988" stop-color="#C73102"/>
</linearGradient>
<linearGradient id="paint24_linear_22293_6873" x1="293.025" y1="249.732" x2="322.613" y2="249.732" gradientUnits="userSpaceOnUse">
<stop offset="0.2334" stop-color="#E56005"/>
<stop offset="0.4973" stop-color="#DD5404"/>
<stop offset="0.9789" stop-color="#C83302"/>
<stop offset="0.9988" stop-color="#C73102"/>
</linearGradient>
<linearGradient id="paint25_linear_22293_6873" x1="343.393" y1="249.732" x2="372.982" y2="249.732" gradientUnits="userSpaceOnUse">
<stop offset="0.2334" stop-color="#E56005"/>
<stop offset="0.4973" stop-color="#DD5404"/>
<stop offset="0.9789" stop-color="#C83302"/>
<stop offset="0.9988" stop-color="#C73102"/>
</linearGradient>
<linearGradient id="paint26_linear_22293_6873" x1="243.022" y1="249.733" x2="372.982" y2="249.733" gradientUnits="userSpaceOnUse">
<stop offset="0.2334" stop-color="#E56005"/>
<stop offset="0.4973" stop-color="#DD5404"/>
<stop offset="0.9789" stop-color="#C83302"/>
<stop offset="0.9988" stop-color="#C73102"/>
</linearGradient>
<linearGradient id="paint27_linear_22293_6873" x1="-19.975" y1="250.002" x2="9.61309" y2="250.002" gradientUnits="userSpaceOnUse">
<stop offset="0.2334" stop-color="#E56005"/>
<stop offset="0.4973" stop-color="#DD5404"/>
<stop offset="0.9789" stop-color="#C83302"/>
<stop offset="0.9988" stop-color="#C73102"/>
</linearGradient>
<linearGradient id="paint28_linear_22293_6873" x1="30.3934" y1="250.002" x2="59.9815" y2="250.002" gradientUnits="userSpaceOnUse">
<stop offset="0.2334" stop-color="#E56005"/>
<stop offset="0.4973" stop-color="#DD5404"/>
<stop offset="0.9789" stop-color="#C83302"/>
<stop offset="0.9988" stop-color="#C73102"/>
</linearGradient>
<linearGradient id="paint29_linear_22293_6873" x1="-69.9785" y1="250.002" x2="59.9816" y2="250.002" gradientUnits="userSpaceOnUse">
<stop offset="0.2334" stop-color="#E56005"/>
<stop offset="0.4973" stop-color="#DD5404"/>
<stop offset="0.9789" stop-color="#C83302"/>
<stop offset="0.9988" stop-color="#C73102"/>
</linearGradient>
<linearGradient id="paint30_linear_22293_6873" x1="152.776" y1="350.51" x2="153.277" y2="312.946" gradientUnits="userSpaceOnUse">
<stop stop-color="#4D93F3"/>
<stop offset="0.1307" stop-color="#4A8FED"/>
<stop offset="0.3009" stop-color="#4085DD"/>
<stop offset="0.4923" stop-color="#3074C2"/>
<stop offset="0.6838" stop-color="#1B5EA0"/>
<stop offset="0.9626" stop-color="#1B5EA0"/>
</linearGradient>
<linearGradient id="paint31_linear_22293_6873" x1="144.917" y1="247.072" x2="156.812" y2="247.072" gradientUnits="userSpaceOnUse">
<stop stop-color="#FFBBBC"/>
<stop offset="0.3448" stop-color="#FFB9BA"/>
<stop offset="0.5404" stop-color="#FFB3B1"/>
<stop offset="0.6988" stop-color="#FFA9A4"/>
<stop offset="0.8363" stop-color="#FF9A90"/>
<stop offset="0.8692" stop-color="#FF968A"/>
</linearGradient>
<linearGradient id="paint32_linear_22293_6873" x1="131.874" y1="251.685" x2="151.489" y2="251.685" gradientUnits="userSpaceOnUse">
<stop offset="0.3314" stop-color="#D1316F"/>
<stop offset="0.5463" stop-color="#BE1D59"/>
<stop offset="0.8205" stop-color="#AA0944"/>
<stop offset="0.9988" stop-color="#A3023C"/>
</linearGradient>
<linearGradient id="paint33_linear_22293_6873" x1="245.432" y1="366.827" x2="249.965" y2="307.447" gradientUnits="userSpaceOnUse">
<stop stop-color="#FFBBBC"/>
<stop offset="0.3448" stop-color="#FFB9BA"/>
<stop offset="0.5404" stop-color="#FFB3B1"/>
<stop offset="0.6988" stop-color="#FFA9A4"/>
<stop offset="0.8363" stop-color="#FF9A90"/>
<stop offset="0.8692" stop-color="#FF968A"/>
</linearGradient>
<linearGradient id="paint34_linear_22293_6873" x1="197.182" y1="109.957" x2="257.532" y2="109.957" gradientUnits="userSpaceOnUse">
<stop stop-color="#020FAA"/>
<stop offset="0.0865118" stop-color="#030FA1"/>
<stop offset="0.227" stop-color="#040E89"/>
<stop offset="0.4038" stop-color="#070E62"/>
<stop offset="0.6082" stop-color="#0A0D2C"/>
<stop offset="0.7174" stop-color="#0C0C0C"/>
</linearGradient>
<linearGradient id="paint35_linear_22293_6873" x1="234.893" y1="138.094" x2="265.716" y2="138.094" gradientUnits="userSpaceOnUse">
<stop stop-color="#FFBBBC"/>
<stop offset="0.3448" stop-color="#FFB9BA"/>
<stop offset="0.5404" stop-color="#FFB3B1"/>
<stop offset="0.6988" stop-color="#FFA9A4"/>
<stop offset="0.8363" stop-color="#FF9A90"/>
<stop offset="0.8692" stop-color="#FF968A"/>
</linearGradient>
<linearGradient id="paint36_linear_22293_6873" x1="232.953" y1="129.873" x2="258.879" y2="129.873" gradientUnits="userSpaceOnUse">
<stop offset="0.3314" stop-color="#D1316F"/>
<stop offset="0.5463" stop-color="#BE1D59"/>
<stop offset="0.8205" stop-color="#AA0944"/>
<stop offset="0.9988" stop-color="#A3023C"/>
</linearGradient>
<linearGradient id="paint37_linear_22293_6873" x1="210.912" y1="257.545" x2="257.548" y2="257.545" gradientUnits="userSpaceOnUse">
<stop offset="0.3314" stop-color="#D1316F"/>
<stop offset="0.5463" stop-color="#BE1D59"/>
<stop offset="0.8205" stop-color="#AA0944"/>
<stop offset="0.9988" stop-color="#A3023C"/>
</linearGradient>
<linearGradient id="paint38_linear_22293_6873" x1="153.544" y1="229.353" x2="237.427" y2="229.353" gradientUnits="userSpaceOnUse">
<stop offset="0.3314" stop-color="#D1316F"/>
<stop offset="0.5463" stop-color="#BE1D59"/>
<stop offset="0.8205" stop-color="#AA0944"/>
<stop offset="0.9988" stop-color="#A3023C"/>
</linearGradient>
<linearGradient id="paint39_linear_22293_6873" x1="255.058" y1="134.931" x2="281.996" y2="134.931" gradientUnits="userSpaceOnUse">
<stop stop-color="#FFBBBC"/>
<stop offset="0.3448" stop-color="#FFB9BA"/>
<stop offset="0.5404" stop-color="#FFB3B1"/>
<stop offset="0.6988" stop-color="#FFA9A4"/>
<stop offset="0.8363" stop-color="#FF9A90"/>
<stop offset="0.8692" stop-color="#FF968A"/>
</linearGradient>
<linearGradient id="paint40_linear_22293_6873" x1="198.965" y1="160.551" x2="262.867" y2="160.551" gradientUnits="userSpaceOnUse">
<stop offset="0.4256" stop-color="#FFD438"/>
<stop offset="0.5231" stop-color="#F9C928"/>
<stop offset="0.6915" stop-color="#F1B912"/>
<stop offset="0.8534" stop-color="#ECB005"/>
<stop offset="1" stop-color="#EAAD00"/>
</linearGradient>
<linearGradient id="paint41_linear_22293_6873" x1="229.331" y1="127.517" x2="228.287" y2="103.321" gradientUnits="userSpaceOnUse">
<stop stop-color="#FFBBBC"/>
<stop offset="0.3448" stop-color="#FFB9BA"/>
<stop offset="0.5404" stop-color="#FFB3B1"/>
<stop offset="0.6988" stop-color="#FFA9A4"/>
<stop offset="0.8363" stop-color="#FF9A90"/>
<stop offset="0.8692" stop-color="#FF968A"/>
</linearGradient>
<linearGradient id="paint42_linear_22293_6873" x1="194.968" y1="139.095" x2="217.256" y2="139.095" gradientUnits="userSpaceOnUse">
<stop stop-color="#FFBBBC"/>
<stop offset="0.3448" stop-color="#FFB9BA"/>
<stop offset="0.5404" stop-color="#FFB3B1"/>
<stop offset="0.6988" stop-color="#FFA9A4"/>
<stop offset="0.8363" stop-color="#FF9A90"/>
<stop offset="0.8692" stop-color="#FF968A"/>
</linearGradient>
<linearGradient id="paint43_linear_22293_6873" x1="219.758" y1="94.1356" x2="241.685" y2="94.1356" gradientUnits="userSpaceOnUse">
<stop stop-color="#FFBBBC"/>
<stop offset="0.3448" stop-color="#FFB9BA"/>
<stop offset="0.5404" stop-color="#FFB3B1"/>
<stop offset="0.6988" stop-color="#FFA9A4"/>
<stop offset="0.8363" stop-color="#FF9A90"/>
<stop offset="0.8692" stop-color="#FF968A"/>
</linearGradient>
<linearGradient id="paint44_linear_22293_6873" x1="242.865" y1="337.668" x2="271.533" y2="337.668" gradientUnits="userSpaceOnUse">
<stop offset="0.3314" stop-color="#D1316F"/>
<stop offset="0.5463" stop-color="#BE1D59"/>
<stop offset="0.8205" stop-color="#AA0944"/>
<stop offset="0.9988" stop-color="#A3023C"/>
</linearGradient>
<linearGradient id="paint45_linear_22293_6873" x1="192.238" y1="129.873" x2="218.163" y2="129.873" gradientUnits="userSpaceOnUse">
<stop offset="0.3314" stop-color="#D1316F"/>
<stop offset="0.5463" stop-color="#BE1D59"/>
<stop offset="0.8205" stop-color="#AA0944"/>
<stop offset="0.9988" stop-color="#A3023C"/>
</linearGradient>
<linearGradient id="paint46_linear_22293_6873" x1="189.595" y1="130.955" x2="205.853" y2="130.955" gradientUnits="userSpaceOnUse">
<stop stop-color="#FFBBBC"/>
<stop offset="0.3448" stop-color="#FFB9BA"/>
<stop offset="0.5404" stop-color="#FFB3B1"/>
<stop offset="0.6988" stop-color="#FFA9A4"/>
<stop offset="0.8363" stop-color="#FF9A90"/>
<stop offset="0.8692" stop-color="#FF968A"/>
</linearGradient>
</defs>
</svg>
