<svg width="196" height="347" viewBox="0 0 196 347" fill="none" xmlns="http://www.w3.org/2000/svg">
<path d="M116.345 37.3431C113.953 37.9174 111.456 37.8896 109.078 37.2621C106.699 36.6346 104.513 35.427 102.716 33.7474C100.919 32.0678 99.5659 29.9687 98.7789 27.638C97.9919 25.3074 97.7952 22.8179 98.2064 20.3926C98.1439 20.453 98.0779 20.5097 98.0087 20.5623C97.5187 20.9351 96.9062 21.0733 95.6812 21.3498L94.5699 21.6018C90.2649 22.5766 88.1124 23.0631 87.5997 24.7098C87.0887 26.3548 88.5552 28.0716 91.4899 31.5033L92.2494 32.3906C93.0824 33.3653 93.5007 33.8536 93.6879 34.4556C93.8752 35.0593 93.8122 35.7103 93.6862 37.0106L93.5707 38.1953C93.1279 42.7751 92.9057 45.0641 94.2462 46.0808C95.5867 47.0993 97.6027 46.1718 101.631 44.3151L102.676 43.8356C103.82 43.3071 104.393 43.0446 105 43.0446C105.607 43.0446 106.179 43.3071 107.326 43.8356L108.367 44.3151C112.397 46.1701 114.413 47.0976 115.752 46.0826C117.094 45.0641 116.872 42.7751 116.429 38.1953L116.345 37.3431Z" fill="#FF7200"/>
<path d="M100.018 17.464L99.4437 18.493C98.8137 19.6235 98.4987 20.1887 98.0087 20.5615C98.0787 20.509 98.1435 20.453 98.2065 20.3917C97.7951 22.8173 97.9918 25.3069 98.7789 27.6378C99.566 29.9686 100.919 32.0679 102.716 33.7475C104.514 35.4271 106.7 36.6347 109.079 37.262C111.458 37.8894 113.955 37.917 116.347 37.3423L116.312 37.0098C116.188 35.7095 116.125 35.0585 116.312 34.4548C116.499 33.8528 116.916 33.3645 117.75 32.3898L118.51 31.5025C121.445 28.0725 122.911 26.3558 122.398 24.709C121.887 23.0623 119.735 22.574 115.43 21.601L114.317 21.349C113.094 21.0725 112.481 20.9342 111.989 20.5615C111.499 20.1887 111.184 19.6235 110.554 18.493L109.982 17.464C107.765 13.488 106.657 11.5 105 11.5C103.343 11.5 102.235 13.488 100.018 17.464Z" fill="#FFA000"/>
<path fill-rule="evenodd" clip-rule="evenodd" d="M24.942 245.935L19.5018 245.243L13.0474 245.059L14.0155 256.169L17.4272 254.187L23.144 255.893L24.942 245.935Z" fill="url(#paint0_linear_22550_8490)"/>
<path fill-rule="evenodd" clip-rule="evenodd" d="M19.5938 245.289C13.8309 246.257 15.0757 250.36 14.0154 256.215C10.4654 258.612 8.25248 263.499 5.34798 267.556C4.33371 268.986 1.61361 269.723 0 268.479C2.9967 259.673 6.27004 250.268 8.94402 241.416C14.9374 243.721 12.4478 242.753 19.5938 245.289Z" fill="url(#paint1_linear_22550_8490)"/>
<path fill-rule="evenodd" clip-rule="evenodd" d="M121.113 313.568L110.325 315.92L111.431 336.85L116.825 343.074L123.464 337.45L120.467 335.652L121.113 313.568Z" fill="url(#paint2_linear_22550_8490)"/>
<path fill-rule="evenodd" clip-rule="evenodd" d="M104.193 74.5689C95.5716 72.0793 91.4223 78.5338 88.4256 79.087C79.9426 79.7786 84.3224 95.0848 75.7933 99.0958C61.5475 105.781 61.0404 135.148 79.0667 146.951C83.3082 149.763 104.654 156.632 111.938 150.685C134.483 132.244 124.663 118.643 115.35 103.706C111.846 98.1276 124.847 80.5162 104.193 74.5689Z" fill="url(#paint3_linear_22550_8490)"/>
<path fill-rule="evenodd" clip-rule="evenodd" d="M105.3 129.984L124.34 166.821L133.838 161.104L117.379 121.87C115.166 116.614 108.896 115.831 105.715 116.891C102.58 118.597 101.842 123.253 105.3 129.984Z" fill="url(#paint4_linear_22550_8490)"/>
<path fill-rule="evenodd" clip-rule="evenodd" d="M107.42 116.523C112.169 115.139 116.641 118.044 118.577 122.562L127.014 142.386C122.542 149.486 112.63 153.128 106.36 148.841L101.381 127.68C100.228 122.885 102.672 117.952 107.42 116.523Z" fill="url(#paint5_linear_22550_8490)"/>
<path fill-rule="evenodd" clip-rule="evenodd" d="M125.677 199.831C122.634 230.582 123.602 287.381 120.975 320.252C120.744 323.111 118.301 325.278 115.442 325.139C113.137 325.047 111.155 323.526 110.509 321.313C107.328 310.571 99.5367 278.345 102.395 258.705C104.654 243.168 79.0669 196.973 79.0669 196.973L125.677 199.831Z" fill="url(#paint6_linear_22550_8490)"/>
<path fill-rule="evenodd" clip-rule="evenodd" d="M105.576 194.438C100.413 214.677 99.5827 238.789 92.4368 265.575C85.6135 291.116 29.3677 260.273 23.1437 255.893C20.2392 252.62 22.0834 246.626 24.9418 245.935C24.9418 245.935 54.9088 238.328 71.7825 257C78.3753 247.133 61.0866 213.017 72.1975 190.242L105.576 194.438Z" fill="url(#paint7_linear_22550_8490)"/>
<path fill-rule="evenodd" clip-rule="evenodd" d="M124.156 160.137C128.167 148.611 134.852 138.745 134.898 126.759C134.944 121.364 133.838 121.318 135.036 112.743C135.543 110.346 137.618 110.669 137.48 115.694C137.434 117.353 138.125 117.123 139.232 116.201C145.041 111.36 144.534 103.015 147.669 104.491C150.527 109.654 151.126 111.222 148.222 117.492C146.931 120.258 143.934 124.177 142.136 129.571C140.523 136.947 139.14 153.544 137.618 165.531C136.327 176.319 118.946 175.121 124.156 160.137Z" fill="url(#paint8_linear_22550_8490)"/>
<path fill-rule="evenodd" clip-rule="evenodd" d="M79.8967 117.12L105.853 116.844L115.857 125.511C115.857 125.511 123.695 131.366 121.251 138.789C118.808 146.165 118.162 150.176 117.794 162.578C117.425 174.98 123.741 174.841 130.979 199.368C119.592 217.81 70.9527 213.937 67.0801 195.173C77.9143 172.629 82.709 163.039 79.8967 117.12Z" fill="url(#paint9_linear_22550_8490)"/>
<path fill-rule="evenodd" clip-rule="evenodd" d="M103.179 116.891C108.619 130.168 94.4653 126.987 89.5322 117.029L91.9757 116.983V100.201H101.289V116.937L103.179 116.891Z" fill="url(#paint10_linear_22550_8490)"/>
<path fill-rule="evenodd" clip-rule="evenodd" d="M70.6303 125.192L63.0693 168.621L73.2581 165.347L84.7839 128.557C88.5182 118.368 73.3503 109.563 70.6303 125.192Z" fill="url(#paint11_linear_22550_8490)"/>
<path fill-rule="evenodd" clip-rule="evenodd" d="M108.757 86.9236C108.434 89.9665 108.02 90.6119 108.296 93.0092C108.481 94.8073 110.601 95.0839 109.587 102.691C108.296 110.713 105.299 110.989 98.3379 107.255C91.6068 103.659 92.4828 101.815 92.0218 100.201C85.1524 99.9247 87.8725 87.7074 93.5431 94.8995C95.7561 95.4527 92.6211 89.1827 93.9581 86.647C96.4938 83.1893 104.423 91.7645 108.757 86.9236Z" fill="url(#paint12_linear_22550_8490)"/>
<path fill-rule="evenodd" clip-rule="evenodd" d="M111.339 335.512C114.059 340.675 117.563 338.232 123.464 337.448C126.83 340.076 132.224 340.675 136.973 342.151C138.632 342.658 140.2 345.009 139.508 346.945C130.196 346.853 120.283 346.669 111.017 346.853C111.339 340.445 111.201 343.119 111.339 335.512Z" fill="url(#paint13_linear_22550_8490)"/>
<path fill-rule="evenodd" clip-rule="evenodd" d="M79.943 116.523C75.1943 115.139 70.7223 118.044 68.786 122.562L60.3491 142.386C64.8211 149.486 74.7333 153.128 81.0033 148.841L85.9825 127.68C87.1351 122.885 84.6916 117.952 79.943 116.523Z" fill="url(#paint14_linear_22550_8490)"/>
<path fill-rule="evenodd" clip-rule="evenodd" d="M73.8111 158.477C72.1514 146.398 67.495 135.379 69.754 123.623C70.7683 118.321 71.8287 118.505 72.3819 109.838C72.3819 107.395 70.2612 107.302 69.3852 112.281C69.1086 113.895 68.4632 113.572 67.5411 112.466C62.7925 106.611 64.9132 98.5427 61.5477 99.3265C57.7672 103.845 56.8452 105.274 58.4588 112.005C59.1964 114.955 61.3633 119.427 62.0548 125.006C62.1931 132.567 60.3029 149.118 59.4731 161.151C58.7354 171.985 75.978 174.198 73.8111 158.477Z" fill="url(#paint15_linear_22550_8490)"/>
<path fill-rule="evenodd" clip-rule="evenodd" d="M163.695 39.9103L179.742 35.649C181.89 35.0786 184.113 36.3683 184.684 38.5163L188.945 54.5627C189.516 56.7107 188.224 58.9349 186.077 59.5047L170.03 63.7659C167.883 64.3363 165.659 63.0466 165.089 60.8989L160.827 44.852C160.257 42.7045 161.548 40.48 163.695 39.9103Z" fill="#631AEC"/>
<path fill-rule="evenodd" clip-rule="evenodd" d="M166.48 60.3981L162.282 44.5925C161.902 43.1602 162.763 41.6787 164.194 41.2984L180 37.1007C181.432 36.7204 182.914 37.5805 183.295 39.013L187.492 54.8177C187.872 56.2499 187.011 57.7327 185.58 58.1124L169.775 62.3095C168.343 62.6898 166.86 61.8297 166.48 60.3981Z" fill="white"/>
<path fill-rule="evenodd" clip-rule="evenodd" d="M177.704 45.6724L185.194 53.6054C185.53 53.9604 185.644 54.429 185.51 54.8989C185.376 55.3684 185.032 55.7061 184.56 55.8322L169.526 59.8243C169.055 59.9492 168.589 59.8263 168.239 59.4848C167.89 59.1435 167.757 58.6804 167.872 58.2049L169.272 52.423C169.392 51.9299 169.746 51.5682 170.235 51.4388C170.726 51.3081 171.212 51.447 171.56 51.8149L172.88 53.2129C173.02 53.3608 173.214 53.4164 173.411 53.3637C173.607 53.3123 173.748 53.1674 173.796 52.9699L175.416 46.2796C175.535 45.7874 175.889 45.4255 176.379 45.2961C176.87 45.165 177.356 45.3036 177.704 45.6724Z" fill="#631AEC"/>
<path fill-rule="evenodd" clip-rule="evenodd" d="M166.957 43.143C168.199 42.8136 169.472 43.5526 169.802 44.7946C170.132 46.036 169.393 47.3096 168.151 47.6391C166.909 47.9691 165.636 47.2299 165.306 45.9881C164.977 44.747 165.716 43.4727 166.957 43.143Z" fill="#631AEC"/>
<path fill-rule="evenodd" clip-rule="evenodd" d="M149.969 40.8585L142.198 33.2061C141.158 32.1818 139.469 32.1953 138.445 33.235L130.793 41.0059C129.768 42.0462 129.781 43.7347 130.822 44.759L138.592 52.4115C139.633 53.4358 141.321 53.4235 142.345 52.3832L149.998 44.6116C151.022 43.5713 151.01 41.8822 149.969 40.8585Z" fill="#631AEC"/>
<path fill-rule="evenodd" clip-rule="evenodd" d="M141.715 51.6448L149.252 43.9899C149.935 43.2963 149.926 42.1708 149.234 41.4891L141.579 33.9506C140.886 33.2677 139.759 33.2764 139.076 33.9705L131.539 41.6248C130.857 42.3177 130.866 43.4432 131.559 44.1268L139.213 51.6644C139.906 52.3464 141.032 52.3377 141.715 51.6448Z" fill="white"/>
<path fill-rule="evenodd" clip-rule="evenodd" d="M140.101 39.5918L133.245 41.682C132.938 41.7755 132.721 42.0059 132.645 42.3168C132.568 42.6282 132.654 42.9333 132.883 43.1587C135.309 45.5484 137.736 47.9376 140.164 50.3277C140.392 50.5529 140.697 50.6348 141.008 50.5533C141.318 50.4722 141.545 50.2509 141.634 49.9424L142.716 46.1871C142.808 45.8677 142.724 45.5457 142.487 45.3111C142.25 45.0786 141.927 44.999 141.608 45.0959L140.4 45.4643C140.273 45.5032 140.143 45.4718 140.049 45.3778C139.953 45.2843 139.92 45.1564 139.957 45.0274L141.209 40.683C141.301 40.3629 141.217 40.041 140.98 39.8079C140.742 39.5736 140.419 39.4942 140.101 39.5918Z" fill="#631AEC"/>
<path fill-rule="evenodd" clip-rule="evenodd" d="M147.055 41.6437C146.454 41.0508 145.487 41.0585 144.895 41.6603C144.303 42.2613 144.31 43.2289 144.911 43.8209C145.513 44.4132 146.48 44.4055 147.072 43.8037C147.664 43.2033 147.657 42.236 147.055 41.6437Z" fill="#631AEC"/>
<path fill-rule="evenodd" clip-rule="evenodd" d="M127.296 74.6755C133.244 70.0303 141.831 71.0884 146.476 77.0356C151.12 82.9848 150.063 91.5711 144.114 96.2168C138.166 100.861 129.579 99.8039 124.935 93.855C120.29 87.9063 121.347 79.3193 127.296 74.6755Z" fill="#3EA5EC"/>
<path fill-rule="evenodd" clip-rule="evenodd" d="M129.924 80.6989C129.88 80.6811 129.83 80.703 129.812 80.7477L127.446 86.5981C127.428 86.6415 127.449 86.6923 127.493 86.7101L130.409 87.8894C130.454 87.9075 130.505 87.8856 130.522 87.8422L132.888 81.9918C132.906 81.9471 132.885 81.8963 132.84 81.8783L129.924 80.6989ZM143.012 86.002L142.994 85.9614C142.897 85.7319 142.715 85.5509 142.485 85.4577L138.387 83.8007L138.783 83.4645C139.15 83.1519 139.474 82.799 139.743 82.3997C140.228 81.6799 140.491 80.8728 140.582 80.0107C140.615 79.7089 140.556 79.4097 140.387 79.1544C140.275 78.9843 140.119 78.8423 139.934 78.7548C139.758 78.6706 139.56 78.6344 139.368 78.6633C139.15 78.697 138.965 78.805 138.82 78.9699L137.518 80.4532L133.877 82.1074L131.505 87.9731L133.61 90.1869L133.616 90.1938C133.625 90.2048 133.637 90.2126 133.65 90.2177L138.451 92.1594C138.682 92.2528 138.938 92.2488 139.166 92.1531C139.395 92.0556 139.576 91.8735 139.669 91.6431L139.74 91.4683C139.789 91.3477 139.812 91.2189 139.808 91.0883L139.795 90.7064L140.173 90.768C140.667 90.8495 140.972 90.6885 141.165 90.2099L141.236 90.0357C141.316 89.8385 141.324 89.6238 141.264 89.4205L141.171 89.1043L141.545 89.0121C141.788 88.948 142.036 88.8106 142.135 88.5662L142.206 88.3907C142.29 88.184 142.317 87.9499 142.255 87.7334L142.181 87.4679L142.434 87.3588C142.66 87.2617 142.838 87.0802 142.931 86.8505L143.001 86.6763C143.089 86.4593 143.092 86.2201 143.012 86.002Z" fill="white"/>
<path fill-rule="evenodd" clip-rule="evenodd" d="M147.568 55.7941C151.671 52.5903 157.595 53.3196 160.799 57.4233C164.002 61.527 163.274 67.4507 159.17 70.6545C155.067 73.8576 149.143 73.1283 145.939 69.0253C142.735 64.9222 143.464 58.9988 147.568 55.7941Z" fill="#FB394B"/>
<path d="M154.064 61.5058C155.013 60.6682 155.75 60.3554 156.8 60.7799C157.959 61.2486 158.52 62.5698 158.051 63.7287C157.202 65.8288 155.418 66.6852 151.786 67.138C149.771 64.4363 148.802 62.4319 149.651 60.3319C150.12 59.173 151.442 58.613 152.601 59.0817C153.65 59.5062 153.963 60.2437 154.064 61.5058Z" fill="white"/>
<path fill-rule="evenodd" clip-rule="evenodd" d="M40.5986 20.4231L24.7236 15.5612C22.5988 14.9104 20.3284 16.1156 19.677 18.2406L14.8158 34.1153C14.1643 36.2404 15.3713 38.5116 17.4958 39.1617L33.3708 44.0236C35.4956 44.6744 37.7659 43.4692 38.4167 41.3444L43.2793 25.4692C43.9294 23.3447 42.7231 21.0732 40.5986 20.4231Z" fill="#631AEC"/>
<path fill-rule="evenodd" clip-rule="evenodd" d="M37.0458 40.7933L41.8351 25.1568C42.2688 23.7398 41.4646 22.227 40.0483 21.7931L24.4118 17.0038C22.9955 16.5699 21.4818 17.3736 21.0475 18.7908L16.2586 34.4264C15.8249 35.8434 16.6295 37.3575 18.0456 37.7908L33.6819 42.5794C35.0982 43.0133 36.6119 42.2096 37.0458 40.7933Z" fill="white"/>
<path fill-rule="evenodd" clip-rule="evenodd" d="M26.3837 25.6555L18.6009 33.3011C18.2517 33.6432 18.1199 34.1072 18.2365 34.5818C18.3522 35.0559 18.683 35.4063 19.1499 35.5502L34.0233 40.105C34.4897 40.2475 34.9596 40.1421 35.3227 39.8141C35.6836 39.4861 35.8344 39.0284 35.7373 38.549L34.5553 32.7184C34.4548 32.2212 34.1145 31.8465 33.63 31.6987C33.1451 31.5497 32.6536 31.6701 32.2921 32.0247L30.9206 33.3721C30.7752 33.5146 30.5789 33.5628 30.3845 33.5028C30.1906 33.444 30.0551 33.2939 30.0146 33.0948L28.6474 26.3483C28.5464 25.852 28.2068 25.477 27.7223 25.3292C27.2365 25.1798 26.7457 25.3 26.3837 25.6555Z" fill="#631AEC"/>
<path fill-rule="evenodd" clip-rule="evenodd" d="M37.2174 23.5326C35.9889 23.1567 34.689 23.8473 34.3125 25.076C33.9357 26.3041 34.6265 27.6046 35.855 27.9805C37.0837 28.3571 38.3843 27.6662 38.7602 26.4377C39.1363 25.2099 38.4452 23.9087 37.2174 23.5326Z" fill="#631AEC"/>
<path fill-rule="evenodd" clip-rule="evenodd" d="M54.2802 21.8879L62.3335 14.5332C63.4116 13.5487 65.0986 13.6258 66.0828 14.7032L73.4375 22.7565C74.422 23.8346 74.3456 25.5214 73.2675 26.5059L65.2142 33.8606C64.1361 34.8451 62.4496 34.7693 61.4651 33.6912L54.1101 25.6372C53.1256 24.5592 53.2018 22.8717 54.2802 21.8879Z" fill="#631AEC"/>
<path fill-rule="evenodd" clip-rule="evenodd" d="M62.1228 32.9784L54.8788 25.0453C54.2225 24.3266 54.2737 23.2022 54.9914 22.547L62.924 15.3018C63.6427 14.6455 64.7678 14.6965 65.4243 15.4158L72.668 23.3482C73.3241 24.0663 73.2729 25.1907 72.5544 25.8477L64.6222 33.092C63.9039 33.7475 62.7788 33.6965 62.1228 32.9784Z" fill="white"/>
<path fill-rule="evenodd" clip-rule="evenodd" d="M64.1889 20.9942L70.9611 23.3407C71.264 23.4458 71.4731 23.6842 71.5373 23.9977C71.6017 24.3118 71.5043 24.6134 71.2671 24.8301C68.7529 27.1267 66.2377 29.423 63.7222 31.7201C63.4856 31.9365 63.1773 32.0069 62.87 31.9138C62.5635 31.821 62.3444 31.5913 62.2669 31.2797L61.3269 27.4864C61.2477 27.1637 61.3434 26.8452 61.589 26.6196C61.8347 26.3962 62.161 26.3288 62.4755 26.4377L63.6685 26.8513C63.7948 26.8949 63.925 26.8684 64.0234 26.778C64.1219 26.6882 64.1604 26.5616 64.128 26.4313L63.0403 22.0429C62.9608 21.7196 63.0565 21.401 63.302 21.177C63.5485 20.9518 63.8741 20.8847 64.1889 20.9942Z" fill="#631AEC"/>
<path fill-rule="evenodd" clip-rule="evenodd" d="M57.162 22.7819C57.7854 22.212 58.7512 22.2561 59.3205 22.8797C59.8895 23.5026 59.8457 24.4692 59.2228 25.0382C58.5992 25.6074 57.6333 25.5633 57.0641 24.9397C56.4953 24.3175 56.5385 23.3511 57.162 22.7819Z" fill="#631AEC"/>
<path fill-rule="evenodd" clip-rule="evenodd" d="M75.6652 56.5347C69.896 51.669 61.2749 52.4033 56.4096 58.1716C51.5449 63.9419 52.2782 72.5619 58.0482 77.4281C63.8176 82.2923 72.4385 81.5594 77.3025 75.7894C82.168 70.0196 81.4345 61.3989 75.6652 56.5347Z" fill="#3EA5EC"/>
<path fill-rule="evenodd" clip-rule="evenodd" d="M72.8119 62.4534C72.8565 62.4373 72.9061 62.4611 72.9225 62.5064L75.0666 68.4417C75.0825 68.4857 75.0596 68.5357 75.0149 68.5518L72.0564 69.6206C72.011 69.637 71.9615 69.6132 71.9456 69.5692L69.8014 63.6339C69.7851 63.5886 69.808 63.5386 69.8533 63.5222L72.8119 62.4534ZM59.5339 67.2604L59.5532 67.2205C59.659 66.9949 59.8472 66.8208 60.0809 66.7364L64.2378 65.2347L63.8556 64.8839C63.5006 64.5576 63.1895 64.1928 62.9363 63.7837C62.4781 63.0461 62.2461 62.2297 62.1869 61.3648C62.1661 61.062 62.236 60.7652 62.414 60.5165C62.5327 60.3506 62.6943 60.2147 62.8826 60.1342C63.061 60.0566 63.2599 60.0279 63.4516 60.0641C63.668 60.1059 63.8485 60.2207 63.9869 60.391L65.2324 61.9223L68.8087 63.7122L70.9585 69.663L68.7715 71.796L68.7652 71.8027C68.7559 71.8134 68.7438 71.8207 68.7309 71.8254L63.8599 73.585C63.6256 73.6697 63.3696 73.656 63.1453 73.5519C62.9204 73.4458 62.7461 73.257 62.6616 73.0233L62.5976 72.8459C62.5534 72.7236 62.5351 72.594 62.5436 72.4636L62.5714 72.0825L62.1911 72.1299C61.6949 72.1928 61.3962 72.0204 61.2208 71.5348L61.1569 71.3581C61.0847 71.158 61.0839 70.9432 61.1518 70.7422L61.257 70.4298L60.8864 70.3236C60.6455 70.2503 60.403 70.1038 60.3134 69.8558L60.2491 69.6778C60.1733 69.468 60.1551 69.2331 60.2249 69.0191L60.3093 68.7565L60.0601 68.638C59.8376 68.5325 59.6672 68.3445 59.583 68.1114L59.5191 67.9347C59.4396 67.7146 59.4454 67.4753 59.5339 67.2604Z" fill="white"/>
<path fill-rule="evenodd" clip-rule="evenodd" d="M56.1177 36.9033C52.1375 33.5474 46.1908 34.0533 42.8349 38.0336C39.479 42.0139 39.9843 47.9608 43.9645 51.3167C47.9446 54.6719 53.8913 54.166 57.2474 50.1864C60.6036 46.2067 60.0976 40.26 56.1177 36.9033Z" fill="#FB394B"/>
<path d="M49.4111 42.3665C48.4942 41.4938 47.7689 41.1535 46.704 41.5382C45.5283 41.9629 44.9182 43.2621 45.3429 44.4378C46.1126 46.5683 47.8629 47.4913 51.4752 48.0804C53.5909 45.4564 54.6341 43.4899 53.8644 41.3593C53.4397 40.1837 52.1401 39.5744 50.9644 39.9991C49.8995 40.3838 49.5592 41.1091 49.4111 42.3665Z" fill="white"/>
<defs>
<linearGradient id="paint0_linear_22550_8490" x1="13.0442" y1="250.631" x2="24.94" y2="250.631" gradientUnits="userSpaceOnUse">
<stop stop-color="#FFBBBC"/>
<stop offset="0.3448" stop-color="#FFB9BA"/>
<stop offset="0.5404" stop-color="#FFB3B1"/>
<stop offset="0.6988" stop-color="#FFA9A4"/>
<stop offset="0.8363" stop-color="#FF9A90"/>
<stop offset="0.8692" stop-color="#FF968A"/>
</linearGradient>
<linearGradient id="paint1_linear_22550_8490" x1="0.00110648" y1="255.243" x2="19.6163" y2="255.243" gradientUnits="userSpaceOnUse">
<stop offset="0.3314" stop-color="#FF7200"/>
<stop offset="0.5463" stop-color="#BE1D59"/>
<stop offset="0.8205" stop-color="#AA0944"/>
<stop offset="0.9988" stop-color="#FF7200"/>
</linearGradient>
<linearGradient id="paint2_linear_22550_8490" x1="113.56" y1="370.386" x2="118.093" y2="311.006" gradientUnits="userSpaceOnUse">
<stop stop-color="#FFBBBC"/>
<stop offset="0.3448" stop-color="#FFB9BA"/>
<stop offset="0.5404" stop-color="#FFB3B1"/>
<stop offset="0.6988" stop-color="#FFA9A4"/>
<stop offset="0.8363" stop-color="#FF9A90"/>
<stop offset="0.8692" stop-color="#FF968A"/>
</linearGradient>
<linearGradient id="paint3_linear_22550_8490" x1="65.3094" y1="113.516" x2="125.659" y2="113.516" gradientUnits="userSpaceOnUse">
<stop stop-color="#020FAA"/>
<stop offset="0.0865118" stop-color="#030FA1"/>
<stop offset="0.227" stop-color="#040E89"/>
<stop offset="0.4038" stop-color="#070E62"/>
<stop offset="0.6082" stop-color="#0A0D2C"/>
<stop offset="0.7174" stop-color="#0C0C0C"/>
</linearGradient>
<linearGradient id="paint4_linear_22550_8490" x1="103.021" y1="141.653" x2="133.843" y2="141.653" gradientUnits="userSpaceOnUse">
<stop stop-color="#FFBBBC"/>
<stop offset="0.3448" stop-color="#FFB9BA"/>
<stop offset="0.5404" stop-color="#FFB3B1"/>
<stop offset="0.6988" stop-color="#FFA9A4"/>
<stop offset="0.8363" stop-color="#FF9A90"/>
<stop offset="0.8692" stop-color="#FF968A"/>
</linearGradient>
<linearGradient id="paint5_linear_22550_8490" x1="101.08" y1="133.432" x2="127.006" y2="133.432" gradientUnits="userSpaceOnUse">
<stop offset="0.3314" stop-color="#4285F4"/>
<stop offset="0.5463" stop-color="#156CFD"/>
<stop offset="0.8205" stop-color="#007AFF"/>
<stop offset="0.9988" stop-color="#007AFF"/>
</linearGradient>
<linearGradient id="paint6_linear_22550_8490" x1="79.0397" y1="261.104" x2="125.675" y2="261.104" gradientUnits="userSpaceOnUse">
<stop offset="0.3314" stop-color="#4285F4"/>
<stop offset="0.5463" stop-color="#156CFD"/>
<stop offset="0.8205" stop-color="#4285F4"/>
<stop offset="0.9988" stop-color="#4285F4"/>
</linearGradient>
<linearGradient id="paint7_linear_22550_8490" x1="21.6711" y1="232.912" x2="105.554" y2="232.912" gradientUnits="userSpaceOnUse">
<stop offset="0.3314" stop-color="#156CFD"/>
<stop offset="0.5463" stop-color="#007AFF"/>
<stop offset="0.8205" stop-color="#156CFD"/>
<stop offset="0.9988" stop-color="#156CFD"/>
</linearGradient>
<linearGradient id="paint8_linear_22550_8490" x1="123.185" y1="138.49" x2="150.124" y2="138.49" gradientUnits="userSpaceOnUse">
<stop stop-color="#FFBBBC"/>
<stop offset="0.3448" stop-color="#FFB9BA"/>
<stop offset="0.5404" stop-color="#FFB3B1"/>
<stop offset="0.6988" stop-color="#FFA9A4"/>
<stop offset="0.8363" stop-color="#FF9A90"/>
<stop offset="0.8692" stop-color="#FF968A"/>
</linearGradient>
<linearGradient id="paint9_linear_22550_8490" x1="67.0927" y1="164.11" x2="130.994" y2="164.11" gradientUnits="userSpaceOnUse">
<stop offset="0.4256" stop-color="#27AE60"/>
<stop offset="0.5231" stop-color="#27AE60"/>
<stop offset="0.6915" stop-color="#27AE60"/>
<stop offset="0.8534" stop-color="#27AE60"/>
<stop offset="1" stop-color="#27AE60"/>
</linearGradient>
<linearGradient id="paint10_linear_22550_8490" x1="97.4588" y1="131.075" x2="96.4144" y2="106.88" gradientUnits="userSpaceOnUse">
<stop stop-color="#FFBBBC"/>
<stop offset="0.3448" stop-color="#FFB9BA"/>
<stop offset="0.5404" stop-color="#FFB3B1"/>
<stop offset="0.6988" stop-color="#FFA9A4"/>
<stop offset="0.8363" stop-color="#FF9A90"/>
<stop offset="0.8692" stop-color="#FF968A"/>
</linearGradient>
<linearGradient id="paint11_linear_22550_8490" x1="63.0957" y1="142.653" x2="85.3838" y2="142.653" gradientUnits="userSpaceOnUse">
<stop stop-color="#FFBBBC"/>
<stop offset="0.3448" stop-color="#FFB9BA"/>
<stop offset="0.5404" stop-color="#FFB3B1"/>
<stop offset="0.6988" stop-color="#FFA9A4"/>
<stop offset="0.8363" stop-color="#FF9A90"/>
<stop offset="0.8692" stop-color="#FF968A"/>
</linearGradient>
<linearGradient id="paint12_linear_22550_8490" x1="87.8851" y1="97.6942" x2="109.812" y2="97.6942" gradientUnits="userSpaceOnUse">
<stop stop-color="#FFBBBC"/>
<stop offset="0.3448" stop-color="#FFB9BA"/>
<stop offset="0.5404" stop-color="#FFB3B1"/>
<stop offset="0.6988" stop-color="#FFA9A4"/>
<stop offset="0.8363" stop-color="#FF9A90"/>
<stop offset="0.8692" stop-color="#FF968A"/>
</linearGradient>
<linearGradient id="paint13_linear_22550_8490" x1="110.993" y1="341.226" x2="139.66" y2="341.226" gradientUnits="userSpaceOnUse">
<stop offset="0.3314" stop-color="#FF7200"/>
<stop offset="0.5463" stop-color="#BE1D59"/>
<stop offset="0.8205" stop-color="#AA0944"/>
<stop offset="0.9988" stop-color="#FF7200"/>
</linearGradient>
<linearGradient id="paint14_linear_22550_8490" x1="60.3656" y1="133.432" x2="86.2908" y2="133.432" gradientUnits="userSpaceOnUse">
<stop offset="0.3314" stop-color="#007AFF"/>
<stop offset="0.5463" stop-color="#4285F4"/>
<stop offset="0.8205" stop-color="#156CFD"/>
<stop offset="0.9988" stop-color="#007AFF"/>
</linearGradient>
<linearGradient id="paint15_linear_22550_8490" x1="57.7221" y1="134.513" x2="73.9808" y2="134.513" gradientUnits="userSpaceOnUse">
<stop stop-color="#FFBBBC"/>
<stop offset="0.3448" stop-color="#FFB9BA"/>
<stop offset="0.5404" stop-color="#FFB3B1"/>
<stop offset="0.6988" stop-color="#FFA9A4"/>
<stop offset="0.8363" stop-color="#FF9A90"/>
<stop offset="0.8692" stop-color="#FF968A"/>
</linearGradient>
</defs>
</svg>
