<svg width="42" height="42" viewBox="0 0 42 42" fill="none" xmlns="http://www.w3.org/2000/svg">
<path d="M21 5.25C18.9317 5.25 16.8836 5.65739 14.9727 6.4489C13.0619 7.24041 11.3256 8.40055 9.86307 9.86307C8.40055 11.3256 7.24041 13.0619 6.4489 14.9727C5.65739 16.8836 5.25 18.9317 5.25 21C5.25 23.0683 5.65739 25.1164 6.4489 27.0273C7.24041 28.9381 8.40055 30.6744 9.86307 32.1369C11.3256 33.5995 13.0619 34.7596 14.9727 35.5511C16.8836 36.3426 18.9317 36.75 21 36.75C25.1772 36.75 29.1832 35.0906 32.1369 32.1369C35.0906 29.1832 36.75 25.1772 36.75 21C36.75 16.8228 35.0906 12.8168 32.1369 9.86307C29.1832 6.90937 25.1772 5.25 21 5.25ZM21 2.625C25.8734 2.625 30.5471 4.56093 33.9931 8.00691C37.4391 11.4529 39.375 16.1266 39.375 21C39.375 25.8734 37.4391 30.5471 33.9931 33.9931C30.5471 37.4391 25.8734 39.375 21 39.375C16.1266 39.375 11.4529 37.4391 8.00691 33.9931C4.56093 30.5471 2.625 25.8734 2.625 21C2.625 16.1266 4.56093 11.4529 8.00691 8.00691C11.4529 4.56093 16.1266 2.625 21 2.625Z" fill="#C4C4C4"/>
<path d="M26.2501 11.8125C28.0001 11.8125 28.8751 12.6875 28.8751 14.4375C28.8751 16.1875 28.0001 17.0625 26.2501 17.0625C24.5001 17.0625 23.6251 16.1875 23.6251 14.4375C23.6251 12.6875 24.5001 11.8125 26.2501 11.8125ZM8.8043 32.4293L6.9458 30.5707L14.5609 22.9583C15.2201 22.2988 16.0918 21.8947 17.021 21.8178C17.9501 21.7409 18.8765 21.9962 19.6351 22.5383L25.3051 26.586C25.5474 26.7587 25.8412 26.844 26.1384 26.8278C26.4355 26.8115 26.7183 26.6948 26.9404 26.4967L37.1884 17.325L38.9367 19.2833L28.6913 28.4524C28.0247 29.0489 27.1749 29.4007 26.2817 29.4499C25.3886 29.499 24.5053 29.2426 23.7773 28.7228L18.1073 24.6724C17.8545 24.4928 17.5464 24.4086 17.2374 24.4345C16.9285 24.4605 16.6387 24.595 16.4194 24.8141L8.8043 32.4266V32.4293Z" fill="#C4C4C4"/>
</svg>
