<svg width="151" height="24" viewBox="0 0 151 24" fill="none" xmlns="http://www.w3.org/2000/svg">
<g clip-path="url(#clip0)">
<path d="M31.3523 2.1237C29.9212 2.72315 28.3481 4.41452 27.8513 6.53918C27.222 9.23028 29.8403 10.3686 30.0553 9.99589C30.308 9.5574 29.5861 9.40918 29.4375 8.01274C29.2454 6.20918 30.0839 4.19397 31.1392 3.30973C31.3351 3.14534 31.3259 3.37411 31.3259 3.79699C31.3259 4.55329 31.2842 11.3429 31.2842 12.7599C31.2842 14.6771 31.205 15.2826 31.0627 15.881C30.9187 16.4871 30.6869 16.8969 30.8624 17.0547C31.0586 17.2311 31.8961 16.8112 32.3809 16.1347C32.9623 15.3232 33.1658 14.3484 33.2024 13.2901C33.2465 12.0142 33.2446 9.98959 33.2465 8.8348C33.2481 7.77576 33.2643 4.67452 33.2279 2.81014C33.219 2.3526 31.9507 1.87288 31.3523 2.1237Z" fill="#343433"/>
<path d="M82.1665 11.0959C82.1204 12.0928 81.8997 12.8718 81.6259 13.4214C81.0957 14.4854 79.9957 14.8157 79.5286 13.2864C79.2741 12.4527 79.2622 11.0603 79.445 9.8969C79.6313 8.71183 80.1516 7.81676 81.0128 7.89745C81.8624 7.97731 82.2601 9.07197 82.1665 11.0961V11.0959ZM67.8446 17.2803C67.8331 18.9365 67.5724 20.3885 67.0135 20.8105C66.2207 21.4085 65.155 20.9598 65.3757 19.7513C65.5709 18.6818 66.4943 17.5896 67.847 16.2551C67.847 16.2551 67.8497 16.5595 67.8446 17.2803ZM67.6282 11.0862C67.5797 11.9942 67.3444 12.9061 67.0875 13.4214C66.5574 14.4854 65.4494 14.818 64.9902 13.2864C64.6763 12.2398 64.7515 10.8855 64.9067 10.0321C65.1083 8.92485 65.5971 7.89759 66.4745 7.89759C67.3276 7.89759 67.7485 8.83361 67.6282 11.0862ZM59.3316 11.0725C59.2796 12.0339 59.092 12.8376 58.7911 13.4214C58.2464 14.4781 57.1689 14.8132 56.6938 13.2864C56.3512 12.1854 56.4678 10.6843 56.6102 9.87334C56.8217 8.66992 57.3513 7.81676 58.178 7.89759C59.0272 7.9806 59.44 9.07197 59.3316 11.0725ZM97.3526 12.1955C97.145 12.1955 97.0502 12.4095 96.9717 12.7695C96.7001 14.0221 96.4142 14.3047 96.0459 14.3047C95.6342 14.3047 95.2644 13.6847 95.1691 12.4433C95.0945 11.4672 95.1065 9.67019 95.202 7.88266C95.2216 7.51539 95.1202 7.15197 94.1352 6.79416C93.7113 6.64019 93.0952 6.41348 92.7883 7.15403C91.9216 9.24635 91.5824 10.9075 91.5026 11.582C91.4985 11.6169 91.4556 11.6242 91.4482 11.5425C91.3972 11.0021 91.2837 10.0199 91.2694 7.95663C91.2667 7.55402 91.1815 7.21142 90.7371 6.93087C90.4487 6.74868 89.5733 6.42676 89.258 6.80992C88.9849 7.12307 88.6685 7.96608 88.3398 8.96553C88.0727 9.77786 87.8867 10.3272 87.8867 10.3272C87.8867 10.3272 87.8902 8.13567 87.8934 7.3043C87.8948 6.99074 87.6797 6.88622 87.6148 6.86731C87.323 6.78265 86.7476 6.64115 86.5035 6.64115C86.2022 6.64115 86.1285 6.80937 86.1285 7.05485C86.1285 7.08704 86.0809 9.94019 86.0809 11.9353C86.0809 12.022 86.0809 12.1165 86.0813 12.217C85.9148 13.134 85.3743 14.3787 84.7867 14.3787C84.1982 14.3787 83.9207 13.8584 83.9207 11.4799C83.9207 10.0924 83.9623 9.48896 83.9827 8.48539C83.9946 7.90731 84.0176 7.46348 84.0163 7.36279C84.0119 7.05389 83.4779 6.89813 83.2293 6.8406C82.9796 6.78265 82.7626 6.76005 82.5931 6.76978C82.3533 6.78348 82.1835 6.9406 82.1835 7.15704C82.1835 7.2732 82.1849 7.49375 82.1849 7.49375C81.876 7.00827 81.3791 6.67046 81.0486 6.57252C80.1582 6.30813 79.2291 6.54238 78.5283 7.52307C77.9713 8.30211 77.6356 9.18471 77.5034 10.4525C77.4068 11.3795 77.4383 12.3194 77.6101 13.1143C77.4026 14.0113 77.0175 14.3787 76.5957 14.3787C75.9834 14.3787 75.5396 13.3795 75.5911 11.651C75.625 10.5142 75.8526 9.71635 76.1012 8.56211C76.2072 8.07005 76.1211 7.81252 75.905 7.56567C75.7068 7.33923 75.2845 7.22348 74.6776 7.36567C74.2453 7.46718 73.6271 7.57635 73.0615 7.66019C73.0615 7.66019 73.0957 7.52389 73.1237 7.28389C73.2708 6.02498 71.9027 6.12704 71.4661 6.52909C71.2057 6.76923 71.0283 7.05238 70.9611 7.56142C70.8542 8.36937 71.5131 8.75046 71.5131 8.75046C71.2971 9.74005 70.7671 11.0327 70.22 11.9673C69.927 12.468 69.7028 12.8391 69.4134 13.2335C69.4039 11.6508 69.4143 10.068 69.4444 8.48553C69.4563 7.90745 69.4794 7.47539 69.4782 7.37457C69.4749 7.14882 69.343 7.06334 69.0686 6.95539C68.8259 6.85978 68.539 6.79375 68.2413 6.77046C67.8657 6.74142 67.6394 6.94046 67.6454 7.17608C67.6465 7.2206 67.6465 7.49375 67.6465 7.49375C67.3376 7.00827 66.8408 6.67046 66.5102 6.57252C65.6198 6.30813 64.6908 6.54238 63.99 7.52307C63.4331 8.30211 63.0685 9.39553 62.965 10.4429C62.8689 11.419 62.8865 12.2484 63.0178 12.9473C62.8763 13.647 62.4691 14.3788 62.009 14.3788C61.4205 14.3788 61.0857 13.8584 61.0857 11.4799C61.0857 10.0924 61.1274 9.48896 61.1479 8.48539C61.1598 7.90745 61.1827 7.46348 61.1815 7.36279C61.1771 7.05389 60.643 6.89827 60.3944 6.8406C60.1343 6.78033 59.9098 6.75841 59.7374 6.77115C59.51 6.788 59.35 6.9917 59.35 7.14361V7.49375C59.0411 7.00827 58.5442 6.67046 58.2137 6.57252C57.3233 6.30813 56.3994 6.54622 55.6934 7.52307C55.2331 8.15992 54.8604 8.86594 54.6686 10.429C54.6131 10.8806 54.5886 11.3038 54.5919 11.699C54.4083 12.8217 53.5974 14.1157 52.9342 14.1157C52.5461 14.1157 52.1764 13.3628 52.1764 11.7585C52.1764 9.62156 52.3087 6.57882 52.3312 6.28567C52.3312 6.28567 53.1691 6.27142 53.3313 6.2695C53.7494 6.26485 54.1279 6.27485 54.6848 6.24622C54.9639 6.23211 55.233 5.22978 54.9448 5.10581C54.8141 5.04964 53.8909 5.0006 53.5249 4.99279C53.2172 4.98594 52.3605 4.92238 52.3605 4.92238C52.3605 4.92238 52.4374 2.90279 52.4553 2.6895C52.4704 2.51156 52.2402 2.42005 52.1085 2.36457C51.7876 2.22896 51.5007 2.16389 51.1605 2.09375C50.6904 1.99676 50.4772 2.0917 50.4356 2.48827C50.3728 3.09033 50.3404 4.85375 50.3404 4.85375C49.9954 4.85375 48.8171 4.78635 48.4722 4.78635C48.1516 4.78635 47.8056 6.16498 48.2489 6.18197C48.7587 6.2017 49.6474 6.21896 50.2364 6.23649C50.2364 6.23649 50.2101 9.32937 50.2101 10.2844C50.2101 10.3858 50.2107 10.4838 50.2112 10.5787C49.887 12.2684 48.745 13.1813 48.745 13.1813C48.9902 12.0633 48.4893 11.2238 47.587 10.5131C47.2545 10.2513 46.5982 9.75553 45.8639 9.21224C45.8639 9.21224 46.2891 8.79307 46.6664 7.94978C46.9335 7.35224 46.9452 6.66882 46.2891 6.518C45.2053 6.26868 44.3117 7.06471 44.0452 7.91457C43.8386 8.57293 43.9487 9.06129 44.3534 9.56868C44.3828 9.60581 44.415 9.64375 44.4479 9.68183C44.2034 10.1533 43.8672 10.7883 43.5826 11.2806C42.7924 12.6477 42.1956 13.7288 41.7445 13.7288C41.3839 13.7288 41.3887 12.631 41.3887 11.6032C41.3887 10.7172 41.4542 9.38498 41.5065 8.00594C41.5238 7.54978 41.2956 7.28992 40.9134 7.05457C40.6811 6.91156 40.1853 6.63046 39.8982 6.63046C39.4683 6.63046 38.2283 6.68896 37.0568 10.078C36.9091 10.5051 36.619 11.2835 36.619 11.2835L36.6441 7.208C36.6441 7.11238 36.5931 7.02005 36.4765 6.9569C36.2791 6.84964 35.7519 6.63046 35.283 6.63046C35.0597 6.63046 34.948 6.7343 34.948 6.94142L34.9072 13.3176C34.9072 13.8021 34.9198 14.3673 34.9678 14.6144C35.0154 14.8618 35.0928 15.0632 35.1885 15.1829C35.2842 15.3025 35.3948 15.3939 35.5771 15.4314C35.7468 15.4664 36.6761 15.5857 36.7245 15.2306C36.7823 14.8048 36.7846 14.3446 37.2726 12.6276C38.0323 9.95444 39.0227 8.65033 39.4885 8.18704C39.57 8.10622 39.6628 8.10128 39.6583 8.23375C39.6386 8.81978 39.5686 10.2844 39.5216 11.5283C39.3954 14.8577 40.0011 15.4748 40.8667 15.4748C41.5289 15.4748 42.4623 14.8169 43.4628 13.1514C44.0203 12.2233 44.5753 11.2936 45.1276 10.3624C45.4308 10.6431 45.7712 10.9451 46.1112 11.2679C46.9016 12.018 47.1611 12.7309 46.9889 13.407C46.8574 13.9239 46.3613 14.4566 45.4787 13.939C45.2215 13.7879 45.1116 13.671 44.853 13.5007C44.7141 13.4094 44.5019 13.382 44.3746 13.4779C44.0442 13.7269 43.8552 14.0439 43.7472 14.4362C43.6423 14.818 44.0246 15.0198 44.4211 15.1964C44.7623 15.3483 45.4959 15.4859 45.9635 15.5016C47.7861 15.5625 49.2463 14.6216 50.2627 12.1943C50.4446 14.2906 51.2189 15.4768 52.5642 15.4768C53.4637 15.4768 54.3654 14.3142 54.7598 13.1705C54.873 13.6366 55.0407 14.0421 55.2571 14.385C56.2937 16.0274 58.3046 15.674 59.3148 14.2792C59.6271 13.8483 59.6746 13.6935 59.6746 13.6935C59.822 15.0103 60.8826 15.4705 61.4897 15.4705C62.1698 15.4705 62.8719 15.149 63.3641 14.041C63.4217 14.1613 63.4848 14.2762 63.5535 14.385C64.5901 16.0274 66.6012 15.674 67.6113 14.2792C67.659 14.2138 67.7004 14.1546 67.7364 14.1011L67.766 14.9662L66.836 15.8192C65.2771 17.248 64.093 18.3316 64.0059 19.5936C63.8949 21.2028 65.1993 21.8009 66.1875 21.8792C67.235 21.9624 68.1338 21.3832 68.6853 20.5727C69.1708 19.8591 69.4886 18.3235 69.4652 16.8069C69.456 16.1995 69.4405 15.4273 69.4286 14.5995C69.9759 13.964 70.5924 13.1607 71.1601 12.2207C71.7787 11.1962 72.4417 9.82033 72.7812 8.7495C72.7812 8.7495 73.3572 8.75457 73.972 8.7143C74.1686 8.70142 74.2252 8.7417 74.1887 8.88567C74.1449 9.05992 73.412 11.8864 74.0809 13.7692C74.5386 15.0583 75.5705 15.4728 76.1823 15.4728C76.8986 15.4728 77.5837 14.932 77.9508 14.129C77.9952 14.2184 78.0413 14.305 78.0919 14.3851C79.1285 16.0276 81.1324 15.6718 82.1497 14.2792C82.3793 13.965 82.5096 13.6935 82.5096 13.6935C82.7278 15.0565 83.7878 15.4774 84.3949 15.4774C85.0272 15.4774 85.6275 15.2181 86.1143 14.0659C86.1349 14.5733 86.1668 14.9881 86.2174 15.1188C86.2482 15.199 86.4279 15.2992 86.5586 15.3477C87.1372 15.5622 87.7271 15.4609 87.9454 15.4168C88.0967 15.3861 88.2146 15.2647 88.2308 14.9516C88.2733 14.129 88.2472 12.7469 88.4965 11.7196C88.915 9.99594 89.3056 9.32731 89.4908 8.99635C89.5945 8.81074 89.7113 8.78019 89.7156 8.97649C89.7243 9.37375 89.7441 10.5399 89.9063 12.107C90.0254 13.2594 90.1844 13.9406 90.3067 14.1564C90.6557 14.7728 91.0865 14.802 91.4375 14.802C91.6608 14.802 92.1276 14.7403 92.0859 14.348C92.0654 14.1568 92.1011 12.9748 92.5138 11.2766C92.7833 10.1676 93.2326 9.16567 93.3946 8.79923C93.4545 8.66416 93.4823 8.7706 93.4812 8.79142C93.4471 9.55512 93.3705 12.0532 93.6816 13.4195C94.1035 15.2703 95.3235 15.4774 95.7487 15.4774C96.6564 15.4774 97.3987 14.787 97.6487 12.9703C97.709 12.5331 97.6198 12.1955 97.3526 12.1955Z" fill="#343433"/>
</g>
<path d="M16.017 2H7.947C6.37015 2.00185 4.85844 2.62914 3.74353 3.74424C2.62862 4.85933 2.00159 6.37115 2 7.948L2 16.018C2.00185 17.5948 2.62914 19.1066 3.74424 20.2215C4.85933 21.3364 6.37115 21.9634 7.948 21.965H16.018C17.5948 21.9631 19.1066 21.3359 20.2215 20.2208C21.3364 19.1057 21.9634 17.5938 21.965 16.017V7.947C21.9631 6.37015 21.3359 4.85844 20.2208 3.74353C19.1057 2.62862 17.5938 2.00159 16.017 2V2ZM19.957 16.017C19.957 16.5344 19.8551 17.0468 19.6571 17.5248C19.4591 18.0028 19.1689 18.4371 18.803 18.803C18.4371 19.1689 18.0028 19.4591 17.5248 19.6571C17.0468 19.8551 16.5344 19.957 16.017 19.957H7.947C6.90222 19.9567 5.90032 19.5415 5.16165 18.8026C4.42297 18.0638 4.008 17.0618 4.008 16.017V7.947C4.00827 6.90222 4.42349 5.90032 5.16235 5.16165C5.90122 4.42297 6.90322 4.008 7.948 4.008H16.018C17.0628 4.00827 18.0647 4.42349 18.8034 5.16235C19.542 5.90122 19.957 6.90322 19.957 7.948V16.018V16.017Z" fill="url(#paint0_linear)"/>
<path d="M11.9818 6.82031C10.6133 6.82243 9.30136 7.3671 8.33372 8.33492C7.36609 9.30274 6.82168 10.6147 6.81982 11.9833C6.82141 13.3522 7.36585 14.6646 8.33372 15.6327C9.3016 16.6008 10.6139 17.1455 11.9828 17.1473C13.3519 17.1457 14.6645 16.6012 15.6326 15.6331C16.6007 14.665 17.1452 13.3524 17.1468 11.9833C17.1447 10.6144 16.5998 9.3022 15.6315 8.33451C14.6633 7.36682 13.3507 6.82264 11.9818 6.82131V6.82031ZM11.9818 15.1393C11.1451 15.1393 10.3426 14.8069 9.7509 14.2152C9.15922 13.6236 8.82682 12.8211 8.82682 11.9843C8.82682 11.1476 9.15922 10.3451 9.7509 9.75339C10.3426 9.16171 11.1451 8.82931 11.9818 8.82931C12.8186 8.82931 13.6211 9.16171 14.2127 9.75339C14.8044 10.3451 15.1368 11.1476 15.1368 11.9843C15.1368 12.8211 14.8044 13.6236 14.2127 14.2152C13.6211 14.8069 12.8186 15.1393 11.9818 15.1393Z" fill="url(#paint1_linear)"/>
<path d="M17.1559 8.09509C17.8391 8.09509 18.3929 7.54127 18.3929 6.85809C18.3929 6.17492 17.8391 5.62109 17.1559 5.62109C16.4728 5.62109 15.9189 6.17492 15.9189 6.85809C15.9189 7.54127 16.4728 8.09509 17.1559 8.09509Z" fill="url(#paint2_linear)"/>
<g clip-path="url(#clip1)">
<path d="M135.773 6C135.243 6 134.734 6.21071 134.359 6.58579C133.984 6.96086 133.773 7.46957 133.773 8V14H130.773L134.773 18L138.773 14H135.773V8H142.773L144.773 6H135.773ZM145.773 10H142.773L146.773 6L150.773 10H147.773V16C147.773 16.5304 147.563 17.0391 147.188 17.4142C146.813 17.7893 146.304 18 145.773 18H136.773L138.773 16H145.773V10Z" fill="#007AFF"/>
</g>
<defs>
<linearGradient id="paint0_linear" x1="11.9825" y1="2" x2="11.9825" y2="21.965" gradientUnits="userSpaceOnUse">
<stop stop-color="#D500F8"/>
<stop offset="1" stop-color="#FFA800"/>
</linearGradient>
<linearGradient id="paint1_linear" x1="11.9833" y1="6.82031" x2="11.9833" y2="17.1473" gradientUnits="userSpaceOnUse">
<stop stop-color="#D500F8"/>
<stop offset="1" stop-color="#FFA800"/>
</linearGradient>
<linearGradient id="paint2_linear" x1="17.1559" y1="5.62109" x2="17.1559" y2="8.09509" gradientUnits="userSpaceOnUse">
<stop stop-color="#D500F8"/>
<stop offset="1" stop-color="#FFA800"/>
</linearGradient>
<clipPath id="clip0">
<rect width="70.137" height="20" fill="white" transform="translate(27.6362 2)"/>
</clipPath>
<clipPath id="clip1">
<rect width="20" height="20" fill="white" transform="translate(130.773 2)"/>
</clipPath>
</defs>
</svg>
