<svg width="200" height="202" viewBox="0 0 200 202" fill="none" xmlns="http://www.w3.org/2000/svg">
<path d="M98.4875 67.4843L101.299 88.6914C115.256 91.0351 120.438 93.7377 133.721 100.445C146.516 109.063 155.226 115.533 164.882 134.063C151.574 139.708 142.427 140.707 122.594 137.969L108.392 149.978C139.08 160.009 156.18 161.641 186.189 144.982C177.49 115.83 169.883 103.731 152.482 88.1319C133.424 73.699 116.357 68.7066 98.4875 67.4843Z" fill="#34A843"/>
<path d="M68.4699 117.871L83.4665 105.307C79.0934 91.8464 78.794 84.927 78.602 70.048C80.3308 54.7184 83.6336 43.4761 95.6019 26.349C106.759 35.5403 111.873 43.1903 118.612 62.0429L135.825 69.0863C130.537 37.2369 124.08 21.3181 95.4364 2.40716C73.6061 23.5952 66.3932 35.9332 60.6029 58.5744C54.6904 77.343 62.796 109.36 68.4699 117.871Z" fill="#4288F3"/>
<path d="M124.527 122.635L113.457 109.766C103.441 119.767 92.5879 126.761 79.413 133.678C64.9656 139.087 52.4577 140.912 31.7659 138.009C34.8999 123.897 39.4002 115.871 53.1486 101.317L51.6223 82.7813C25.632 101.935 14.3705 114.907 10.501 149.011C39.2837 158.863 53.5509 159.698 76.3567 154.594C96.9142 148.66 112.241 138.946 124.527 122.635Z" fill="#FBBC08"/>
<path d="M97.6502 145.837C126.83 128.815 135.913 109.549 135.329 77.3232C109.403 63.5648 87.7802 63.7089 58.7432 79.5375C61.671 115.64 73.1704 132.962 97.6502 145.837Z" fill="#EA4338"/>
<path d="M98.7919 122C113.916 113.167 116.626 106.415 116.323 92.6028C102.08 86.9953 94.332 86.7184 80.9278 93.4724C82.3184 108.949 87.4642 116.456 98.7919 122Z" fill="white"/>
<path fill-rule="evenodd" clip-rule="evenodd" d="M71.6162 172.966C71.6162 170.766 72.2884 169.116 73.5105 167.894C74.7937 166.672 76.4436 166.061 78.7656 166H83.2263V166.122C82.6764 166.367 82.1264 167.161 81.6987 168.689C78.4601 169.055 76.138 170.827 76.138 172.966V174.188H81.1487C81.5154 174.188 81.6987 174.494 81.6987 174.738V177.427C81.6987 177.793 81.3932 177.977 81.1487 177.977H76.3825V193.559C76.3825 193.925 76.0769 194.109 75.8325 194.109H72.1662C71.7995 194.109 71.6162 193.803 71.6162 193.559V178.038H68.8664C68.4998 178.038 68.3165 177.732 68.3165 177.488V174.799C68.3165 174.433 68.622 174.249 68.8664 174.249H71.6162V172.966ZM151.909 173.577C146.165 173.577 141.46 178.221 141.46 184.026C141.46 189.77 146.104 194.475 151.909 194.475C157.653 194.475 162.359 189.831 162.359 184.026C162.42 178.282 157.714 173.577 151.909 173.577ZM151.909 190.015C148.61 190.015 145.921 187.326 145.921 184.026C145.921 180.726 148.61 178.038 151.909 178.038C155.209 178.038 157.898 180.726 157.898 184.026C157.959 187.326 155.27 190.015 151.909 190.015ZM116.346 188.059C116.346 189.596 115.372 189.854 114.513 190.081C113.836 190.261 113.23 190.421 113.23 191.176C113.23 192.887 114.635 194.292 116.346 194.292C118.057 194.292 119.462 192.887 119.462 191.176C119.401 189.404 116.346 185.309 116.346 188.059ZM8.86037 173.883C11.7935 173.883 14.0544 174.555 15.582 175.96C17.1708 177.305 17.9652 179.504 18.1485 182.315V193.437C18.1485 193.803 17.843 193.986 17.5985 193.986H14.2377C13.8711 193.986 13.6878 193.681 13.6878 193.437V191.542C13.1378 192.398 12.3434 193.07 11.2435 193.559C10.1436 194.048 8.86038 194.231 7.39383 194.231C5.92729 194.231 4.64406 194.048 3.48305 193.498C2.38314 193.009 1.52765 192.276 0.91659 191.42C0.366636 190.442 0 189.465 0 188.304C0 186.47 0.672168 185.065 2.0165 183.965C3.36083 182.926 5.49954 182.376 8.31042 182.376H13.4433V182.132C13.4433 180.726 12.9545 179.627 12.1601 178.893C11.3046 178.16 10.0214 177.732 8.43263 177.732C7.27162 177.732 6.23281 177.916 5.13291 178.282C4.21632 178.588 3.48305 178.893 2.81088 179.382C2.56646 179.565 2.19982 179.443 2.07761 179.199L0.733275 176.693C0.611063 176.449 0.672167 176.144 0.855485 176.021C1.77208 175.349 2.93309 174.921 4.21632 174.494C5.68286 174.066 7.27162 173.883 8.86037 173.883ZM11.4268 190.076C12.6489 189.342 13.3211 188.059 13.3211 186.654V185.493H8.55484C5.86618 185.493 4.52185 186.348 4.52185 188.12C4.52185 188.976 4.88848 189.648 5.56065 190.137C6.23282 190.626 7.0883 190.87 8.31042 190.87C9.47143 190.87 10.5713 190.626 11.4268 190.076ZM38.3137 175.105C36.786 174.249 35.0751 173.822 33.1197 173.822C31.7753 173.822 30.4921 174.005 29.3922 174.494C28.2312 174.983 27.3146 175.655 26.5813 176.571V174.494C26.5813 174.249 26.398 173.944 26.0314 173.944H22.6094C22.365 173.944 22.0595 174.127 22.0595 174.494V200.586C22.0595 200.83 22.2428 201.136 22.6094 201.136H26.2758C26.5202 201.136 26.8258 200.953 26.8258 200.586V191.542C28.3534 193.314 30.5532 194.231 33.1808 194.231C35.1362 194.231 36.8472 193.803 38.3748 192.948C39.9025 192.092 41.0635 190.931 41.9801 189.342C42.8966 187.754 43.2633 186.043 43.2633 184.026C43.2633 182.01 42.8355 180.238 41.9801 178.71C41.1246 177.121 39.9024 175.96 38.3137 175.105ZM36.8472 188.548C35.7472 189.709 34.3418 190.259 32.5697 190.259C31.4087 190.259 30.4921 190.015 29.5144 189.526C28.6589 188.976 27.9257 188.304 27.4368 187.387C26.8869 186.471 26.6425 185.371 26.6425 184.087C26.6425 182.804 26.8869 181.704 27.4368 180.788C27.9868 179.871 28.6589 179.077 29.5144 178.649C30.3699 178.099 31.4087 177.916 32.5697 177.916C34.2807 177.916 35.6861 178.466 36.8472 179.627C37.9471 180.788 38.5581 182.254 38.5581 184.148C38.5581 185.921 38.0082 187.387 36.8472 188.548ZM89.5202 172.111V166.611C89.4591 166.244 89.2757 166.061 88.9702 166.061H84.3262V166.183C85.6953 166.799 87.1604 169.122 88.1842 170.745C88.9882 172.02 89.5202 172.863 89.5202 172.111ZM85.3041 174.066H88.9704C89.276 174.066 89.4593 174.31 89.5204 174.616V193.498C89.5204 193.864 89.2148 194.048 88.9704 194.048H85.3041C84.9374 194.048 84.7541 193.742 84.7541 193.498V174.616C84.7541 174.249 85.0596 174.066 85.3041 174.066ZM109.93 190.198H99.1751L110.113 176.999V174.555C110.113 174.31 109.93 174.066 109.624 174.066H93.981C93.7366 174.066 93.4922 174.249 93.4922 174.555V177.244C93.4922 177.488 93.6755 177.732 93.981 177.732H104.186L93.2478 190.992V193.437C93.2478 193.681 93.4311 193.926 93.7366 193.926H109.93C110.174 193.926 110.419 193.742 110.419 193.437V190.748C110.419 190.504 110.174 190.198 109.93 190.198ZM133.883 178.466C133.028 177.977 132.111 177.793 131.072 177.793C129.361 177.793 127.895 178.343 126.734 179.504C125.573 180.665 125.023 182.132 125.023 184.026C125.023 185.921 125.573 187.387 126.734 188.548C127.834 189.709 129.3 190.259 131.072 190.259C132.05 190.259 133.028 190.076 133.883 189.587C134.617 189.159 135.228 188.609 135.778 187.876C135.9 187.693 136.266 187.632 136.45 187.754L139.138 189.342C139.383 189.465 139.444 189.77 139.322 190.015C138.588 191.237 137.55 192.276 136.205 193.009C134.739 193.803 133.028 194.231 131.072 194.231C128.995 194.231 127.101 193.803 125.512 192.948C123.862 192.031 122.579 190.809 121.662 189.281C120.807 187.754 120.318 185.982 120.318 184.026C120.318 182.071 120.684 180.36 121.662 178.771C122.64 177.182 123.923 175.96 125.512 175.105C127.223 174.249 129.056 173.822 131.133 173.822C133.089 173.822 134.8 174.249 136.266 175.044C137.611 175.716 138.65 176.755 139.383 178.038C139.566 178.221 139.444 178.588 139.199 178.71L136.45 180.299C136.266 180.421 135.9 180.36 135.778 180.177C135.228 179.382 134.617 178.893 133.883 178.466ZM197.556 176.021C196.089 174.555 194.134 173.883 191.628 173.883C190.101 173.883 188.634 174.127 187.29 174.738C186.007 175.349 184.907 176.144 184.112 177.182C183.44 176.082 182.585 175.288 181.363 174.677C180.202 174.127 178.857 173.883 177.391 173.883C176.046 173.883 174.763 174.127 173.663 174.555C172.502 175.044 171.647 175.716 170.913 176.571V174.555C170.913 174.31 170.73 174.005 170.363 174.005H166.942C166.697 174.005 166.392 174.188 166.392 174.555V193.437C166.392 193.681 166.575 193.986 166.942 193.986H170.608C170.852 193.986 171.158 193.803 171.158 193.437V183.843C171.158 181.887 171.647 180.421 172.563 179.382C173.48 178.343 174.702 177.854 176.352 177.854C177.757 177.854 178.918 178.343 179.652 179.199C180.385 180.054 180.813 181.399 180.813 183.11V193.437C180.813 193.681 180.996 193.986 181.363 193.986H185.029C185.273 193.986 185.579 193.803 185.579 193.437V183.843C185.579 181.949 186.068 180.482 186.984 179.443C187.901 178.404 189.184 177.916 190.773 177.916C192.178 177.916 193.339 178.404 194.073 179.26C194.806 180.115 195.234 181.46 195.234 183.171V193.498C195.234 193.742 195.417 194.048 195.784 194.048H199.45C199.694 194.048 200 193.864 200 193.498V182.56C199.694 179.688 199.022 177.488 197.556 176.021ZM45.8908 184.026C45.8908 178.221 50.5959 173.577 56.3399 173.577C62.145 173.577 66.789 178.282 66.789 184.026C66.789 189.831 62.0839 194.475 56.3399 194.475C50.5348 194.475 45.8908 189.77 45.8908 184.026ZM50.3515 184.026C50.3515 187.326 53.0402 190.015 56.3399 190.015C59.6396 190.015 62.3283 187.326 62.3283 184.026C62.3283 180.726 59.6396 178.038 56.3399 178.038C53.0402 178.038 50.3515 180.726 50.3515 184.026Z" fill="#282E3A"/>
</svg>
