<svg width="176" height="156" viewBox="0 0 176 156" fill="none" xmlns="http://www.w3.org/2000/svg">
<path d="M87.9864 65.0771L90.7975 86.2842C104.755 88.6279 109.937 91.3305 123.22 98.0374C136.015 106.656 144.725 113.126 154.381 131.655C141.073 137.301 131.926 138.3 112.093 135.562L97.8911 147.571C128.579 157.602 145.679 159.234 175.688 142.575C166.989 113.423 159.382 101.324 141.981 85.7247C122.923 71.2918 105.856 66.2994 87.9864 65.0771Z" fill="#34A843"/>
<path d="M57.9689 115.464L72.9655 102.9C68.5924 89.4393 68.2929 82.5198 68.1009 67.6408C69.8297 52.3112 73.1326 41.0689 85.1008 23.9419C96.258 33.1331 101.371 40.7832 108.111 59.6357L125.324 66.6791C120.036 34.8297 113.579 18.9109 84.9354 0C63.105 21.188 55.8922 33.526 50.1018 56.1672C44.1894 74.9359 52.295 106.953 57.9689 115.464Z" fill="#4288F3"/>
<path d="M114.026 120.228L102.956 107.359C92.9403 117.36 82.0868 124.354 68.9119 131.271C54.4645 136.68 41.9567 138.504 21.2649 135.602C24.3988 121.49 28.8992 113.464 42.6475 98.9102L41.1212 80.3741C15.131 99.5276 3.86948 112.5 0 146.604C28.7827 156.456 43.0499 157.291 65.8556 152.187C86.4132 146.253 101.74 136.539 114.026 120.228Z" fill="#FBBC08"/>
<path d="M87.1491 143.429C116.329 126.408 125.412 107.141 124.828 74.916C98.9024 61.1577 77.2792 61.3017 48.2421 77.1304C51.1699 113.233 62.6694 130.554 87.1491 143.429Z" fill="#EA4338"/>
<path d="M88.2909 119.593C103.415 110.76 106.125 104.008 105.822 90.1957C91.5788 84.5881 83.831 84.3113 70.4267 91.0653C71.8174 106.542 76.9632 114.049 88.2909 119.593Z" fill="white"/>
</svg>
