<svg width="24" height="24" viewBox="0 0 24 24" fill="none" xmlns="http://www.w3.org/2000/svg">
<g clip-path="url(#clip0_23446_7075)">
<path d="M21 4.5C21.3978 4.5 21.7794 4.65804 22.0607 4.93934C22.342 5.22064 22.5 5.60218 22.5 6V18C22.5 18.3978 22.342 18.7794 22.0607 19.0607C21.7794 19.342 21.3978 19.5 21 19.5H3C2.60218 19.5 2.22064 19.342 1.93934 19.0607C1.65804 18.7794 1.5 18.3978 1.5 18V6C1.5 5.60218 1.65804 5.22064 1.93934 4.93934C2.22064 4.65804 2.60218 4.5 3 4.5H21ZM3 3C2.20435 3 1.44129 3.31607 0.87868 3.87868C0.316071 4.44129 0 5.20435 0 6L0 18C0 18.7956 0.316071 19.5587 0.87868 20.1213C1.44129 20.6839 2.20435 21 3 21H21C21.7956 21 22.5587 20.6839 23.1213 20.1213C23.6839 19.5587 24 18.7956 24 18V6C24 5.20435 23.6839 4.44129 23.1213 3.87868C22.5587 3.31607 21.7956 3 21 3H3Z" fill="#2F80ED"/>
<path d="M2.80469 11.3327C2.80469 11.1559 2.87493 10.9863 2.99995 10.8613C3.12497 10.7363 3.29454 10.666 3.47135 10.666H6.13802C6.31483 10.666 6.4844 10.7363 6.60943 10.8613C6.73445 10.9863 6.80469 11.1559 6.80469 11.3327V12.666C6.80469 12.8428 6.73445 13.0124 6.60943 13.1374C6.4844 13.2624 6.31483 13.3327 6.13802 13.3327H3.47135C3.29454 13.3327 3.12497 13.2624 2.99995 13.1374C2.87493 13.0124 2.80469 12.8428 2.80469 12.666V11.3327Z" fill="#2F80ED"/>
<path d="M15.0455 9.27273V9.77273H15.5455H16.6364C16.6484 9.77273 16.66 9.77752 16.6685 9.78604C16.677 9.79456 16.6818 9.80613 16.6818 9.81818C16.6818 9.83024 16.677 9.8418 16.6685 9.85032C16.66 9.85885 16.6484 9.86364 16.6364 9.86364H14.4545C14.1773 9.86364 13.9114 9.97378 13.7153 10.1698C13.5192 10.3659 13.4091 10.6318 13.4091 10.9091C13.4091 11.1864 13.5192 11.4523 13.7153 11.6483C13.9114 11.8444 14.1773 11.9545 14.4545 11.9545H15.5455C15.8468 11.9545 16.1359 12.0743 16.349 12.2874C16.5621 12.5005 16.6818 12.7895 16.6818 13.0909C16.6818 13.3923 16.5621 13.6813 16.349 13.8944C16.1359 14.1075 15.8468 14.2273 15.5455 14.2273H15.0455V14.7273V15.2727C15.0455 15.2848 15.0407 15.2963 15.0321 15.3049C15.0236 15.3134 15.0121 15.3182 15 15.3182C14.9879 15.3182 14.9764 15.3134 14.9679 15.3049C14.9593 15.2963 14.9545 15.2848 14.9545 15.2727V14.7273V14.2273H14.4545H13.3636C13.3516 14.2273 13.34 14.2225 13.3315 14.214C13.323 14.2054 13.3182 14.1939 13.3182 14.1818C13.3182 14.1698 13.323 14.1582 13.3315 14.1497C13.34 14.1411 13.3516 14.1364 13.3636 14.1364H15.5455C15.8227 14.1364 16.0886 14.0262 16.2847 13.8302C16.4808 13.6341 16.5909 13.3682 16.5909 13.0909C16.5909 12.8136 16.4808 12.5477 16.2847 12.3517C16.0886 12.1556 15.8227 12.0455 15.5455 12.0455H14.4545C14.1532 12.0455 13.8641 11.9257 13.651 11.7126C13.4379 11.4995 13.3182 11.2105 13.3182 10.9091C13.3182 10.6077 13.4379 10.3187 13.651 10.1056C13.8641 9.89245 14.1532 9.77273 14.4545 9.77273H14.9545V9.27273V8.72727C14.9545 8.71522 14.9593 8.70366 14.9679 8.69513C14.9764 8.68661 14.9879 8.68182 15 8.68182C15.0121 8.68182 15.0236 8.68661 15.0321 8.69513C15.0407 8.70366 15.0455 8.71522 15.0455 8.72727V9.27273ZM11.9444 7.42692C12.8488 6.82257 13.9122 6.5 15 6.5C16.4587 6.5 17.8576 7.07946 18.8891 8.11091C19.9205 9.14236 20.5 10.5413 20.5 12C20.5 13.0878 20.1774 14.1512 19.5731 15.0556C18.9687 15.9601 18.1098 16.6651 17.1048 17.0813C16.0998 17.4976 14.9939 17.6065 13.927 17.3943C12.8601 17.1821 11.8801 16.6583 11.1109 15.8891C10.3417 15.1199 9.8179 14.1399 9.60568 13.073C9.39346 12.0061 9.50238 10.9002 9.91867 9.89524C10.3349 8.89025 11.0399 8.03126 11.9444 7.42692ZM11.9949 16.4975C12.8844 17.0919 13.9302 17.4091 15 17.4091C16.4346 17.4091 17.8104 16.8392 18.8248 15.8248C19.8392 14.8104 20.4091 13.4346 20.4091 12C20.4091 10.9302 20.0919 9.88439 19.4975 8.99487C18.9031 8.10535 18.0584 7.41205 17.07 7.00265C16.0816 6.59325 14.994 6.48613 13.9447 6.69484C12.8955 6.90355 11.9317 7.41872 11.1752 8.17519C10.4187 8.93167 9.90356 9.89548 9.69485 10.9447C9.48613 11.994 9.59325 13.0816 10.0027 14.07C10.4121 15.0583 11.1054 15.9031 11.9949 16.4975Z" fill="#2F80ED" stroke="#2F80ED"/>
</g>
<defs>
<clipPath id="clip0_23446_7075">
<rect width="24" height="24" fill="white"/>
</clipPath>
</defs>
</svg>
