<svg width="24" height="24" viewBox="0 0 24 24" fill="none" xmlns="http://www.w3.org/2000/svg">
<path fill-rule="evenodd" clip-rule="evenodd" d="M17.4201 3C17.7448 2.99997 18.0646 3.07898 18.3519 3.23021C18.6392 3.38144 18.8854 3.60034 19.0691 3.868L19.1561 4.008L22.4901 9.84C22.6937 10.196 22.7829 10.6059 22.7457 11.0143C22.7085 11.4226 22.5467 11.8097 22.2821 12.123L22.1681 12.246L12.8851 21.529C12.6674 21.7467 12.377 21.8764 12.0696 21.8931C11.7621 21.9099 11.4593 21.8127 11.2191 21.62L11.1171 21.53L1.83415 12.246C1.54417 11.9562 1.35028 11.5842 1.27874 11.1805C1.20719 10.7768 1.26144 10.3608 1.43415 9.989L1.51215 9.839L4.84515 4.007C5.00623 3.72508 5.23354 3.48661 5.50743 3.31221C5.78132 3.13781 6.09355 3.03271 6.41715 3.006L6.58015 3H17.4201ZM17.4201 5H6.58015L3.24715 10.833L12.0001 19.586L20.7531 10.833L17.4201 5ZM15.0001 6C15.2654 6 15.5197 6.10536 15.7073 6.29289C15.8948 6.48043 16.0001 6.73478 16.0001 7C16.0001 7.26522 15.8948 7.51957 15.7073 7.70711C15.5197 7.89464 15.2654 8 15.0001 8H13.0001V9.545C13.7581 9.615 14.4471 9.762 15.0041 9.971C15.3991 10.119 15.7531 10.307 16.0171 10.542C16.2811 10.777 16.5001 11.099 16.5001 11.5C16.5001 11.901 16.2811 12.224 16.0171 12.458C15.7531 12.693 15.3991 12.881 15.0041 13.028C14.4101 13.251 13.6661 13.405 12.8471 13.468C12.9472 13.6274 13.0002 13.8118 13.0001 14V16C13.0001 16.2652 12.8948 16.5196 12.7073 16.7071C12.5197 16.8946 12.2654 17 12.0001 17C11.7349 17 11.4806 16.8946 11.293 16.7071C11.1055 16.5196 11.0001 16.2652 11.0001 16V14C11.0001 13.804 11.0561 13.622 11.1531 13.468C10.3341 13.405 9.59015 13.252 8.99615 13.028C8.60115 12.881 8.24715 12.693 7.98315 12.458C7.71915 12.223 7.50015 11.901 7.50015 11.5C7.50015 11.099 7.71915 10.776 7.98315 10.542C8.24715 10.307 8.60115 10.119 8.99615 9.972C9.55215 9.762 10.2411 9.615 11.0001 9.545V8H9.00015C8.73493 8 8.48058 7.89464 8.29304 7.70711C8.1055 7.51957 8.00015 7.26522 8.00015 7C8.00015 6.73478 8.1055 6.48043 8.29304 6.29289C8.48058 6.10536 8.73493 6 9.00015 6H15.0001ZM12.9991 10.55C12.9876 10.8072 12.8774 11.0501 12.6913 11.228C12.5052 11.406 12.2576 11.5053 12.0001 11.5053C11.7427 11.5053 11.4951 11.406 11.309 11.228C11.1229 11.0501 11.0127 10.8072 11.0011 10.55C10.4371 10.5997 9.88147 10.7196 9.34715 10.907C9.01715 11.031 8.78715 11.166 8.64615 11.29C8.52915 11.394 8.50615 11.462 8.50115 11.489L8.50015 11.5C8.50015 11.513 8.50515 11.585 8.64615 11.71C8.78715 11.835 9.01815 11.97 9.34715 12.092C10.0021 12.338 10.9391 12.5 12.0001 12.5C13.0611 12.5 13.9981 12.338 14.6531 12.092C14.9821 11.969 15.2131 11.834 15.3531 11.71C15.4139 11.6633 15.462 11.6021 15.4931 11.532L15.5001 11.5L15.4931 11.468C15.462 11.3979 15.4139 11.3367 15.3531 11.29C15.2131 11.166 14.9821 11.03 14.6531 10.908C14.2131 10.743 13.6451 10.615 12.9991 10.55Z" fill="#1270EC"/>
</svg>
