<svg width="24" height="23" viewBox="0 0 24 23" fill="none" xmlns="http://www.w3.org/2000/svg">
<path d="M11.8157 22.7019C18.0142 22.7019 23.1667 17.5605 23.1667 11.3509C23.1667 5.15244 18.0031 0 11.8046 0C5.59497 0 0.464844 5.15244 0.464844 11.3509C0.464844 17.5605 5.60613 22.7019 11.8157 22.7019ZM11.8157 5.10795C12.0828 5.10795 12.2942 5.2192 12.5391 5.4529L16.6343 9.55929C16.779 9.71508 16.8903 9.92651 16.8903 10.1824C16.8903 10.6832 16.5008 11.0727 16 11.0727C15.7329 11.0727 15.5104 10.9726 15.3545 10.8057L13.8633 9.29221L12.6281 7.82324L12.7283 10.3939V16.7037C12.7283 17.2378 12.3499 17.6051 11.8157 17.6051C11.2816 17.6051 10.9032 17.2378 10.9032 16.7037V10.3939L10.9922 7.83436L9.77927 9.29221L8.27693 10.8057C8.12115 10.9615 7.88744 11.0727 7.63147 11.0727C7.11958 11.0727 6.75232 10.6832 6.75232 10.1824C6.75232 9.92651 6.84139 9.71508 6.99713 9.55929L11.1035 5.4529C11.3483 5.20809 11.5487 5.10795 11.8157 5.10795Z" fill="white"/>
</svg>
