<svg width="22" height="21" viewBox="0 0 22 21" fill="none" xmlns="http://www.w3.org/2000/svg">
<path d="M0 10.0114C0 10.4717 0.357865 10.7498 0.800516 10.7498C1.07364 10.7498 1.29022 10.6156 1.4786 10.4237L10.6703 1.89871C10.7739 1.79323 10.887 1.75485 11.0094 1.75485C11.1224 1.75485 11.226 1.79323 11.339 1.89871L20.5214 10.4237C20.7191 10.6156 20.9357 10.7498 21.1994 10.7498C21.642 10.7498 22 10.4717 22 10.0114C22 9.72373 21.8964 9.54153 21.7174 9.37853L18.4588 6.3578V0.690443C18.4588 0.268485 18.1951 0 17.7808 0H16.547C16.1421 0 15.8595 0.268485 15.8595 0.690443V3.95085L12.1301 0.479485C11.8005 0.163006 11.3955 0.00957417 11 0.00957417C10.6044 0.00957417 10.2089 0.163006 9.86983 0.479485L0.282523 9.37853C0.113033 9.54153 0 9.72373 0 10.0114ZM2.69347 18.057C2.69347 19.3899 3.48459 20.1667 4.8125 20.1667H8.62666V13.3486C8.62666 12.9074 8.91863 12.6197 9.35188 12.6197H12.6763C13.1095 12.6197 13.3921 12.9074 13.3921 13.3486V20.1667H17.1968C18.5247 20.1667 19.3065 19.3899 19.3065 18.057V11.0375L11.3108 3.70151C11.2071 3.60561 11.0941 3.55769 10.9812 3.55769C10.8775 3.55769 10.7739 3.60561 10.6609 3.71113L2.69347 11.0854V18.057Z" fill="white"/>
</svg>
