<svg width="28" height="28" viewBox="0 0 28 28" fill="none" xmlns="http://www.w3.org/2000/svg">
<path d="M28 14C28 21.732 21.732 28 14 28C6.26801 28 0 21.732 0 14C0 6.26801 6.26801 0 14 0C21.732 0 28 6.26801 28 14Z" fill="#3F3F40" fill-opacity="0.6"/>
<path d="M19.1445 12.2852C20.0874 12.2852 20.8588 13.0566 20.8588 13.9994C20.8588 14.9423 20.0874 15.7137 19.1445 15.7137C18.2017 15.7137 17.4302 14.9423 17.4302 13.9994C17.4302 13.0566 18.2017 12.2852 19.1445 12.2852ZM14.0017 15.7137C13.0588 15.7137 12.2874 14.9423 12.2874 13.9994C12.2874 13.0566 13.0588 12.2852 14.0017 12.2852C14.9445 12.2852 15.716 13.0566 15.716 13.9994C15.716 14.9423 14.9445 15.7137 14.0017 15.7137ZM8.85882 15.7137C7.91596 15.7137 7.14453 14.9423 7.14453 13.9994C7.14453 13.0566 7.91596 12.2852 8.85882 12.2852C9.80167 12.2852 10.5731 13.0566 10.5731 13.9994C10.5731 14.9423 9.80167 15.7137 8.85882 15.7137Z" fill="white"/>
</svg>
