<svg width="24" height="24" viewBox="0 0 24 24" fill="none" xmlns="http://www.w3.org/2000/svg">
<path d="M12 16.5C11.223 16.4988 10.4596 16.2965 9.78408 15.9127C9.10852 15.5289 8.54384 14.9768 8.145 14.31L6.8625 15.06C7.39645 15.9451 8.15 16.6772 9.0501 17.1854C9.95021 17.6936 10.9663 17.9606 12 17.9606C13.0337 17.9606 14.0498 17.6936 14.9499 17.1854C15.85 16.6772 16.6036 15.9451 17.1375 15.06L15.855 14.31C15.4562 14.9768 14.8915 15.5289 14.2159 15.9127C13.5404 16.2965 12.777 16.4988 12 16.5ZM22.5 3H19.5V0H18V3H15V4.5H18V7.5H19.5V4.5H22.5V3ZM8.625 8.25C8.25416 8.25 7.89165 8.35997 7.58331 8.56599C7.27496 8.77202 7.03464 9.06486 6.89273 9.40747C6.75081 9.75008 6.71368 10.1271 6.78603 10.4908C6.85838 10.8545 7.03695 11.1886 7.29918 11.4508C7.5614 11.713 7.89549 11.8916 8.25921 11.964C8.62292 12.0363 8.99992 11.9992 9.34253 11.8573C9.68514 11.7154 9.97798 11.475 10.184 11.1667C10.39 10.8584 10.5 10.4958 10.5 10.125C10.502 9.87821 10.4549 9.6335 10.3613 9.40511C10.2678 9.17672 10.1298 8.96923 9.95528 8.79472C9.78077 8.62021 9.57328 8.48217 9.34489 8.38865C9.1165 8.29513 8.87179 8.248 8.625 8.25ZM15.375 8.25C15.0042 8.25 14.6416 8.35997 14.3333 8.56599C14.025 8.77202 13.7846 9.06486 13.6427 9.40747C13.5008 9.75008 13.4637 10.1271 13.536 10.4908C13.6084 10.8545 13.787 11.1886 14.0492 11.4508C14.3114 11.713 14.6455 11.8916 15.0092 11.964C15.3729 12.0363 15.7499 11.9992 16.0925 11.8573C16.4351 11.7154 16.728 11.475 16.934 11.1667C17.14 10.8584 17.25 10.4958 17.25 10.125C17.252 9.87821 17.2049 9.6335 17.1113 9.40511C17.0178 9.17672 16.8798 8.96923 16.7053 8.79472C16.5308 8.62021 16.3233 8.48217 16.0949 8.38865C15.8665 8.29513 15.6218 8.248 15.375 8.25Z" fill="#007AFF"/>
<path d="M20.7072 9.75C20.8969 10.4851 20.9951 11.2408 20.9997 12C20.9997 13.78 20.4718 15.5201 19.4829 17.0001C18.494 18.4802 17.0884 19.6337 15.4438 20.3149C13.7993 20.9961 11.9897 21.1743 10.2439 20.8271C8.49805 20.4798 6.8944 19.6226 5.63573 18.364C4.37706 17.1053 3.51989 15.5016 3.17262 13.7558C2.82536 12.01 3.00359 10.2004 3.68477 8.55585C4.36596 6.91131 5.51952 5.50571 6.99956 4.51677C8.4796 3.52784 10.2197 3 11.9997 3V1.5C9.82617 1.49926 7.70599 2.17304 5.93165 3.42839C4.15731 4.68374 2.81627 6.45878 2.09355 8.50863C1.37083 10.5585 1.30205 12.7821 1.8967 14.8727C2.49135 16.9633 3.72011 18.8178 5.41347 20.1804C7.10683 21.543 9.18131 22.3466 11.3507 22.4801C13.5201 22.6137 15.6775 22.0708 17.5253 20.9263C19.373 19.7817 20.8201 18.0919 21.6667 16.0901C22.5134 14.0883 22.7179 11.873 22.2522 9.75H20.7072Z" fill="#4285F4"/>
</svg>
