<svg width="24" height="24" viewBox="0 0 24 24" fill="none" xmlns="http://www.w3.org/2000/svg">
<path d="M18.7537 10.5175C18.7537 11.1425 16.5157 11.6655 13.5157 11.7975L13.5177 11.7985C13.0182 11.8259 12.5179 11.8369 12.0177 11.8315C11.2387 11.8315 10.6877 11.8085 10.4937 11.7995C7.48769 11.6665 5.24369 11.1435 5.24369 10.5175C5.24369 9.89155 7.48769 9.36755 10.4937 9.23355V11.2775C10.6897 11.2925 11.2527 11.3255 12.0307 11.3255C12.9637 11.3255 13.4307 11.2855 13.5157 11.2785V9.23555C16.5157 9.36855 18.7537 9.89255 18.7537 10.5175ZM23.9437 11.0635L12.1237 22.3895C12.0902 22.4216 12.0456 22.4395 11.9992 22.4395C11.9528 22.4395 11.9082 22.4216 11.8747 22.3895L0.055691 11.0635C0.0282238 11.0373 0.00975629 11.0031 0.00293088 10.9657C-0.00389452 10.9284 0.00127191 10.8898 0.017691 10.8555L4.39369 1.66355C4.4083 1.63269 4.43138 1.60662 4.46024 1.58838C4.4891 1.57014 4.52255 1.56049 4.55669 1.56055H19.4447C19.4783 1.56105 19.5111 1.57097 19.5394 1.58918C19.5677 1.60738 19.5903 1.63315 19.6047 1.66355L23.9817 10.8555C23.9981 10.8898 24.0033 10.9284 23.9965 10.9657C23.9896 11.0031 23.9712 11.0373 23.9437 11.0635ZM19.4657 10.6595C19.4657 9.85355 16.9137 9.17955 13.5187 9.02255V7.19455H17.7047V4.40455H6.30769V7.19455H10.4927V9.02355C7.09069 9.17955 4.53269 9.85355 4.53269 10.6605C4.53269 11.4685 7.09069 12.1405 10.4927 12.2985V18.1605H13.5177V12.2965C16.9117 12.1395 19.4657 11.4665 19.4657 10.6595Z" fill="white"/>
</svg>
