<svg width="20" height="21" viewBox="0 0 20 21" fill="none" xmlns="http://www.w3.org/2000/svg">
<path d="M2.86105 16.4875H4.55578V18.0845C4.55578 19.9972 5.50343 20.9629 7.41687 20.9629H17.1481C19.0433 20.9629 20 19.9972 20 18.0845V8.21452C20 6.31108 19.0433 5.34543 17.1481 5.34543H15.4533V3.84125C15.4533 1.92854 14.4966 0.962891 12.5922 0.962891H2.86105C0.956704 0.962891 0 1.92854 0 3.84125V13.6184C0 15.5311 0.956704 16.4875 2.86105 16.4875ZM2.88838 14.9926C1.97724 14.9926 1.46699 14.5005 1.46699 13.5349V3.92484C1.46699 2.95919 1.97724 2.45777 2.88838 2.45777H12.574C13.4669 2.45777 13.9863 2.95919 13.9863 3.92484V5.34543H7.41687C5.50343 5.34543 4.55578 6.30181 4.55578 8.21452V14.9926H2.88838ZM7.43507 19.468C6.52393 19.468 6.02277 18.9666 6.02277 18.0009V8.29807C6.02277 7.33242 6.52393 6.84031 7.43507 6.84031H17.1207C18.0227 6.84031 18.5331 7.33242 18.5331 8.29807V18.0103C18.5331 18.9666 18.0227 19.468 17.1207 19.468H7.43507Z" fill="#007AFF"/>
</svg>
