<svg width="20" height="19" viewBox="0 0 20 19" fill="none" xmlns="http://www.w3.org/2000/svg">
<path d="M10.28 16.6044C10.9832 16.5564 11.6806 16.444 12.3633 16.2689C13.2066 16.5224 14.0967 16.5798 14.9656 16.4367C15.0002 16.4324 15.0351 16.4298 15.07 16.4289C15.38 16.4289 15.7867 16.6067 16.38 16.9811V16.3656C16.3803 16.2583 16.4093 16.1531 16.464 16.0609C16.5187 15.9686 16.5971 15.8927 16.6911 15.8411C16.9496 15.6952 17.1885 15.5311 17.4078 15.3489C18.2722 14.6267 18.76 13.6622 18.76 12.6422C18.76 12.3056 18.7067 11.97 18.6011 11.65C18.8633 11.1678 19.0722 10.6644 19.2278 10.14C19.7278 10.8789 19.9967 11.7511 20 12.6422C20 14.0289 19.3467 15.3222 18.2144 16.2678C18.0248 16.4256 17.8267 16.5707 17.62 16.7033V18.1456C17.62 18.6411 17.04 18.9267 16.6311 18.6311C16.2437 18.346 15.8433 18.0791 15.4311 17.8311C15.312 17.7625 15.1888 17.7012 15.0622 17.6478C14.7183 17.6987 14.371 17.7243 14.0233 17.7244C12.6122 17.7244 11.3078 17.3056 10.28 16.6044ZM2.81222 13.7211C1.03 12.2289 0 10.1944 0 8.01444C0 3.56111 4.25778 0 9.45667 0C14.6567 0 18.9156 3.56 18.9156 8.01444C18.9156 12.4678 14.6567 16.0278 9.45667 16.0278C8.87222 16.0278 8.2963 15.9833 7.72889 15.8944C7.48445 15.9511 6.50445 16.5256 5.09333 17.5422C4.58222 17.9111 3.85778 17.5556 3.85778 16.9344V14.4756C3.4918 14.2493 3.14274 13.9968 2.81333 13.72M7.76333 14.3778C7.8063 14.3778 7.84963 14.3811 7.89333 14.3878C8.40444 14.4722 8.92556 14.5148 9.45667 14.5156C13.8489 14.5156 17.3633 11.5767 17.3633 8.01333C17.3633 4.45111 13.8489 1.51222 9.45778 1.51222C5.06667 1.51222 1.55 4.45333 1.55 8.01444C1.55 9.73667 2.37222 11.3589 3.82333 12.5733C4.18926 12.8785 4.58778 13.1526 5.01889 13.3956C5.13583 13.4605 5.23346 13.5552 5.30178 13.6702C5.3701 13.7852 5.40668 13.9163 5.40778 14.05V15.4678C6.52445 14.7289 7.25889 14.3778 7.76333 14.3778Z" fill="#1270EC"/>
<path d="M5.62451 9.37549C5.95603 9.37549 6.27398 9.24379 6.5084 9.00937C6.74282 8.77495 6.87451 8.45701 6.87451 8.12549C6.87451 7.79397 6.74282 7.47603 6.5084 7.2416C6.27398 7.00718 5.95603 6.87549 5.62451 6.87549C5.29299 6.87549 4.97505 7.00718 4.74063 7.2416C4.50621 7.47603 4.37451 7.79397 4.37451 8.12549C4.37451 8.45701 4.50621 8.77495 4.74063 9.00937C4.97505 9.24379 5.29299 9.37549 5.62451 9.37549ZM9.68784 9.37549C10.0194 9.37549 10.3373 9.24379 10.5717 9.00937C10.8061 8.77495 10.9378 8.45701 10.9378 8.12549C10.9378 7.79397 10.8061 7.47603 10.5717 7.2416C10.3373 7.00718 10.0194 6.87549 9.68784 6.87549C9.35632 6.87549 9.03838 7.00718 8.80396 7.2416C8.56954 7.47603 8.43784 7.79397 8.43784 8.12549C8.43784 8.45701 8.56954 8.77495 8.80396 9.00937C9.03838 9.24379 9.35632 9.37549 9.68784 9.37549ZM13.7501 9.37549C14.0816 9.37549 14.3995 9.24379 14.634 9.00937C14.8684 8.77495 15.0001 8.45701 15.0001 8.12549C15.0001 7.79397 14.8684 7.47603 14.634 7.2416C14.3995 7.00718 14.0816 6.87549 13.7501 6.87549C13.4185 6.87549 13.1006 7.00718 12.8662 7.2416C12.6318 7.47603 12.5001 7.79397 12.5001 8.12549C12.5001 8.45701 12.6318 8.77495 12.8662 9.00937C13.1006 9.24379 13.4185 9.37549 13.7501 9.37549Z" fill="#1270EC"/>
</svg>
