<svg width="20" height="20" viewBox="0 0 20 20" fill="none" xmlns="http://www.w3.org/2000/svg">
<path d="M10.6437 1.27366C10.4295 1.25785 10.2148 1.24992 10 1.24991V0C10.2457 0.000119776 10.4912 0.00929202 10.7362 0.0274981L10.6437 1.27366ZM13.1485 1.83612C12.7479 1.68151 12.3364 1.5566 11.9174 1.4624L12.1911 0.242483C12.6698 0.349975 13.141 0.492465 13.5985 0.669953L13.1485 1.83612ZM14.8609 2.72356C14.6822 2.60438 14.4992 2.49181 14.3122 2.38608L14.9284 1.29866C15.3558 1.54081 15.7647 1.81403 16.1521 2.1161L15.3834 3.10228C15.2139 2.97008 15.0396 2.84417 14.8609 2.72481V2.72356ZM17.1532 4.9609C16.906 4.60965 16.6332 4.2771 16.3371 3.96597L17.242 3.10353C17.5795 3.45976 17.8919 3.84098 18.1757 4.24095L17.1532 4.9609ZM18.0832 6.65078C18.0011 6.45262 17.9119 6.2575 17.8157 6.06582L18.9319 5.50336C19.1526 5.94219 19.3406 6.39673 19.4943 6.86327L18.3069 7.25449C18.2397 7.05059 18.1651 6.84922 18.0832 6.65078ZM18.7456 9.78431C18.7355 9.35477 18.6937 8.92655 18.6206 8.50315L19.8518 8.29067C19.9356 8.77313 19.9843 9.2631 19.9968 9.75307L18.7469 9.78431H18.7456ZM18.5819 11.7067C18.6231 11.4942 18.6569 11.283 18.6831 11.0692L19.9243 11.223C19.8643 11.7106 19.7682 12.1932 19.6368 12.6666L18.4319 12.3329C18.4894 12.1266 18.5394 11.9179 18.5819 11.7067ZM17.392 14.6802C17.622 14.3177 17.8244 13.9378 17.9994 13.5453L19.1419 14.0515C18.9419 14.5015 18.7106 14.934 18.4482 15.3489L17.392 14.6802ZM16.1871 16.1864C16.3396 16.0339 16.4858 15.8764 16.6245 15.7139L17.572 16.5301C17.4115 16.7161 17.2443 16.8962 17.0708 17.0701L16.1871 16.1864Z" fill="#818C99"/>
<path d="M9.9993 1.24991C8.5605 1.25002 7.14393 1.60495 5.87506 2.28326C4.60619 2.96158 3.52418 3.94235 2.72488 5.1387C1.92557 6.33505 1.43364 7.71006 1.29265 9.14193C1.15166 10.5738 1.36597 12.0184 1.91658 13.3476C2.4672 14.6769 3.33714 15.8499 4.44934 16.7626C5.56155 17.6754 6.88169 18.2998 8.29283 18.5805C9.70398 18.8613 11.1626 18.7896 12.5394 18.372C13.9163 17.9544 15.1689 17.2037 16.1864 16.1864L17.07 17.0701C15.9073 18.2334 14.4755 19.0921 12.9016 19.5699C11.3277 20.0477 9.66028 20.1299 8.04701 19.8092C6.43374 19.4885 4.92447 18.7749 3.65293 17.7315C2.38138 16.6882 1.38682 15.3473 0.757363 13.8276C0.127906 12.308 -0.117011 10.6566 0.0443127 9.0197C0.205636 7.3828 0.768219 5.81097 1.68221 4.44346C2.59621 3.07595 3.8334 1.955 5.28416 1.17992C6.73492 0.404841 8.35447 -0.000435885 9.9993 3.51798e-07V1.24991Z" fill="#818C99"/>
<path d="M9.37496 3.75C9.5407 3.75 9.69966 3.81584 9.81687 3.93305C9.93407 4.05025 9.99991 4.20921 9.99991 4.37496V10.887L14.0596 13.2068C14.1994 13.2911 14.3006 13.4267 14.3416 13.5847C14.3827 13.7426 14.3604 13.9103 14.2794 14.052C14.1985 14.1937 14.0653 14.2981 13.9084 14.3429C13.7515 14.3877 13.5832 14.3693 13.4397 14.2918L9.06498 11.7919C8.96933 11.7373 8.88981 11.6583 8.8345 11.5631C8.77919 11.4678 8.75004 11.3596 8.75 11.2495V4.37496C8.75 4.20921 8.81584 4.05025 8.93305 3.93305C9.05025 3.81584 9.20921 3.75 9.37496 3.75Z" fill="#818C99"/>
</svg>
