<svg width="24" height="24" viewBox="0 0 24 24" fill="none" xmlns="http://www.w3.org/2000/svg">
<path d="M20.1774 16C19.9601 15.9977 19.7526 15.9267 19.5989 15.8022C19.4453 15.6777 19.3577 15.5094 19.3548 15.3333V13.5556C19.3548 13.4966 19.326 13.4401 19.2745 13.3984C19.2231 13.3567 19.1534 13.3333 19.0806 13.3333H5.91935C5.84663 13.3333 5.77689 13.3567 5.72547 13.3984C5.67405 13.4401 5.64516 13.4966 5.64516 13.5556V15.3333C5.64516 15.5101 5.5585 15.6797 5.40423 15.8047C5.24997 15.9298 5.04074 16 4.82258 16C4.60442 16 4.39519 15.9298 4.24093 15.8047C4.08666 15.6797 4 15.5101 4 15.3333V13.5556C4.00288 13.1437 4.20602 12.7494 4.56535 12.4582C4.92467 12.167 5.4112 12.0023 5.91935 12H19.0806C19.5888 12.0023 20.0753 12.167 20.4347 12.4582C20.794 12.7494 20.9971 13.1437 21 13.5556V15.3333C20.9972 15.5094 20.9096 15.6777 20.7559 15.8022C20.6023 15.9267 20.3947 15.9977 20.1774 16V16Z" fill="#007AFF"/>
<path d="M12.81 13C12.596 12.9986 12.3916 12.956 12.2403 12.8813C12.089 12.8066 12.0028 12.7057 12 12.6V9.4C12 9.29391 12.0853 9.19217 12.2372 9.11716C12.3891 9.04214 12.5952 9 12.81 9C13.0248 9 13.2309 9.04214 13.3828 9.11716C13.5347 9.19217 13.62 9.29391 13.62 9.4V12.6C13.6172 12.7057 13.531 12.8066 13.3797 12.8813C13.2284 12.956 13.024 12.9986 12.81 13V13Z" fill="#007AFF"/>
<path d="M12.9999 1.90001C12.189 1.90003 11.3964 2.14049 10.7222 2.59098C10.0479 3.0415 9.52241 3.68183 9.2121 4.431C8.90178 5.18018 8.82058 6.00455 8.97878 6.79987C9.13698 7.59519 9.52747 8.32574 10.1009 8.89914C10.6743 9.47253 11.4048 9.86302 12.2001 10.0212C12.9955 10.1794 13.8198 10.0982 14.569 9.7879C15.3182 9.47759 15.9585 8.95208 16.409 8.27784C16.8595 7.6036 17.1 6.8109 17.1 6V5.9H17H16.1111H16.0111V6C16.0111 7.66033 14.6603 9.01111 13 9.01111C11.3397 9.01111 9.98889 7.66033 9.98889 6C9.98889 4.33968 11.3397 2.9889 13 2.9889C13.7939 2.9889 14.5172 3.29966 15.0571 3.80144L13.8182 5.0404L13.6475 5.21112H13.8889H17H17.1V5.11111V2.00001V1.75859L16.9293 1.9293L15.826 3.03254C15.4619 2.6834 15.0357 2.40478 14.5692 2.21113C14.0718 2.00467 13.5384 1.89892 12.9999 1.90001ZM12.9999 1.90001C12.9999 1.90001 13 1.90001 13 1.90001V2.00001L12.9998 1.90001C12.9998 1.90001 12.9999 1.90001 12.9999 1.90001ZM12.5556 4.12223H12.4556V4.22223V6.44445V6.50141L12.5046 6.53046L14.3934 7.65046L14.4789 7.70114L14.5301 7.61599L14.8724 7.04711L14.9242 6.96092L14.8377 6.90957L13.3222 6.00975V4.22223V4.12223H13.2222H12.5556Z" fill="#007AFF" stroke="#007AFF" stroke-width="0.2"/>
<path d="M19.0001 14.9C19.811 14.9 20.6036 15.1405 21.2778 15.591C21.9521 16.0415 22.4776 16.6818 22.7879 17.431C23.0982 18.1802 23.1794 19.0046 23.0212 19.7999C22.863 20.5952 22.4725 21.3257 21.8991 21.8991C21.3257 22.4725 20.5952 22.863 19.7999 23.0212C19.0045 23.1794 18.1802 23.0982 17.431 22.7879C16.6818 22.4776 16.0415 21.9521 15.591 21.2778C15.1405 20.6036 14.9 19.8109 14.9 19V18.9H15H15.8889H15.9889V19C15.9889 20.6603 17.3397 22.0111 19 22.0111C20.6603 22.0111 22.0111 20.6603 22.0111 19C22.0111 17.3397 20.6603 15.9889 19 15.9889C18.2061 15.9889 17.4828 16.2997 16.9429 16.8014L18.1818 18.0404L18.3525 18.2111H18.1111H15H14.9V18.1111V15V14.7586L15.0707 14.9293L16.174 16.0325C16.5381 15.6834 16.9643 15.4048 17.4308 15.2111C17.9282 15.0047 18.4616 14.8989 19.0001 14.9ZM19.0001 14.9C19.0001 14.9 19 14.9 19 14.9V15L19.0002 14.9C19.0002 14.9 19.0001 14.9 19.0001 14.9ZM19.4444 17.1222H19.5444V17.2222V19.4444V19.5014L19.4954 19.5305L17.6066 20.6505L17.5211 20.7011L17.4699 20.616L17.1276 20.0471L17.0758 19.9609L17.1623 19.9096L18.6778 19.0097V17.2222V17.1222H18.7778H19.4444Z" fill="#007AFF" stroke="#007AFF" stroke-width="0.2"/>
<path d="M5.9999 14.9C5.18903 14.9 4.39638 15.1405 3.72216 15.591C3.04792 16.0415 2.52241 16.6818 2.2121 17.431C1.90178 18.1802 1.82058 19.0046 1.97878 19.7999C2.13698 20.5952 2.52747 21.3257 3.10086 21.8991C3.67426 22.4725 4.40481 22.863 5.20013 23.0212C5.99545 23.1794 6.81983 23.0982 7.569 22.7879C8.31818 22.4776 8.95851 21.9521 9.40903 21.2778C9.85954 20.6036 10.1 19.8109 10.1 19V18.9H10H9.11111H9.01111V19C9.01111 20.6603 7.66033 22.0111 6 22.0111C4.33967 22.0111 2.98889 20.6603 2.98889 19C2.98889 17.3397 4.33967 15.9889 6 15.9889C6.79388 15.9889 7.51723 16.2997 8.05714 16.8014L6.81818 18.0404L6.64747 18.2111H6.88889H10H10.1V18.1111V15V14.7586L9.92929 14.9293L8.82604 16.0325C8.46185 15.6834 8.03572 15.4048 7.56922 15.2111C7.07183 15.0047 6.53843 14.8989 5.9999 14.9ZM5.9999 14.9C5.99993 14.9 5.99997 14.9 6 14.9V15L5.9998 14.9C5.99983 14.9 5.99986 14.9 5.9999 14.9ZM5.55556 17.1222H5.45556V17.2222V19.4444V19.5014L5.50455 19.5305L7.39344 20.6505L7.47891 20.7011L7.53014 20.616L7.87236 20.0471L7.9242 19.9609L7.83772 19.9096L6.32222 19.0097V17.2222V17.1222H6.22222H5.55556Z" fill="#007AFF" stroke="#007AFF" stroke-width="0.2"/>
</svg>
