<svg width="24" height="24" viewBox="0 0 24 24" fill="none" xmlns="http://www.w3.org/2000/svg">
<g clip-path="url(#clip0_19144_7809)">
<path d="M20.8121 20.8121C20.2578 21.3663 19.506 21.6777 18.7222 21.6777C17.9383 21.6777 17.1865 21.3663 16.6323 20.8121C16.078 20.2578 15.7666 19.506 15.7666 18.7222C15.7666 17.9383 16.078 17.1866 16.6323 16.6323C17.1865 16.078 17.9383 15.7666 18.7222 15.7666C19.506 15.7666 20.2578 16.078 20.8121 16.6323C21.3663 17.1866 21.6777 17.9383 21.6777 18.7222C21.6777 19.506 21.3663 20.2578 20.8121 20.8121ZM18.7222 23.1C19.8832 23.1 20.9967 22.6387 21.8177 21.8177C22.6387 20.9967 23.0999 19.8832 23.0999 18.7222C23.0999 17.5611 22.6387 16.4476 21.8177 15.6266C20.9967 14.8056 19.8832 14.3444 18.7222 14.3444C17.5611 14.3444 16.4476 14.8056 15.6266 15.6266C14.8056 16.4476 14.3444 17.5611 14.3444 18.7222C14.3444 19.8832 14.8056 20.9967 15.6266 21.8177C16.4476 22.6387 17.5611 23.1 18.7222 23.1Z" fill="#007AFF" stroke="#007AFF" stroke-width="0.2"/>
<path d="M19.8373 18.8317L19.8373 18.8317L19.836 18.8305L19.4333 18.4277V17.1943C19.4333 17.0057 19.3584 16.8249 19.225 16.6915C19.0916 16.5582 18.9108 16.4832 18.7222 16.4832C18.5336 16.4832 18.3527 16.5582 18.2193 16.6915C18.086 16.8249 18.011 17.0057 18.011 17.1943V18.9751V19.0165L18.0403 19.0458L18.8305 19.836L18.8305 19.836L18.8317 19.8372C18.9659 19.9668 19.1455 20.0384 19.3319 20.0368C19.5184 20.0352 19.6967 19.9604 19.8286 19.8286C19.9604 19.6967 20.0352 19.5184 20.0368 19.3319C20.0385 19.1455 19.9668 18.9658 19.8373 18.8317ZM4.7666 12.511V11.4888H5.78883V12.511H4.7666ZM4.6666 10.0666C4.31593 10.0666 3.97962 10.2059 3.73165 10.4538C3.48369 10.7018 3.34438 11.0381 3.34438 11.3888V12.611C3.34438 12.9617 3.48369 13.298 3.73165 13.546C3.97962 13.7939 4.31593 13.9332 4.6666 13.9332H5.88883C6.2395 13.9332 6.57581 13.7939 6.82378 13.546C7.07174 13.298 7.21105 12.9617 7.21105 12.611V11.3888C7.21105 11.0381 7.07174 10.7018 6.82378 10.4538C6.57581 10.2059 6.2395 10.0666 5.88883 10.0666H4.6666ZM9.65549 12.511V11.4888H10.6777V12.511H9.65549ZM9.55549 10.0666C9.20482 10.0666 8.86851 10.2059 8.62054 10.4538C8.37258 10.7018 8.23327 11.0381 8.23327 11.3888V12.611C8.23327 12.9617 8.37258 13.298 8.62054 13.546C8.86851 13.7939 9.20482 13.9332 9.55549 13.9332H10.7777C11.1284 13.9332 11.4647 13.7939 11.7127 13.546C11.9606 13.298 12.0999 12.9617 12.0999 12.611V11.3888C12.0999 11.0381 11.9606 10.7018 11.7127 10.4538C11.4647 10.2059 11.1284 10.0666 10.7777 10.0666H9.55549ZM14.5444 12.511V11.4888H15.5666V12.511H14.5444ZM14.4444 10.0666C14.0937 10.0666 13.7574 10.2059 13.5094 10.4538C13.2615 10.7018 13.1222 11.0381 13.1222 11.3888V12.611C13.1222 12.9617 13.2615 13.298 13.5094 13.546C13.7574 13.7939 14.0937 13.9332 14.4444 13.9332H15.6666C16.0173 13.9332 16.3536 13.7939 16.6016 13.546C16.8495 13.298 16.9888 12.9617 16.9888 12.611V11.3888C16.9888 11.0381 16.8495 10.7018 16.6016 10.4538C16.3536 10.2059 16.0173 10.0666 15.6666 10.0666H14.4444ZM4.7666 17.3999V16.3777H5.78883V17.3999H4.7666ZM4.6666 14.9555C4.31593 14.9555 3.97962 15.0948 3.73165 15.3427C3.48369 15.5907 3.34438 15.927 3.34438 16.2777V17.4999C3.34438 17.8506 3.48369 18.1869 3.73165 18.4349C3.97962 18.6828 4.31593 18.8221 4.6666 18.8221H5.88883C6.2395 18.8221 6.57581 18.6828 6.82378 18.4349C7.07174 18.1869 7.21105 17.8506 7.21105 17.4999V16.2777C7.21105 15.927 7.07174 15.5907 6.82378 15.3427C6.57581 15.0948 6.2395 14.9555 5.88883 14.9555H4.6666ZM9.65549 17.3999V16.3777H10.6777V17.3999H9.65549ZM9.55549 14.9555C9.20482 14.9555 8.86851 15.0948 8.62054 15.3427C8.37258 15.5907 8.23327 15.927 8.23327 16.2777V17.4999C8.23327 17.8506 8.37258 18.1869 8.62054 18.4349C8.86851 18.6828 9.20482 18.8221 9.55549 18.8221H10.7777C11.1284 18.8221 11.4647 18.6828 11.7127 18.4349C11.9606 18.1869 12.0999 17.8506 12.0999 17.4999V16.2777C12.0999 15.927 11.9606 15.5907 11.7127 15.3427C11.4647 15.0948 11.1284 14.9555 10.7777 14.9555H9.55549Z" fill="#007AFF" stroke="#007AFF" stroke-width="0.2"/>
<path d="M5.88889 4.15566H5.98889V4.05566V2.83344V2.73344H5.88889H2.83333C2.32058 2.73344 1.82883 2.93712 1.46626 3.29969C1.10369 3.66227 0.9 4.15402 0.9 4.66677V19.3334C0.9 19.8462 1.10369 20.3379 1.46626 20.7005C1.82883 21.0631 2.32058 21.2668 2.83333 21.2668H15.2114H15.4032L15.2934 21.1095C15.0389 20.745 14.8445 20.342 14.7175 19.916L14.6962 19.8445H14.6217H2.83333C2.69778 19.8445 2.56777 19.7907 2.47192 19.6948C2.37607 19.599 2.32222 19.469 2.32222 19.3334V4.66677C2.32222 4.53121 2.37607 4.40121 2.47192 4.30536C2.56778 4.20951 2.69778 4.15566 2.83333 4.15566H5.88889ZM18.0111 14.4873V14.6026L18.1253 14.5863C18.5212 14.5297 18.9232 14.5297 19.3192 14.5863L19.4333 14.6026V14.4873V4.66677C19.4333 4.15402 19.2296 3.66227 18.8671 3.29969C18.5045 2.93712 18.0128 2.73344 17.5 2.73344H15.6667H15.5667V2.83344V4.05566V4.15566H15.6667H17.5C17.6356 4.15566 17.7656 4.20951 17.8614 4.30536C17.9573 4.40121 18.0111 4.53121 18.0111 4.66677V14.4873ZM7.01111 4.05566V4.15566H7.11111H13.5663H13.6663V4.05566V2.83344V2.73344H13.5663H7.11111H7.01111V2.83344V4.05566Z" fill="#007AFF" stroke="#007AFF" stroke-width="0.2"/>
<path d="M19.3336 8.43343H19.4336V8.33343V7.11121V7.01121H19.3336H2.22246H2.12246V7.11121V8.33343V8.43343H2.22246H19.3336Z" fill="#007AFF" stroke="#007AFF" stroke-width="0.2"/>
<path d="M14.3363 1.10828L14.2658 1.17878L14.3363 1.10828C14.203 0.974921 14.0221 0.9 13.8335 0.9C13.6449 0.9 13.464 0.97492 13.3307 1.10828C13.1973 1.24164 13.1224 1.42251 13.1224 1.61111V4.66667C13.1224 4.85526 13.1973 5.03614 13.3307 5.1695C13.464 5.30286 13.6449 5.37778 13.8335 5.37778C14.0221 5.37778 14.203 5.30286 14.3363 5.1695C14.4697 5.03614 14.5446 4.85526 14.5446 4.66667V1.61111C14.5446 1.42251 14.4697 1.24164 14.3363 1.10828ZM4.77512 1.10828C4.64176 1.24164 4.56684 1.42251 4.56684 1.61111V4.66667C4.56684 4.85527 4.64176 5.03614 4.77512 5.1695C4.90848 5.30286 5.08935 5.37778 5.27795 5.37778C5.46655 5.37778 5.64742 5.30286 5.78078 5.1695C5.91414 5.03614 5.98906 4.85527 5.98906 4.66667V1.61111C5.98906 1.42251 5.91414 1.24164 5.78078 1.10828C5.64742 0.974921 5.46655 0.9 5.27795 0.9C5.08935 0.9 4.90848 0.974921 4.77512 1.10828Z" fill="#007AFF" stroke="#007AFF" stroke-width="0.2"/>
</g>
<defs>
<clipPath id="clip0_19144_7809">
<rect width="24" height="24" fill="white"/>
</clipPath>
</defs>
</svg>
