<svg width="16" height="15" viewBox="0 0 16 15" fill="none" xmlns="http://www.w3.org/2000/svg">
<path d="M15 6.99999H3.14L6.77 2.63999C7.12346 2.21473 7.06526 1.58346 6.64 1.22999C6.21474 0.876531 5.58346 0.934734 5.23 1.35999L0.23 7.35999C0.196361 7.40772 0.166279 7.45785 0.14 7.50999C0.14 7.55999 0.14 7.58999 0.07 7.63999C0.0246735 7.75465 0.000941121 7.8767 0 7.99999C0.000941121 8.12328 0.0246735 8.24533 0.07 8.35999C0.07 8.40999 0.07 8.43999 0.14 8.48999C0.166279 8.54213 0.196361 8.59227 0.23 8.63999L5.23 14.64C5.42036 14.8685 5.70257 15.0005 6 15C6.23365 15.0005 6.46009 14.9191 6.64 14.77C6.84451 14.6004 6.97315 14.3565 6.99754 14.092C7.02193 13.8274 6.94006 13.5641 6.77 13.36L3.14 8.99999H15C15.5523 8.99999 16 8.55228 16 7.99999C16 7.44771 15.5523 6.99999 15 6.99999Z" fill="#2C2D2E"/>
</svg>
