<svg width="24" height="24" viewBox="0 0 24 24" fill="none" xmlns="http://www.w3.org/2000/svg">
<path d="M14.1154 10H10.8846C10.3857 9.99717 9.90794 9.79771 9.55512 9.44488C9.20229 9.09206 9.00283 8.61434 9 8.11538V4.88462C9.00283 4.38566 9.20229 3.90794 9.55512 3.55511C9.90794 3.20229 10.3857 3.00283 10.8846 3H14.1154C14.6143 3.00283 15.0921 3.20229 15.4449 3.55511C15.7977 3.90794 15.9972 4.38566 16 4.88462V8.11538C15.9972 8.61434 15.7977 9.09206 15.4449 9.44488C15.0921 9.79771 14.6143 9.99717 14.1154 10ZM10.8846 4.61538C10.8132 4.61538 10.7447 4.64375 10.6942 4.69424C10.6438 4.74473 10.6154 4.81321 10.6154 4.88462V8.11538C10.6154 8.18679 10.6438 8.25527 10.6942 8.30576C10.7447 8.35625 10.8132 8.38461 10.8846 8.38461H14.1154C14.1868 8.38461 14.2553 8.35625 14.3058 8.30576C14.3563 8.25527 14.3846 8.18679 14.3846 8.11538V4.88462C14.3846 4.81321 14.3563 4.74473 14.3058 4.69424C14.2553 4.64375 14.1868 4.61538 14.1154 4.61538H10.8846ZM6.03846 20.7692H3.88462C3.38566 20.7664 2.90794 20.5669 2.55511 20.2141C2.20229 19.8613 2.00283 19.3836 2 18.8846V16.7308C2.00283 16.2318 2.20229 15.7541 2.55511 15.4013C2.90794 15.0484 3.38566 14.849 3.88462 14.8462H6.03846C6.53742 14.849 7.01514 15.0484 7.36796 15.4013C7.72079 15.7541 7.92025 16.2318 7.92308 16.7308V18.8846C7.92025 19.3836 7.72079 19.8613 7.36796 20.2141C7.01514 20.5669 6.53742 20.7664 6.03846 20.7692ZM3.88462 16.4615C3.81321 16.4615 3.74473 16.4899 3.69424 16.5404C3.64375 16.5909 3.61538 16.6594 3.61538 16.7308V18.8846C3.61538 18.956 3.64375 19.0245 3.69424 19.075C3.74473 19.1255 3.81321 19.1538 3.88462 19.1538H6.03846C6.10987 19.1538 6.17835 19.1255 6.22884 19.075C6.27933 19.0245 6.30769 18.956 6.30769 18.8846V16.7308C6.30769 16.6594 6.27933 16.5909 6.22884 16.5404C6.17835 16.4899 6.10987 16.4615 6.03846 16.4615H3.88462ZM13.5769 20.7692H11.4231C10.9241 20.7664 10.4464 20.5669 10.0936 20.2141C9.74075 19.8613 9.54129 19.3836 9.53846 18.8846V16.7308C9.54129 16.2318 9.74075 15.7541 10.0936 15.4013C10.4464 15.0484 10.9241 14.849 11.4231 14.8462H13.5769C14.0759 14.849 14.5536 15.0484 14.9064 15.4013C15.2592 15.7541 15.4587 16.2318 15.4615 16.7308V18.8846C15.4587 19.3836 15.2592 19.8613 14.9064 20.2141C14.5536 20.5669 14.0759 20.7664 13.5769 20.7692ZM11.4231 16.4615C11.3517 16.4615 11.2832 16.4899 11.2327 16.5404C11.1822 16.5909 11.1538 16.6594 11.1538 16.7308V18.8846C11.1538 18.956 11.1822 19.0245 11.2327 19.075C11.2832 19.1255 11.3517 19.1538 11.4231 19.1538H13.5769C13.6483 19.1538 13.7168 19.1255 13.7673 19.075C13.8178 19.0245 13.8462 18.956 13.8462 18.8846V16.7308C13.8462 16.6594 13.8178 16.5909 13.7673 16.5404C13.7168 16.4899 13.6483 16.4615 13.5769 16.4615H11.4231ZM21.1154 20.7692H18.9615C18.4626 20.7664 17.9849 20.5669 17.632 20.2141C17.2792 19.8613 17.0798 19.3836 17.0769 18.8846V16.7308C17.0798 16.2318 17.2792 15.7541 17.632 15.4013C17.9849 15.0484 18.4626 14.849 18.9615 14.8462H21.1154C21.6143 14.849 22.0921 15.0484 22.4449 15.4013C22.7977 15.7541 22.9972 16.2318 23 16.7308V18.8846C22.9972 19.3836 22.7977 19.8613 22.4449 20.2141C22.0921 20.5669 21.6143 20.7664 21.1154 20.7692ZM18.9615 16.4615C18.8901 16.4615 18.8217 16.4899 18.7712 16.5404C18.7207 16.5909 18.6923 16.6594 18.6923 16.7308V18.8846C18.6923 18.956 18.7207 19.0245 18.7712 19.075C18.8217 19.1255 18.8901 19.1538 18.9615 19.1538H21.1154C21.1868 19.1538 21.2553 19.1255 21.3058 19.075C21.3563 19.0245 21.3846 18.956 21.3846 18.8846V16.7308C21.3846 16.6594 21.3563 16.5909 21.3058 16.5404C21.2553 16.4899 21.1868 16.4615 21.1154 16.4615H18.9615Z" fill="#007AFF"/>
<path d="M20.0385 16.4615C19.8251 16.4587 19.6213 16.3727 19.4704 16.2219C19.3196 16.071 19.2336 15.8672 19.2308 15.6538V13.5C19.2308 13.4286 19.2024 13.3601 19.1519 13.3096C19.1014 13.2591 19.033 13.2307 18.9616 13.2307H6.03849C5.96708 13.2307 5.8986 13.2591 5.84811 13.3096C5.79762 13.3601 5.76925 13.4286 5.76925 13.5V15.6538C5.76925 15.868 5.68416 16.0735 5.53269 16.2249C5.38122 16.3764 5.17578 16.4615 4.96156 16.4615C4.74735 16.4615 4.54191 16.3764 4.39044 16.2249C4.23897 16.0735 4.15387 15.868 4.15387 15.6538V13.5C4.1567 13.001 4.35616 12.5233 4.70898 12.1705C5.06181 11.8176 5.53953 11.6182 6.03849 11.6154H18.9616C19.4605 11.6182 19.9382 11.8176 20.2911 12.1705C20.6439 12.5233 20.8434 13.001 20.8462 13.5V15.6538C20.8434 15.8672 20.7574 16.071 20.6065 16.2219C20.4557 16.3727 20.2518 16.4587 20.0385 16.4615Z" fill="#007AFF"/>
<path d="M12.5 16.4616C12.2867 16.4588 12.0828 16.3728 11.932 16.2219C11.7811 16.071 11.6951 15.8672 11.6923 15.6539V9.19234C11.6923 8.97812 11.7774 8.77268 11.9289 8.62121C12.0804 8.46974 12.2858 8.38464 12.5 8.38464C12.7142 8.38464 12.9197 8.46974 13.0711 8.62121C13.2226 8.77268 13.3077 8.97812 13.3077 9.19234V15.6539C13.3049 15.8672 13.2189 16.071 13.0681 16.2219C12.9172 16.3728 12.7134 16.4588 12.5 16.4616Z" fill="#007AFF"/>
</svg>
