<svg width="24" height="24" viewBox="0 0 24 24" fill="none" xmlns="http://www.w3.org/2000/svg">
<path d="M21.6 8.00005C21.4781 8.00055 21.3577 7.97318 21.248 7.92005L12 3.20005L2.75197 7.88805C2.55465 7.9814 2.32833 7.99255 2.12279 7.91903C1.91725 7.84552 1.74933 7.69337 1.65597 7.49605C1.56262 7.29873 1.55147 7.0724 1.62498 6.86686C1.6985 6.66132 1.85065 6.4934 2.04797 6.40005L12 1.47205L21.952 6.40005C22.1618 6.44906 22.3438 6.57872 22.4586 6.76097C22.5735 6.94322 22.612 7.16338 22.5657 7.37378C22.5194 7.58418 22.3921 7.76787 22.2113 7.88509C22.0306 8.0023 21.811 8.0436 21.6 8.00005ZM7.99997 16H3.19997V20.8H7.99997V16ZM14.4 16H9.59997V20.8H14.4V16ZM20.8 16H16V20.8H20.8V16ZM17.6 9.60005H12.8V14.4H17.6V9.60005ZM11.2 9.60005H6.39997V14.4H11.2V9.60005Z" fill="#007AFF"/>
</svg>
