<svg width="24" height="24" viewBox="0 0 24 24" fill="none" xmlns="http://www.w3.org/2000/svg">
<circle cx="12" cy="12" r="11" fill="#F5F5F5"/>
<mask id="mask0" mask-type="alpha" maskUnits="userSpaceOnUse" x="1" y="1" width="22" height="22">
<circle cx="12" cy="12" r="11" fill="#F5F5F5"/>
</mask>
<g mask="url(#mask0)">
<path d="M3.7924 22.8794H31.1324C32.222 22.7923 33.188 22.1453 33.6833 21.1709H1.23682C1.73298 22.1466 2.70112 22.7938 3.7924 22.8794Z" fill="#ED5565"/>
<path d="M0.910156 19.4577V20.0919C0.951634 20.4665 1.06067 20.8305 1.23197 21.1662H33.6737C33.845 20.8305 33.954 20.4665 33.9955 20.0919V19.4577H0.910156Z" fill="white"/>
<path d="M34.0002 17.7492H0.910156V19.4577H34.0002V17.7492Z" fill="#ED5565"/>
<path d="M34.0002 16.0408H0.910156V17.7493H34.0002V16.0408Z" fill="white"/>
<path d="M34.0002 14.3323H0.910156V16.0408H34.0002V14.3323Z" fill="#ED5565"/>
<path d="M34.0002 12.6239H0.910156V14.3324H34.0002V12.6239Z" fill="white"/>
<path d="M34.0002 10.9154H0.910156V12.6239H34.0002V10.9154Z" fill="#ED5565"/>
<path d="M34.0002 9.207H0.910156V10.9155H34.0002V9.207Z" fill="white"/>
<path d="M34.0002 7.49854H0.910156V9.20699H34.0002V7.49854Z" fill="#ED5565"/>
<path d="M34.0002 5.78534H0.910156V7.4938H34.0002V5.78534Z" fill="white"/>
<path d="M34.0002 4.07687H0.910156V5.78533H34.0002V4.07687Z" fill="#ED5565"/>
<path d="M34.0004 4.07687V3.4427C33.9595 3.06648 33.8504 2.70085 33.6786 2.36368H1.23685C1.065 2.70085 0.955956 3.06648 0.915039 3.4427V4.07687H34.0004Z" fill="white"/>
<path d="M31.1273 0.659973H3.79206C2.70252 0.747076 1.73651 1.39407 1.24121 2.36843H33.6829C33.1868 1.39271 32.2186 0.745486 31.1273 0.659973Z" fill="#ED5565"/>
<path d="M16.6131 12.6239V0.659973H3.79259C2.29056 0.78022 1.08532 1.94973 0.919922 3.44745V12.6239H16.6131Z" fill="#4A89DC"/>
<path d="M2.85528 2.10815L2.7275 2.50569H2.31104L2.64705 2.74705L2.51927 3.14459L2.85528 2.89849L3.19129 3.14459L3.06351 2.74705L3.39952 2.50569H2.98306L2.85528 2.10815Z" fill="white"/>
<path d="M2.85528 4.11472L2.7275 4.51225H2.31104L2.64705 4.75834L2.51927 5.15115L2.85528 4.90979L3.19129 5.15115L3.06351 4.75834L3.39952 4.51225H2.98306L2.85528 4.11472Z" fill="white"/>
<path d="M2.85528 6.12134L2.7275 6.51887H2.31104L2.64705 6.76497L2.51927 7.1625L2.85528 6.91641L3.19129 7.1625L3.06351 6.76497L3.39952 6.51887H2.98306L2.85528 6.12134Z" fill="white"/>
<path d="M2.85528 8.13269L2.7275 8.52549H2.31104L2.64705 8.77159L2.51927 9.16912L2.85528 8.92303L3.19129 9.16912L3.06351 8.77159L3.39952 8.52549H2.98306L2.85528 8.13269Z" fill="white"/>
<path d="M2.98306 10.5321L2.85528 10.1393L2.7275 10.5321H2.31104L2.64705 10.7782L2.51927 11.1757L2.85528 10.9297L3.19129 11.1757L3.06351 10.7782L3.39952 10.5321H2.98306Z" fill="white"/>
<path d="M4.0335 3.11145L3.90572 3.50899H3.48926L3.82527 3.75508L3.69749 4.14788L4.0335 3.90179L4.37425 4.14788L4.24647 3.75508L4.58248 3.50899H4.16601L4.0335 3.11145Z" fill="white"/>
<path d="M4.0335 5.11804L3.90572 5.51558H3.48926L3.82527 5.76167L3.69749 6.15447L4.0335 5.91311L4.37425 6.15447L4.24647 5.76167L4.58248 5.51558H4.16601L4.0335 5.11804Z" fill="white"/>
<path d="M4.0335 7.12939L3.90572 7.5222H3.48926L3.82527 7.76829L3.69749 8.16583L4.0335 7.91973L4.37425 8.16583L4.24647 7.76829L4.58248 7.5222H4.16601L4.0335 7.12939Z" fill="white"/>
<path d="M4.16601 9.52879L4.0335 9.13599L3.90572 9.52879H3.48926L3.82527 9.77488L3.69749 10.1724L4.0335 9.92632L4.37425 10.1724L4.24647 9.77488L4.58248 9.52879H4.16601Z" fill="white"/>
<path d="M5.21661 2.10815L5.08883 2.50569H4.67236L5.00838 2.74705L4.8806 3.14459L5.21661 2.89849L5.55262 3.14459L5.42484 2.74705L5.76085 2.50569H5.34439L5.21661 2.10815Z" fill="white"/>
<path d="M5.21661 4.11472L5.08883 4.51225H4.67236L5.00838 4.75834L4.8806 5.15115L5.21661 4.90979L5.55262 5.15115L5.42484 4.75834L5.76085 4.51225H5.34439L5.21661 4.11472Z" fill="white"/>
<path d="M5.21661 6.12134L5.08883 6.51887H4.67236L5.00838 6.76497L4.8806 7.1625L5.21661 6.91641L5.55262 7.1625L5.42484 6.76497L5.76085 6.51887H5.34439L5.21661 6.12134Z" fill="white"/>
<path d="M5.21661 8.13269L5.08883 8.52549H4.67236L5.00838 8.77159L4.8806 9.16912L5.21661 8.92303L5.55262 9.16912L5.42484 8.77159L5.76085 8.52549H5.34439L5.21661 8.13269Z" fill="white"/>
<path d="M5.34439 10.5321L5.21661 10.1393L5.08883 10.5321H4.67236L5.00838 10.7782L4.8806 11.1757L5.21661 10.9297L5.55262 11.1757L5.42484 10.7782L5.76085 10.5321H5.34439Z" fill="white"/>
<path d="M6.39532 3.11145L6.26754 3.50899H5.85107L6.18709 3.75508L6.05931 4.14788L6.39532 3.90179L6.73606 4.14788L6.60828 3.75508L6.9443 3.50899H6.52783L6.39532 3.11145Z" fill="white"/>
<path d="M6.39532 5.11804L6.26754 5.51558H5.85107L6.18709 5.76167L6.05931 6.15447L6.39532 5.91311L6.73606 6.15447L6.60828 5.76167L6.9443 5.51558H6.52783L6.39532 5.11804Z" fill="white"/>
<path d="M6.39532 7.12939L6.26754 7.5222H5.85107L6.18709 7.76829L6.05931 8.16583L6.39532 7.91973L6.73606 8.16583L6.60828 7.76829L6.9443 7.5222H6.52783L6.39532 7.12939Z" fill="white"/>
<path d="M6.52783 9.52879L6.39532 9.13599L6.26754 9.52879H5.85107L6.18709 9.77488L6.05931 10.1724L6.39532 9.92632L6.73606 10.1724L6.60828 9.77488L6.9443 9.52879H6.52783Z" fill="white"/>
<path d="M7.57842 2.10815L7.45064 2.50569H7.03418L7.37019 2.74705L7.24241 3.14459L7.57842 2.89849L7.91444 3.14459L7.78666 2.74705L8.12267 2.50569H7.7062L7.57842 2.10815Z" fill="white"/>
<path d="M7.57842 4.11472L7.45064 4.51225H7.03418L7.37019 4.75834L7.24241 5.15115L7.57842 4.90979L7.91444 5.15115L7.78666 4.75834L8.12267 4.51225H7.7062L7.57842 4.11472Z" fill="white"/>
<path d="M7.57842 6.12134L7.45064 6.51887H7.03418L7.37019 6.76497L7.24241 7.1625L7.57842 6.91641L7.91444 7.1625L7.78666 6.76497L8.12267 6.51887H7.7062L7.57842 6.12134Z" fill="white"/>
<path d="M7.57842 8.13269L7.45064 8.52549H7.03418L7.37019 8.77159L7.24241 9.16912L7.57842 8.92303L7.91444 9.16912L7.78666 8.77159L8.12267 8.52549H7.7062L7.57842 8.13269Z" fill="white"/>
<path d="M7.7062 10.5321L7.57842 10.1393L7.45064 10.5321H7.03418L7.37019 10.7782L7.24241 11.1757L7.57842 10.9297L7.91444 11.1757L7.78666 10.7782L8.12267 10.5321H7.7062Z" fill="white"/>
<path d="M8.75665 3.11145L8.62887 3.50899H8.2124L8.54841 3.75508L8.42064 4.14788L8.75665 3.90179L9.09739 4.14788L8.96488 3.75508L9.30562 3.50899H8.88916L8.75665 3.11145Z" fill="white"/>
<path d="M8.75665 5.11804L8.62887 5.51558H8.2124L8.54841 5.76167L8.42064 6.15447L8.75665 5.91311L9.09739 6.15447L8.96488 5.76167L9.30562 5.51558H8.88916L8.75665 5.11804Z" fill="white"/>
<path d="M8.75665 7.12939L8.62887 7.5222H8.2124L8.54841 7.76829L8.42064 8.16583L8.75665 7.91973L9.09739 8.16583L8.96488 7.76829L9.30562 7.5222H8.88916L8.75665 7.12939Z" fill="white"/>
<path d="M8.88916 9.52879L8.75665 9.13599L8.62887 9.52879H8.2124L8.54841 9.77488L8.42064 10.1724L8.75665 9.92632L9.09739 10.1724L8.96488 9.77488L9.30562 9.52879H8.88916Z" fill="white"/>
<path d="M9.93975 2.10815L9.81197 2.50569H9.39551L9.73152 2.74705L9.60374 3.14459L9.93975 2.89849L10.2758 3.14459L10.148 2.74705L10.484 2.50569H10.0675L9.93975 2.10815Z" fill="white"/>
<path d="M9.93975 4.11472L9.81197 4.51225H9.39551L9.73152 4.75834L9.60374 5.15115L9.93975 4.90979L10.2758 5.15115L10.148 4.75834L10.484 4.51225H10.0675L9.93975 4.11472Z" fill="white"/>
<path d="M9.93975 6.12134L9.81197 6.51887H9.39551L9.73152 6.76497L9.60374 7.1625L9.93975 6.91641L10.2758 7.1625L10.148 6.76497L10.484 6.51887H10.0675L9.93975 6.12134Z" fill="white"/>
<path d="M9.93975 8.13269L9.81197 8.52549H9.39551L9.73152 8.77159L9.60374 9.16912L9.93975 8.92303L10.2758 9.16912L10.148 8.77159L10.484 8.52549H10.0675L9.93975 8.13269Z" fill="white"/>
<path d="M10.0675 10.5321L9.93975 10.1393L9.81197 10.5321H9.39551L9.73152 10.7782L9.60374 11.1757L9.93975 10.9297L10.2758 11.1757L10.148 10.7782L10.484 10.5321H10.0675Z" fill="white"/>
<path d="M11.1185 3.11145L10.9907 3.50899H10.5742L10.9102 3.75508L10.7825 4.14788L11.1185 3.90179L11.4592 4.14788L11.3267 3.75508L11.6674 3.50899H11.251L11.1185 3.11145Z" fill="white"/>
<path d="M11.1185 5.11804L10.9907 5.51558H10.5742L10.9102 5.76167L10.7825 6.15447L11.1185 5.91311L11.4592 6.15447L11.3267 5.76167L11.6674 5.51558H11.251L11.1185 5.11804Z" fill="white"/>
<path d="M11.1185 7.12939L10.9907 7.5222H10.5742L10.9102 7.76829L10.7825 8.16583L11.1185 7.91973L11.4592 8.16583L11.3267 7.76829L11.6674 7.5222H11.251L11.1185 7.12939Z" fill="white"/>
<path d="M11.251 9.52879L11.1185 9.13599L10.9907 9.52879H10.5742L10.9102 9.77488L10.7825 10.1724L11.1185 9.92632L11.4592 10.1724L11.3267 9.77488L11.6674 9.52879H11.251Z" fill="white"/>
<path d="M12.3016 2.10815L12.1738 2.50569H11.7573L12.0933 2.74705L11.9656 3.14459L12.3016 2.89849L12.6376 3.14459L12.5098 2.74705L12.8458 2.50569H12.4293L12.3016 2.10815Z" fill="white"/>
<path d="M12.3016 4.11472L12.1738 4.51225H11.7573L12.0933 4.75834L11.9656 5.15115L12.3016 4.90979L12.6376 5.15115L12.5098 4.75834L12.8458 4.51225H12.4293L12.3016 4.11472Z" fill="white"/>
<path d="M12.3016 6.12134L12.1738 6.51887H11.7573L12.0933 6.76497L11.9656 7.1625L12.3016 6.91641L12.6376 7.1625L12.5098 6.76497L12.8458 6.51887H12.4293L12.3016 6.12134Z" fill="white"/>
<path d="M12.3016 8.13269L12.1738 8.52549H11.7573L12.0933 8.77159L11.9656 9.16912L12.3016 8.92303L12.6376 9.16912L12.5098 8.77159L12.8458 8.52549H12.4293L12.3016 8.13269Z" fill="white"/>
<path d="M12.4293 10.5321L12.3016 10.1393L12.1738 10.5321H11.7573L12.0933 10.7782L11.9656 11.1757L12.3016 10.9297L12.6376 11.1757L12.5098 10.7782L12.8458 10.5321H12.4293Z" fill="white"/>
<path d="M13.4798 3.11145L13.352 3.50899H12.9355L13.2716 3.75508L13.1438 4.14788L13.4798 3.90179L13.8205 4.14788L13.688 3.75508L14.0288 3.50899H13.6123L13.4798 3.11145Z" fill="white"/>
<path d="M13.4798 5.11804L13.352 5.51558H12.9355L13.2716 5.76167L13.1438 6.15447L13.4798 5.91311L13.8205 6.15447L13.688 5.76167L14.0288 5.51558H13.6123L13.4798 5.11804Z" fill="white"/>
<path d="M13.4798 7.12939L13.352 7.5222H12.9355L13.2716 7.76829L13.1438 8.16583L13.4798 7.91973L13.8205 8.16583L13.688 7.76829L14.0288 7.5222H13.6123L13.4798 7.12939Z" fill="white"/>
<path d="M13.6123 9.52879L13.4798 9.13599L13.352 9.52879H12.9355L13.2716 9.77488L13.1438 10.1724L13.4798 9.92632L13.8205 10.1724L13.688 9.77488L14.0288 9.52879H13.6123Z" fill="white"/>
<path d="M14.4547 2.74705L14.3269 3.14459L14.6629 2.89849L14.9989 3.14459L14.8711 2.74705L15.2071 2.50569H14.7907L14.6629 2.10815L14.5351 2.50569H14.1187L14.4547 2.74705Z" fill="white"/>
<path d="M14.6629 4.11472L14.5351 4.51225H14.1187L14.4547 4.75834L14.3269 5.15115L14.6629 4.90979L14.9989 5.15115L14.8711 4.75834L15.2071 4.51225H14.7907L14.6629 4.11472Z" fill="white"/>
<path d="M14.6629 6.12134L14.5351 6.51887H14.1187L14.4547 6.76497L14.3269 7.1625L14.6629 6.91641L14.9989 7.1625L14.8711 6.76497L15.2071 6.51887H14.7907L14.6629 6.12134Z" fill="white"/>
<path d="M14.6629 8.13269L14.5351 8.52549H14.1187L14.4547 8.77159L14.3269 9.16912L14.6629 8.92303L14.9989 9.16912L14.8711 8.77159L15.2071 8.52549H14.7907L14.6629 8.13269Z" fill="white"/>
<path d="M14.7907 10.5321L14.6629 10.1393L14.5351 10.5321H14.1187L14.4547 10.7782L14.3269 11.1757L14.6629 10.9297L14.9989 11.1757L14.8711 10.7782L15.2071 10.5321H14.7907Z" fill="white"/>
</g>
</svg>
