<svg width="24" height="24" viewBox="0 0 24 24" fill="none" xmlns="http://www.w3.org/2000/svg">
<g clip-path="url(#clip0_34989_2337)">
<path d="M12.0898 14.3006C12.4561 14.301 12.8084 14.4387 13.0748 14.6856C13.3411 14.9325 13.5014 15.2699 13.5229 15.629C13.5443 15.988 13.4254 16.3415 13.1903 16.6173C12.9552 16.8931 12.6217 17.0704 12.258 17.1128L12.0898 17.1227H7.21222L6.01509 19.2238C5.83753 19.5407 5.54275 19.7787 5.19164 19.8884C4.84054 19.9981 4.45992 19.9712 4.12843 19.8133C3.79694 19.6553 3.53989 19.3784 3.41039 19.0397C3.28089 18.701 3.28883 18.3264 3.43257 17.9933L3.50731 17.8438L3.91832 17.1241H3.17964C2.81111 17.127 2.45555 16.9907 2.18643 16.7435C1.91731 16.4963 1.75521 16.157 1.73362 15.7958C1.71204 15.4345 1.83261 15.079 2.07044 14.8026C2.30826 14.5261 2.64516 14.35 3.0115 14.3105L3.17964 14.3006H12.0898ZM14.8103 10.0844L17.2146 14.3006H19.5629C19.944 14.3006 20.3096 14.4493 20.5791 14.7139C20.8486 14.9785 21 15.3374 21 15.7117C21 16.0859 20.8486 16.4448 20.5791 16.7094C20.3096 16.974 19.944 17.1227 19.5629 17.1227H18.8242L19.2366 17.8452C19.4181 18.1713 19.4611 18.5546 19.3564 18.9118C19.2517 19.2689 19.0077 19.5711 18.6774 19.7527C18.3471 19.9342 17.9572 19.9805 17.5924 19.8815C17.2276 19.7825 16.9173 19.5461 16.7289 19.2238L12.3025 11.463C12.1211 11.1368 12.0781 10.7536 12.1828 10.3964C12.2875 10.0393 12.5315 9.73709 12.8617 9.55553C13.192 9.37397 13.5819 9.32767 13.9468 9.4267C14.3116 9.52573 14.6219 9.76209 14.8103 10.0844ZM11.1887 3.73475L11.3713 4.05505L11.5538 3.73475C11.74 3.40804 12.0507 3.16734 12.4177 3.0656C12.7846 2.96385 13.1777 3.00939 13.5104 3.1922C13.8432 3.37502 14.0883 3.68012 14.1919 4.04041C14.2956 4.40069 14.2492 4.78663 14.063 5.11334L9.63665 12.8741C9.44825 13.1964 9.13794 13.4328 8.7731 13.5318C8.40827 13.6308 8.01837 13.5845 7.68809 13.403C7.35781 13.2214 7.11383 12.9192 7.00912 12.5621C6.90441 12.2049 6.94744 11.8217 7.12886 11.4955L9.72431 6.94346L8.68096 5.11334C8.58639 4.95153 8.52544 4.77292 8.50164 4.58783C8.47783 4.40275 8.49164 4.21487 8.54227 4.03506C8.5929 3.85525 8.67934 3.68708 8.79659 3.54028C8.91384 3.39349 9.05957 3.27098 9.22536 3.17984C9.39115 3.0887 9.5737 3.03075 9.76244 3.00933C9.95119 2.98791 10.1424 3.00346 10.325 3.05506C10.5076 3.10667 10.6779 3.19331 10.8262 3.30998C10.9744 3.42664 11.0977 3.57102 11.1887 3.73475Z" fill="#4285F4"/>
</g>
<defs>
<clipPath id="clip0_34989_2337">
<rect width="24" height="24" fill="white"/>
</clipPath>
</defs>
</svg>
