<svg width="24" height="24" viewBox="0 0 24 24" fill="none" xmlns="http://www.w3.org/2000/svg">
<g clip-path="url(#clip0_36031_27510)">
<path d="M8 11C9.32608 11 10.5979 10.4732 11.5355 9.53553C12.4732 8.59785 13 7.32608 13 6C13 4.67392 12.4732 3.40215 11.5355 2.46447C10.5979 1.52678 9.32608 1 8 1C6.67392 1 5.40215 1.52678 4.46447 2.46447C3.52678 3.40215 3 4.67392 3 6C3 7.32608 3.52678 8.59785 4.46447 9.53553C5.40215 10.4732 6.67392 11 8 11ZM8 11C10.013 11 11.772 11.76 13.023 13.023M8 11C4 11 1 14 1 18V21C1 22.1046 1.89543 23 3 23H8M23 15L21.4142 13.4142C20.6332 12.6332 19.3668 12.6332 18.5858 13.4142L14 18M17.5 14.5L20.5 17.5M10 19.5C10.0003 20.1633 10.264 20.7993 10.7332 21.2682C11.2024 21.737 11.8387 22.0003 12.502 22C13.1653 21.9997 13.8013 21.736 14.2702 21.2668C14.739 20.7976 15.0023 20.1613 15.002 19.498C15.0017 18.8347 14.738 18.1987 14.2688 17.7298C13.7996 17.261 13.1633 16.9977 12.5 16.998C11.8367 16.9983 11.2007 17.262 10.7318 17.7312C10.263 18.2004 9.99973 18.8367 10 19.5Z" stroke="#1270EC" stroke-width="2"/>
</g>
<defs>
<clipPath id="clip0_36031_27510">
<rect width="24" height="24" fill="white"/>
</clipPath>
</defs>
</svg>
