<svg width="24" height="24" viewBox="0 0 24 24" fill="none" xmlns="http://www.w3.org/2000/svg">
<path d="M19.6914 11.1543C21.0233 11.1543 22.1191 12.2519 22.1191 13.6289V16.0625L22.5488 16.2168C23.0104 16.3832 23.3496 16.8368 23.3496 17.375V21.125C23.3496 21.8106 22.8044 22.3496 22.1533 22.3496H17.2295C16.5785 22.3495 16.0332 21.8105 16.0332 21.125V17.375C16.0332 16.8368 16.3733 16.3831 16.835 16.2168L17.2646 16.0625V13.6289C17.2646 12.252 18.3596 11.1544 19.6914 11.1543ZM3.6543 16.125C3.6543 16.8183 4.2131 17.4003 4.91992 17.4004H9.84375C10.5506 17.4004 11.1094 16.8183 11.1094 16.125V11.0996H3.6543V16.125ZM19.6914 11.7285C18.6423 11.7286 17.8105 12.588 17.8105 13.6289V16.1504H21.5723V13.6289C21.5723 12.588 20.7406 11.7285 19.6914 11.7285ZM2.49609 11.1416L1.89355 11.0977C1.20877 11.0484 0.650391 10.4622 0.650391 9.73047C0.650391 9.51815 0.700152 9.3038 0.794922 9.11133L1.25586 8.17383H1.25195L2.97559 4.6709C3.28755 4.04041 3.91435 3.65047 4.59668 3.65039H16.3262C17.0056 3.65057 17.6347 4.04126 17.9424 4.66895L17.9434 4.66992L19.5732 7.97656C17.4379 8.02312 15.604 9.28628 14.708 11.0996H12.2754V18.625C12.2754 19.3105 11.73 19.8494 11.0791 19.8496H3.69336C3.04232 19.8496 2.49609 19.3106 2.49609 18.625V11.1416Z" stroke="#007AFF" stroke-width="1.3"/>
</svg>
