<svg width="28" height="28" viewBox="0 0 28 28" fill="none" xmlns="http://www.w3.org/2000/svg">
<path d="M28 14C28 21.732 21.732 28 14 28C6.26801 28 0 21.732 0 14C0 6.26801 6.26801 0 14 0C21.732 0 28 6.26801 28 14Z" fill="#3F3F40" fill-opacity="0.6"/>
<path d="M13.4766 7.85156C14.7782 7.88553 16.0288 8.38218 17.001 9.25684L17.1904 9.43652C18.1157 10.3523 18.6871 11.5701 18.7969 12.873L18.8135 13.1328C18.8595 14.3892 18.4696 15.6235 17.7119 16.6299L20.5684 19.4141L20.624 19.4727C20.6767 19.5338 20.7203 19.6026 20.7529 19.6768L20.7822 19.752C20.8073 19.8287 20.8208 19.9092 20.8223 19.9902L20.8193 20.0713C20.815 20.1248 20.8057 20.1779 20.791 20.2295L20.7646 20.3057C20.7249 20.4061 20.6653 20.4978 20.5898 20.5752C20.5144 20.6525 20.4246 20.7145 20.3252 20.7568C20.2507 20.7885 20.172 20.8088 20.0918 20.8174L20.0107 20.8223C19.9299 20.8228 19.8496 20.8111 19.7725 20.7881L19.6963 20.7607C19.5967 20.7199 19.506 20.6599 19.4297 20.584V20.585L16.5469 17.7734C15.5249 18.5131 14.2814 18.8786 13.0244 18.8076L12.7646 18.7871C11.464 18.6515 10.2577 18.0558 9.36035 17.1123L9.18555 16.9189C8.27339 15.8638 7.79703 14.501 7.85449 13.1074L7.87207 12.8467C7.98757 11.5501 8.56063 10.3333 9.49414 9.41797L9.68555 9.23926C10.6575 8.37322 11.9086 7.87959 13.2158 7.85156H13.4766ZM13.333 9.4834C12.3757 9.48342 11.4553 9.83992 10.749 10.4795L10.6104 10.6104C9.88838 11.3323 9.48345 12.312 9.4834 13.333C9.4834 14.354 9.88842 15.3337 10.6104 16.0557L10.749 16.1875C11.4552 16.8269 12.3758 17.1836 13.333 17.1836C14.3541 17.1836 15.3336 16.7777 16.0557 16.0557L16.1875 15.917C16.8268 15.2108 17.1836 14.2901 17.1836 13.333C17.1835 12.3759 16.8269 11.4552 16.1875 10.749L16.0557 10.6104C15.3337 9.88842 14.354 9.4834 13.333 9.4834Z" fill="white" stroke="white" strokeWidth="0.3"/>
</svg>
