<svg width="24" height="24" viewBox="0 0 24 24" fill="none" xmlns="http://www.w3.org/2000/svg">
<path d="M17.1431 10.2856C18.0859 10.2856 18.8574 11.0571 18.8574 11.9999C18.8574 12.9428 18.0859 13.7142 17.1431 13.7142C16.2002 13.7142 15.4288 12.9428 15.4288 11.9999C15.4288 11.0571 16.2002 10.2856 17.1431 10.2856ZM12.0002 13.7142C11.0574 13.7142 10.2859 12.9428 10.2859 11.9999C10.2859 11.0571 11.0574 10.2856 12.0002 10.2856C12.9431 10.2856 13.7145 11.0571 13.7145 11.9999C13.7145 12.9428 12.9431 13.7142 12.0002 13.7142ZM6.85735 13.7142C5.91449 13.7142 5.14307 12.9428 5.14307 11.9999C5.14307 11.0571 5.91449 10.2856 6.85735 10.2856C7.80021 10.2856 8.57164 11.0571 8.57164 11.9999C8.57164 12.9428 7.80021 13.7142 6.85735 13.7142Z" fill="#4285F4"/>
</svg>
