<svg width="28" height="18" viewBox="0 0 28 18" fill="none" xmlns="http://www.w3.org/2000/svg">
<path d="M19.3616 8.72971C21.5699 8.72971 23.4701 6.80756 23.4701 4.3048C23.4701 1.83203 21.5596 0 19.3616 0C17.1636 0 15.2531 1.87207 15.2531 4.32475C15.2531 6.80756 17.1533 8.72971 19.3616 8.72971ZM7.5392 8.95993C9.44971 8.95993 11.1137 7.27806 11.1137 5.10567C11.1137 2.95324 9.43941 1.36147 7.5392 1.36147C5.62877 1.36147 3.94424 2.99334 3.95447 5.12569C3.95447 7.27806 5.61846 8.95993 7.5392 8.95993ZM1.80775 18H9.61408C8.5458 16.4883 9.85029 13.445 12.0586 11.7831C10.9185 11.0423 9.44971 10.4916 7.52897 10.4916C2.89657 10.4916 0 13.8253 0 16.5984C0 17.4994 0.513567 18 1.80775 18ZM12.9009 18H25.812C27.4246 18 28 17.5495 28 16.6685C28 14.0856 24.6822 10.5216 19.3513 10.5216C14.0307 10.5216 10.7131 14.0856 10.7131 16.6685C10.7131 17.5495 11.2883 18 12.9009 18Z" fill="white"/>
</svg>
