<svg width="15" height="19" viewBox="0 0 15 19" fill="none" xmlns="http://www.w3.org/2000/svg">
<path d="M7.80078 0.398438C3.93911 0.398438 0.800781 3.53648 0.800781 7.39779C0.800781 9.75424 2.16578 11.7257 3.75245 13.1023C4.25411 13.5339 5.12912 14.2222 5.91078 15.2371C6.77412 16.3686 7.55578 17.5818 7.80078 18.3984C8.04578 17.5818 8.82745 16.3686 9.69078 15.2371C10.4724 14.2222 11.3474 13.5339 11.8491 13.1023C13.4358 11.7257 14.8008 9.75424 14.8008 7.39779C14.8008 3.53648 11.6624 0.398438 7.80078 0.398438ZM7.80078 3.38483C8.32782 3.38483 8.8497 3.48863 9.33662 3.6903C9.82354 3.89197 10.266 4.18756 10.6386 4.5602C11.0113 4.93283 11.3069 5.37522 11.5086 5.8621C11.7103 6.34897 11.8141 6.8708 11.8141 7.39779C11.8141 7.92478 11.7103 8.44661 11.5086 8.93348C11.3069 9.42036 11.0113 9.86274 10.6386 10.2354C10.266 10.608 9.82354 10.9036 9.33662 11.1053C8.8497 11.307 8.32782 11.4108 7.80078 11.4108C6.73638 11.4108 5.71557 10.988 4.96293 10.2354C4.21028 9.48281 3.78745 8.46209 3.78745 7.39779C3.78745 6.33349 4.21028 5.31277 4.96293 4.5602C5.71557 3.80762 6.73638 3.38483 7.80078 3.38483Z" fill="#818C99"/>
</svg>
