<svg width="22" height="16" viewBox="0 0 22 16" fill="none" xmlns="http://www.w3.org/2000/svg">
<path d="M7.625 0.5C6.92966 0.502765 6.26358 0.780214 5.7719 1.2719C5.28021 1.76358 5.00276 2.42966 5 3.125C5 4.5665 6.1835 5.75 7.625 5.75C9.0665 5.75 10.25 4.5665 10.25 3.125C10.25 1.6835 9.0665 0.5 7.625 0.5ZM14.375 0.5C13.6797 0.502765 13.0136 0.780214 12.5219 1.2719C12.0302 1.76358 11.7528 2.42966 11.75 3.125C11.75 4.5665 12.9335 5.75 14.375 5.75C15.8165 5.75 17 4.5665 17 3.125C17 1.6835 15.8165 0.5 14.375 0.5ZM7.625 2C8.255 2 8.75 2.495 8.75 3.125C8.75 3.755 8.255 4.25 7.625 4.25C6.995 4.25 6.5 3.755 6.5 3.125C6.5 2.495 6.995 2 7.625 2ZM14.375 2C15.005 2 15.5 2.495 15.5 3.125C15.5 3.755 15.005 4.25 14.375 4.25C13.745 4.25 13.25 3.755 13.25 3.125C13.25 2.495 13.745 2 14.375 2ZM4.25 5C2.6 5 1.25 6.35 1.25 8C1.25 8.83475 1.60775 9.58775 2.16425 10.133C1.65393 10.4777 1.23555 10.9418 0.945496 11.4851C0.655447 12.0283 0.502514 12.6342 0.5 13.25H2C2 11.999 2.999 11 4.25 11C5.501 11 6.5 11.999 6.5 13.25H8C7.99749 12.6342 7.84455 12.0283 7.5545 11.4851C7.26445 10.9418 6.84607 10.4777 6.33575 10.133C6.89225 9.58775 7.25 8.8355 7.25 8C7.25 6.35 5.9 5 4.25 5ZM8 13.25C7.53125 13.877 7.25 14.6652 7.25 15.5H8.75C8.75 14.249 9.749 13.25 11 13.25C12.251 13.25 13.25 14.249 13.25 15.5H14.75C14.7489 14.6888 14.4859 13.8996 14 13.25C13.745 12.9102 13.4375 12.62 13.0858 12.383C13.6423 11.8377 14 11.0855 14 10.25C14 8.6 12.65 7.25 11 7.25C9.35 7.25 8 8.6 8 10.25C8 11.0848 8.35775 11.8377 8.91425 12.383C8.56278 12.6184 8.25367 12.9115 8 13.25ZM14 13.25H15.5C15.5 11.999 16.499 11 17.75 11C19.001 11 20 11.999 20 13.25H21.5C21.4975 12.6342 21.3446 12.0283 21.0545 11.4851C20.7645 10.9418 20.3461 10.4777 19.8358 10.133C20.3923 9.58775 20.75 8.8355 20.75 8C20.75 6.35 19.4 5 17.75 5C16.1 5 14.75 6.35 14.75 8C14.75 8.83475 15.1077 9.58775 15.6642 10.133C15.1539 10.4777 14.7355 10.9418 14.4455 11.4851C14.1554 12.0283 14.0025 12.6342 14 13.25ZM4.25 6.5C5.08775 6.5 5.75 7.16225 5.75 8C5.75 8.83775 5.08775 9.5 4.25 9.5C3.41225 9.5 2.75 8.83775 2.75 8C2.75 7.16225 3.41225 6.5 4.25 6.5ZM17.75 6.5C18.5877 6.5 19.25 7.16225 19.25 8C19.25 8.83775 18.5877 9.5 17.75 9.5C16.9123 9.5 16.25 8.83775 16.25 8C16.25 7.16225 16.9123 6.5 17.75 6.5ZM11 8.75C11.8378 8.75 12.5 9.41225 12.5 10.25C12.5 11.0878 11.8378 11.75 11 11.75C10.1622 11.75 9.5 11.0878 9.5 10.25C9.5 9.41225 10.1622 8.75 11 8.75Z" fill="#818C99"/>
</svg>
