<svg width="24" height="24" viewBox="0 0 24 24" fill="none" xmlns="http://www.w3.org/2000/svg">
<path d="M14.9039 0.000107388C14.7193 0.007492 14.5411 0.0407228 14.3556 0.0868766L1.8073 3.14411C0.322989 3.5078 -0.605626 5.00503 -0.241011 6.49026L1.51837 13.6736C1.62499 14.1015 1.83257 14.4976 2.12374 14.8288C2.41492 15.16 2.7812 15.4165 3.19191 15.577V13.8463C3.19191 11.3013 5.26237 9.23088 7.8073 9.23088H19.4325L17.7018 2.10565C17.5487 1.48628 17.1867 0.938646 16.6769 0.555091C16.167 0.171536 15.5414 -0.0244764 14.9039 0.000107388ZM16.0282 3.98134L16.7787 7.12534L13.6633 7.87488L12.8842 4.75949L16.0282 3.98134ZM7.8073 11.077C6.27868 11.077 5.03807 12.3176 5.03807 13.8463V21.2309C5.03807 22.7595 6.27868 24.0001 7.8073 24.0001H20.7304C22.259 24.0001 23.4996 22.7595 23.4996 21.2309V13.8463C23.4996 12.3176 22.259 11.077 20.7304 11.077H7.8073ZM7.8073 12.5484H20.7304C21.4421 12.5484 22.0282 13.1346 22.0282 13.8463V14.7693H6.50945V13.8463C6.50945 13.1346 7.0956 12.5484 7.8073 12.5484ZM6.50945 17.5386H22.0282V21.2309C22.0282 21.9426 21.4421 22.5287 20.7304 22.5287H7.8073C7.46369 22.5268 7.1347 22.3894 6.89172 22.1465C6.64875 21.9035 6.51139 21.5745 6.50945 21.2309V17.5386Z" fill="#818C99"/>
</svg>
