<svg width="20" height="20" viewBox="0 0 20 20" fill="none" xmlns="http://www.w3.org/2000/svg">
<path d="M7.92578 2.01953L4.93066 3.7373C4.79776 3.80672 4.64994 3.84277 4.5 3.84277C4.38764 3.84277 4.27644 3.82262 4.17188 3.7832L4.06934 3.7373L2.07422 2.59961L1.84961 2.47168V17C1.84961 17.305 1.97088 17.5978 2.18652 17.8135C2.40219 18.0291 2.695 18.1504 3 18.1504H14.3945L14.3213 17.9492C14.2383 17.7207 14.1846 17.4826 14.1621 17.2412L14.1504 16.999V2.47168L13.9258 2.59961L11.9307 3.7373C11.7978 3.80672 11.6499 3.84277 11.5 3.84277C11.3876 3.84277 11.2764 3.82262 11.1719 3.7832L11.0693 3.7373L8.07422 2.01953L8 1.97754L7.92578 2.01953ZM15.8496 17C15.8496 17.305 15.9709 17.5978 16.1865 17.8135C16.4022 18.0291 16.695 18.1504 17 18.1504C17.305 18.1504 17.5978 18.0291 17.8135 17.8135C18.0291 17.5978 18.1504 17.305 18.1504 17V11.8496H15.8496V17ZM8 5.15039C8.22542 5.15039 8.44118 5.24003 8.60059 5.39941C8.75998 5.5588 8.84959 5.77459 8.84961 6V6.65039H10C10.2254 6.65039 10.4412 6.74003 10.6006 6.89941C10.76 7.0588 10.8496 7.27459 10.8496 7.5C10.8496 7.72543 10.76 7.94216 10.6006 8.10156C10.4412 8.26068 10.2252 8.34961 10 8.34961H7.5C7.32763 8.34961 7.16193 8.41816 7.04004 8.54004C6.91816 8.66192 6.84963 8.82763 6.84961 9C6.84961 9.17237 6.91816 9.33807 7.04004 9.45996C7.16194 9.58186 7.32761 9.65039 7.5 9.65039H8.5C9.08261 9.64981 9.64471 9.86546 10.0771 10.2559C10.5096 10.6464 10.7822 11.1839 10.8408 11.7637C10.8994 12.3434 10.7401 12.9244 10.3945 13.3936C10.0489 13.8628 9.54085 14.1868 8.96973 14.3027L8.84961 14.3271V15C8.84961 15.2254 8.75999 15.4422 8.60059 15.6016C8.44122 15.7607 8.22522 15.8496 8 15.8496C7.77478 15.8496 7.55877 15.7607 7.39941 15.6016C7.24001 15.4422 7.15039 15.2254 7.15039 15V14.3496H6C5.77478 14.3496 5.55877 14.2607 5.39941 14.1016C5.24001 13.9422 5.15039 13.7254 5.15039 13.5C5.15041 13.2746 5.24002 13.0588 5.39941 12.8994C5.55882 12.74 5.77458 12.6504 6 12.6504H8.5C8.67239 12.6504 8.83806 12.5819 8.95996 12.46C9.08184 12.3381 9.15039 12.1724 9.15039 12C9.15037 11.8276 9.08184 11.6619 8.95996 11.54C8.83807 11.4182 8.67237 11.3496 8.5 11.3496H7.5L7.28223 11.3398C6.77853 11.2935 6.30116 11.0857 5.92285 10.7441C5.49037 10.3535 5.21776 9.81613 5.15918 9.23633C5.10793 8.72898 5.22319 8.22056 5.48438 7.78711L5.60547 7.60645C5.95111 7.13723 6.45915 6.81324 7.03027 6.69727L7.15039 6.67285V6C7.15041 5.77459 7.24002 5.5588 7.39941 5.39941C7.55882 5.24003 7.77458 5.15039 8 5.15039ZM0.150391 0.999023C0.150004 0.886794 0.171462 0.77598 0.213867 0.672852L0.262695 0.572266C0.318705 0.474831 0.393872 0.390282 0.482422 0.322266L0.575195 0.259766C0.704353 0.18525 0.850885 0.146486 1 0.146484C1.11197 0.146484 1.22241 0.168367 1.3252 0.210938L1.4248 0.259766H1.42578L4.42578 1.98047L4.5 2.02344L4.57422 1.98047L7.57422 0.259766H7.5752C7.70435 0.18525 7.85089 0.146486 8 0.146484C8.11197 0.146484 8.22241 0.168367 8.3252 0.210938L8.4248 0.259766H8.42578L11.4258 1.98047L11.5 2.02344L11.5742 1.98047L14.5742 0.259766H14.5752C14.7044 0.18525 14.8509 0.146486 15 0.146484C15.112 0.146484 15.2224 0.168367 15.3252 0.210938L15.4248 0.259766C15.5545 0.33464 15.6627 0.442439 15.7373 0.572266C15.7932 0.669608 15.8285 0.777064 15.8428 0.887695L15.8496 0.999023V10.1504H19C19.2254 10.1504 19.4412 10.24 19.6006 10.3994C19.76 10.5588 19.8496 10.7746 19.8496 11V17C19.8496 17.7559 19.5501 18.4811 19.0156 19.0156C18.4811 19.5501 17.7559 19.8496 17 19.8496H3C2.3386 19.8496 1.70051 19.6206 1.19336 19.2051L0.984375 19.0156C0.44992 18.4812 0.150391 17.7558 0.150391 17V0.999023Z" fill="#818C99" stroke="white" stroke-width="0.3"/>
</svg>
