<svg width="26" height="26" viewBox="0 0 26 26" fill="none" xmlns="http://www.w3.org/2000/svg">
<path d="M12.9999 24.4284C19.3117 24.4284 24.4284 19.3117 24.4284 12.9999C24.4284 6.68803 19.3117 1.57129 12.9999 1.57129C6.68803 1.57129 1.57129 6.68803 1.57129 12.9999C1.57129 19.3117 6.68803 24.4284 12.9999 24.4284Z" stroke="#868D98" stroke-width="2" stroke-linecap="round" stroke-linejoin="round"/>
<path fill-rule="evenodd" clip-rule="evenodd" d="M12.9998 14.4284C13.7141 14.4284 14.4284 13.7141 14.4284 12.9999C14.4284 12.2856 13.7141 11.5713 12.9998 11.5713C12.2855 11.5713 11.5727 12.2856 11.5727 12.9999C11.5727 13.7141 12.2855 14.4284 12.9998 14.4284ZM7.28554 14.4284C7.99983 14.4284 8.71411 13.7141 8.71411 12.9999C8.71411 12.2856 7.99983 11.5713 7.28554 11.5713C6.57126 11.5713 5.8584 12.2856 5.8584 12.9999C5.8584 13.7141 6.57126 14.4284 7.28554 14.4284ZM18.7141 14.4284C19.4284 14.4284 20.1427 13.7141 20.1427 12.9999C20.1427 12.2856 19.4284 11.5713 18.7141 11.5713C17.9998 11.5713 17.287 12.2856 17.287 12.9999C17.287 13.7141 17.9998 14.4284 18.7141 14.4284Z" fill="#868D98"/>
</svg>
