<?xml version="1.0" standalone="no"?>
<!DOCTYPE svg PUBLIC "-//W3C//DTD SVG 20010904//EN"
 "http://www.w3.org/TR/2001/REC-SVG-20010904/DTD/svg10.dtd">
<svg version="1.0" xmlns="http://www.w3.org/2000/svg"
 width="700.000000pt" height="700.000000pt" viewBox="0 0 700.000000 700.000000"
 preserveAspectRatio="xMidYMid meet">
<metadata>
Created by potrace 1.11, written by Peter Selinger 2001-2013
</metadata>
<g transform="translate(0.000000,700.000000) scale(0.100000,-0.100000)"
fill="#000000" stroke="none">
<path d="M3534 6449 c-44 -9 -98 -22 -120 -30 -21 -7 -43 -14 -49 -15 -31 -6
-175 -82 -251 -133 -81 -53 -222 -181 -283 -255 -59 -73 -159 -231 -212 -336
-67 -134 -152 -378 -173 -495 -3 -16 -10 -55 -16 -85 -31 -176 -38 -261 -34
-470 1 -102 5 -202 8 -224 5 -40 16 -62 16 -33 0 15 90 300 109 342 4 11 27
70 51 130 65 168 165 364 265 519 201 314 458 519 707 565 66 12 175 8 238 -9
462 -124 861 -860 968 -1785 9 -79 9 -427 -1 -535 -36 -411 -173 -935 -367
-1410 -28 -69 -54 -132 -57 -140 -4 -8 7 -1 23 16 254 272 461 592 619 961 83
196 86 202 129 343 47 154 61 211 91 365 5 26 23 136 32 205 10 71 10 501 0
605 -95 985 -617 1758 -1283 1900 -110 24 -306 26 -410 4z"/>
<path d="M3078 4355 c-1 -1 -34 -6 -73 -9 -38 -4 -95 -11 -125 -16 -30 -5 -70
-12 -87 -15 -128 -21 -340 -84 -501 -149 -392 -158 -722 -374 -1007 -660 -146
-147 -152 -153 -251 -286 -201 -269 -338 -586 -370 -850 -3 -30 -8 -58 -10
-62 -6 -10 -5 -246 1 -293 3 -22 7 -51 10 -65 3 -14 8 -37 10 -51 10 -55 48
-165 82 -238 124 -265 364 -469 678 -579 101 -35 252 -67 365 -79 162 -16 446
-5 580 22 14 2 39 7 55 10 58 10 79 15 203 50 187 54 398 142 514 216 l33 20
-40 -6 c-222 -33 -503 -45 -725 -31 -150 9 -211 16 -342 40 -225 40 -462 138
-609 252 -179 138 -254 296 -253 534 1 174 42 327 135 512 150 297 445 629
774 873 82 60 222 155 229 155 3 0 21 11 41 25 93 63 440 221 540 246 17 4 68
19 115 33 88 26 248 60 335 72 28 3 57 8 66 9 146 28 616 22 779 -10 14 -3 43
-8 65 -11 50 -7 249 -50 293 -63 17 -5 32 -8 32 -6 0 14 -141 100 -285 173
-192 97 -488 189 -700 217 -27 4 -66 9 -85 12 -39 6 -466 13 -472 8z"/>
<path d="M3818 3945 c-1 -1 -54 -5 -116 -9 -62 -3 -116 -7 -120 -10 -4 -2 -31
-7 -61 -10 -232 -28 -490 -143 -595 -267 -15 -19 -42 -63 -59 -99 -63 -131
-42 -339 52 -534 81 -167 236 -380 367 -507 175 -167 371 -245 526 -209 225
52 467 328 594 675 19 55 37 107 39 115 2 8 8 33 14 55 10 39 19 83 27 135 8
56 4 219 -7 270 -16 77 -60 168 -100 211 -93 97 -188 144 -354 174 -63 11
-198 18 -207 10z"/>
<path d="M5385 3591 c130 -127 193 -196 265 -286 73 -92 200 -280 200 -295 0
-5 5 -10 10 -10 6 0 10 -4 10 -9 0 -4 17 -39 38 -77 93 -170 184 -426 207
-584 14 -94 13 -236 -2 -304 -21 -100 -56 -161 -137 -241 -111 -110 -270 -181
-489 -219 -184 -32 -478 -25 -712 16 -102 17 -108 19 -175 34 -36 9 -72 17
-80 19 -58 12 -303 87 -345 105 -11 4 -74 30 -139 56 -433 173 -913 550 -1242
974 -212 273 -340 564 -360 820 -3 36 -7 66 -9 68 -3 4 -33 -121 -40 -173 -8
-53 -7 -177 0 -245 47 -402 261 -841 600 -1229 59 -68 252 -260 314 -311 201
-169 460 -333 694 -439 37 -17 69 -31 72 -31 3 0 24 -9 48 -20 119 -55 456
-155 592 -175 11 -2 50 -8 86 -14 119 -20 211 -26 379 -26 204 0 275 7 435 41
38 9 80 17 92 20 42 8 198 66 263 97 68 33 181 96 190 106 3 3 31 26 63 50 31
24 82 71 113 103 56 61 134 162 134 174 0 3 8 18 18 32 36 53 79 173 99 277 9
50 10 274 0 335 -29 188 -97 371 -214 569 -31 52 -60 100 -65 106 -4 5 -39 51
-77 100 -109 143 -234 264 -397 388 -145 109 -260 174 -449 253 l-80 34 90
-89z"/>
</g>
</svg>
